<?xml version="1.0" encoding="UTF-8" standalone="no"?>
<!DOCTYPE svg PUBLIC "-//W3C//DTD SVG 20010904//EN"
              "http://www.w3.org/TR/2001/REC-SVG-20010904/DTD/svg10.dtd">

<svg xmlns="http://www.w3.org/2000/svg"
     width="325.121mm" height="182.88mm"
     viewBox="0 0 3840 2160">
  <path id="Selection"
        fill="none" stroke="black" stroke-width="1"
        d="M 2351.00,23.00
           C 2338.41,42.92 2319.05,62.40 2301.00,77.41
             2271.72,101.77 2253.48,111.11 2219.00,125.61
             2219.00,125.61 2192.00,135.98 2192.00,135.98
             2192.00,135.98 2156.00,145.23 2156.00,145.23
             2156.00,145.23 2144.00,148.58 2144.00,148.58
             2144.00,148.58 2101.00,155.16 2101.00,155.16
             2101.00,155.16 2084.00,157.82 2084.00,157.82
             2084.00,157.82 2051.00,160.00 2051.00,160.00
             2051.00,160.00 2038.00,161.00 2038.00,161.00
             2038.00,161.00 2016.00,162.00 2016.00,162.00
             2016.00,162.00 1967.00,162.00 1967.00,162.00
             1967.00,162.00 1949.00,162.00 1949.00,162.00
             1949.00,162.00 1935.00,162.00 1935.00,162.00
             1935.00,162.00 1920.00,161.00 1920.00,161.00
             1920.00,161.00 1903.00,160.18 1903.00,160.18
             1903.00,160.18 1891.00,160.96 1891.00,160.96
             1891.00,160.96 1880.00,160.00 1880.00,160.00
             1880.00,160.00 1853.00,159.00 1853.00,159.00
             1853.00,159.00 1841.00,158.04 1841.00,158.04
             1841.00,158.04 1827.00,159.00 1827.00,159.00
             1827.00,159.00 1808.00,158.00 1808.00,158.00
             1808.00,158.00 1791.00,158.00 1791.00,158.00
             1791.00,158.00 1754.00,161.42 1754.00,161.42
             1750.61,161.89 1742.94,162.55 1740.51,164.73
             1737.65,167.31 1738.01,172.47 1738.00,176.00
             1738.00,176.00 1738.00,188.00 1738.00,188.00
             1738.00,188.00 1737.04,203.00 1737.04,203.00
             1737.04,203.00 1737.04,213.00 1737.04,213.00
             1737.04,213.00 1737.92,221.00 1737.92,221.00
             1737.92,221.00 1737.00,233.00 1737.00,233.00
             1737.00,233.00 1737.00,251.00 1737.00,251.00
             1737.00,251.00 1736.00,271.00 1736.00,271.00
             1736.00,271.00 1736.97,285.00 1736.97,285.00
             1736.97,285.00 1736.00,299.00 1736.00,299.00
             1736.00,299.00 1736.00,318.00 1736.00,318.00
             1736.00,318.00 1735.00,335.00 1735.00,335.00
             1735.00,335.00 1735.96,348.00 1735.96,348.00
             1735.96,348.00 1735.00,364.00 1735.00,364.00
             1735.00,364.00 1735.00,382.00 1735.00,382.00
             1735.00,382.00 1734.00,400.00 1734.00,400.00
             1734.00,400.00 1734.99,412.00 1734.99,412.00
             1734.99,412.00 1734.00,429.00 1734.00,429.00
             1734.00,429.00 1734.00,447.00 1734.00,447.00
             1734.00,447.00 1733.00,460.00 1733.00,460.00
             1733.00,460.00 1733.00,464.00 1733.00,464.00
             1733.00,464.00 1733.99,476.00 1733.99,476.00
             1733.99,476.00 1733.00,491.00 1733.00,491.00
             1733.00,491.00 1733.00,510.00 1733.00,510.00
             1733.00,510.00 1732.01,524.00 1732.01,524.00
             1732.01,524.00 1732.96,538.00 1732.96,538.00
             1733.10,541.10 1732.35,547.15 1734.60,549.40
             1736.36,551.17 1750.81,551.96 1754.00,552.00
             1754.00,552.00 1769.00,552.00 1769.00,552.00
             1769.00,552.00 1789.00,551.00 1789.00,551.00
             1798.52,551.02 1799.98,551.25 1800.00,561.00
             1800.00,561.00 1800.00,635.00 1800.00,635.00
             1800.00,635.00 1800.00,892.00 1800.00,892.00
             1800.00,892.00 1800.00,2012.00 1800.00,2012.00
             1800.01,2016.36 1799.86,2021.15 1802.70,2024.79
             1808.43,2032.13 1830.92,2034.89 1840.00,2035.00
             1854.23,2035.16 1867.05,2034.66 1881.00,2031.35
             1886.65,2030.00 1895.97,2026.81 1898.26,2020.98
             1899.13,2018.77 1899.00,2015.40 1899.00,2013.00
             1899.00,2013.00 1899.00,1951.00 1899.00,1951.00
             1899.00,1951.00 1898.00,1936.00 1898.00,1936.00
             1898.00,1936.00 1898.00,1803.00 1898.00,1803.00
             1898.00,1803.00 1897.00,1788.00 1897.00,1788.00
             1897.00,1788.00 1897.00,1655.00 1897.00,1655.00
             1897.00,1655.00 1896.00,1640.00 1896.00,1640.00
             1896.00,1640.00 1896.00,1507.00 1896.00,1507.00
             1896.00,1507.00 1895.00,1492.00 1895.00,1492.00
             1895.00,1492.00 1895.00,1360.00 1895.00,1360.00
             1895.00,1360.00 1894.00,1345.00 1894.00,1345.00
             1894.00,1345.00 1894.00,1212.00 1894.00,1212.00
             1894.00,1212.00 1893.00,1197.00 1893.00,1197.00
             1893.00,1197.00 1893.00,1064.00 1893.00,1064.00
             1893.00,1064.00 1892.00,1049.00 1892.00,1049.00
             1892.00,1049.00 1892.00,916.00 1892.00,916.00
             1892.00,916.00 1891.00,901.00 1891.00,901.00
             1891.00,901.00 1891.00,768.00 1891.00,768.00
             1891.00,768.00 1890.00,753.00 1890.00,753.00
             1890.00,753.00 1890.00,620.00 1890.00,620.00
             1890.00,620.00 1889.00,603.00 1889.00,603.00
             1889.00,603.00 1889.00,559.00 1889.00,559.00
             1889.01,556.46 1888.68,552.52 1890.60,550.60
             1892.43,548.77 1895.62,549.06 1898.00,548.99
             1898.00,548.99 1912.00,548.00 1912.00,548.00
             1912.00,548.00 1960.00,548.00 1960.00,548.00
             1960.00,548.00 1973.00,547.08 1973.00,547.08
             1973.00,547.08 1981.00,547.96 1981.00,547.96
             1981.00,547.96 1992.00,547.96 1992.00,547.96
             1992.00,547.96 2004.00,548.91 2004.00,548.91
             2004.00,548.91 2033.00,550.00 2033.00,550.00
             2033.00,550.00 2076.00,554.73 2076.00,554.73
             2076.00,554.73 2102.00,558.08 2102.00,558.08
             2102.00,558.08 2154.00,569.99 2154.00,569.99
             2154.00,569.99 2172.00,574.74 2172.00,574.74
             2194.72,582.10 2231.12,597.89 2251.00,610.69
             2273.70,625.30 2294.73,642.95 2312.83,663.00
             2318.09,668.83 2325.47,678.48 2329.98,685.00
             2331.41,687.08 2335.45,693.95 2337.38,694.85
             2340.93,696.50 2349.23,689.38 2352.00,687.20
             2363.36,678.23 2379.23,665.39 2388.91,655.00
             2405.52,637.18 2422.93,614.95 2435.40,594.00
             2435.40,594.00 2447.31,572.00 2447.31,572.00
             2454.51,558.69 2461.26,545.10 2466.80,531.00
             2466.80,531.00 2475.67,505.00 2475.67,505.00
             2475.67,505.00 2487.10,467.00 2487.10,467.00
             2487.10,467.00 2489.42,454.00 2489.42,454.00
             2493.23,436.62 2497.14,418.73 2498.83,401.00
             2498.83,401.00 2500.17,380.00 2500.17,380.00
             2500.17,380.00 2502.16,357.00 2502.16,357.00
             2502.16,357.00 2502.16,346.00 2502.16,346.00
             2502.16,346.00 2502.16,337.00 2502.16,337.00
             2502.16,337.00 2501.00,312.00 2501.00,312.00
             2501.00,312.00 2501.00,301.00 2501.00,301.00
             2501.00,301.00 2498.68,273.00 2498.68,273.00
             2498.68,273.00 2496.27,260.00 2496.27,260.00
             2491.67,228.06 2488.27,211.83 2478.00,181.00
             2478.00,181.00 2467.57,152.00 2467.57,152.00
             2467.57,152.00 2459.25,135.00 2459.25,135.00
             2442.75,102.01 2424.67,74.93 2396.00,51.08
             2385.41,42.27 2364.03,26.72 2351.00,23.00 Z
           M 2413.04,99.43
           C 2427.86,97.18 2434.74,111.44 2441.54,122.00
             2446.69,129.99 2448.49,131.85 2452.69,141.00
             2452.69,141.00 2465.42,175.00 2465.42,175.00
             2475.42,201.72 2484.68,230.25 2485.00,259.00
             2485.00,259.00 2485.82,283.00 2485.82,283.00
             2485.82,283.00 2485.00,295.00 2485.00,295.00
             2485.00,295.00 2485.00,317.00 2485.00,317.00
             2485.00,317.00 2484.00,332.00 2484.00,332.00
             2484.00,332.00 2484.00,376.00 2484.00,376.00
             2484.00,376.00 2479.16,419.00 2479.16,419.00
             2479.16,419.00 2474.57,458.00 2474.57,458.00
             2474.57,458.00 2467.42,490.00 2467.42,490.00
             2467.42,490.00 2460.25,521.00 2460.25,521.00
             2460.25,521.00 2436.22,577.00 2436.22,577.00
             2436.22,577.00 2417.02,606.00 2417.02,606.00
             2417.02,606.00 2395.10,637.83 2395.10,637.83
             2390.86,642.88 2380.35,651.82 2375.00,656.42
             2365.86,664.30 2365.56,665.22 2355.00,671.82
             2351.51,674.00 2347.28,676.35 2343.00,675.57
             2332.87,673.73 2328.40,651.81 2326.92,643.00
             2325.65,635.42 2324.91,627.68 2325.00,620.00
             2325.24,599.86 2337.16,570.13 2352.09,556.59
             2363.21,546.50 2369.44,544.68 2381.00,537.31
             2381.00,537.31 2398.17,524.14 2398.17,524.14
             2406.30,518.30 2413.47,513.46 2419.36,505.00
             2425.22,496.57 2429.73,480.30 2430.48,470.00
             2430.75,466.41 2429.76,462.47 2428.85,459.00
             2423.62,439.09 2417.80,436.33 2409.90,419.00
             2409.90,419.00 2405.38,406.00 2405.38,406.00
             2405.38,406.00 2402.00,372.00 2402.00,372.00
             2401.89,362.13 2405.42,332.18 2408.04,323.00
             2408.04,323.00 2414.31,305.00 2414.31,305.00
             2414.31,305.00 2417.46,295.00 2417.46,295.00
             2417.46,295.00 2423.69,282.00 2423.69,282.00
             2423.69,282.00 2428.05,270.00 2428.05,270.00
             2431.47,260.69 2439.70,248.99 2441.61,240.00
             2441.61,240.00 2442.20,232.00 2442.20,232.00
             2442.99,226.03 2443.49,224.13 2442.20,218.00
             2440.97,212.91 2439.22,204.43 2437.01,200.00
             2437.01,200.00 2418.46,172.00 2418.46,172.00
             2415.14,166.25 2415.44,163.55 2413.13,158.00
             2406.20,141.41 2402.78,140.96 2403.00,122.00
             2403.09,114.52 2405.56,102.68 2413.04,99.43 Z
           M 2471.01,663.04
           C 2463.24,668.38 2458.07,679.59 2454.12,688.00
             2444.50,708.47 2432.95,730.10 2441.05,753.00
             2446.20,767.57 2453.72,780.90 2471.00,781.91
             2488.79,782.94 2503.70,767.64 2509.34,752.00
             2510.36,749.16 2511.71,746.01 2511.86,743.00
             2511.86,743.00 2510.88,735.00 2510.88,735.00
             2510.88,735.00 2510.88,726.00 2510.88,726.00
             2508.99,715.87 2501.96,700.30 2497.24,691.00
             2493.77,684.15 2487.55,673.74 2482.54,668.09
             2479.11,664.23 2476.26,661.66 2471.01,663.04 Z
           M 2351.00,741.78
           C 2340.87,744.95 2332.11,764.62 2327.64,774.00
             2320.21,789.56 2307.08,818.04 2307.08,835.00
             2307.08,843.15 2311.48,858.48 2314.86,866.00
             2321.61,880.97 2336.31,894.93 2354.00,892.71
             2361.58,891.76 2368.76,888.94 2375.00,884.56
             2380.52,880.68 2383.73,877.44 2387.71,872.00
             2393.13,864.60 2398.55,854.19 2399.79,845.00
             2399.79,845.00 2399.00,827.00 2399.00,827.00
             2398.82,812.47 2389.58,794.03 2383.36,781.00
             2378.69,771.21 2371.78,759.41 2365.00,751.00
             2361.17,746.26 2357.42,742.11 2351.00,741.78 Z
           M 2423.04,936.99
           C 2416.55,941.61 2413.28,949.99 2410.08,957.00
             2405.93,966.09 2396.90,988.49 2397.26,998.00
             2397.26,998.00 2399.74,1010.00 2399.74,1010.00
             2402.92,1021.42 2409.56,1034.28 2423.00,1034.96
             2431.51,1035.39 2437.16,1032.04 2442.83,1025.99
             2461.91,1005.99 2453.53,980.71 2442.83,959.00
             2440.02,953.50 2432.67,938.89 2426.91,936.99
             2424.90,936.22 2424.76,936.71 2423.04,936.99 Z" />
</svg>
