<?xml version="1.0" encoding="UTF-8" standalone="no"?>
<!DOCTYPE svg PUBLIC "-//W3C//DTD SVG 20010904//EN"
              "http://www.w3.org/TR/2001/REC-SVG-20010904/DTD/svg10.dtd">

<svg xmlns="http://www.w3.org/2000/svg"
     width="12.8in" height="7.2in"
     viewBox="0 0 3840 2160">
  <path id="Selection"
        fill="none" stroke="black" stroke-width="1"
        d="M 1619.00,462.00
           C 1619.00,462.00 1639.00,460.99 1639.00,460.99
             1639.00,460.99 1645.00,460.99 1645.00,460.99
             1645.00,460.99 1651.83,460.99 1651.83,460.99
             1657.49,461.50 1657.93,466.40 1658.00,471.00
             1658.00,471.00 1658.00,533.00 1658.00,533.00
             1657.99,540.63 1656.17,558.70 1652.16,564.99
             1647.43,572.40 1630.88,580.41 1623.00,585.01
             1623.00,585.01 1591.00,604.00 1591.00,604.00
             1591.00,604.00 1576.00,613.09 1576.00,613.09
             1576.00,613.09 1564.00,617.50 1564.00,617.50
             1557.76,620.18 1549.32,625.33 1544.00,629.52
             1544.00,629.52 1535.00,637.21 1535.00,637.21
             1535.00,637.21 1518.00,648.75 1518.00,648.75
             1518.00,648.75 1500.00,662.58 1500.00,662.58
             1493.34,667.29 1476.00,679.61 1471.18,685.00
             1464.84,692.10 1460.46,700.72 1455.97,709.00
             1451.10,717.98 1445.62,726.42 1441.83,736.00
             1435.61,751.69 1432.63,768.47 1429.68,785.00
             1429.68,785.00 1426.29,797.00 1426.29,797.00
             1423.83,808.66 1423.90,813.07 1424.16,824.72
             1424.16,824.72 1425.16,842.72 1425.16,842.72
             1425.16,842.72 1423.34,867.00 1423.34,867.00
             1423.34,867.00 1424.09,877.58 1424.09,877.58
             1424.09,877.58 1424.09,913.00 1424.09,913.00
             1424.09,913.00 1423.00,928.00 1423.00,928.00
             1423.00,928.00 1423.00,1008.00 1423.00,1008.00
             1423.00,1008.00 1422.00,1023.00 1422.00,1023.00
             1422.00,1023.00 1422.00,1172.00 1422.00,1172.00
             1422.00,1172.00 1423.00,1187.00 1423.00,1187.00
             1423.00,1187.00 1423.00,1320.00 1423.00,1320.00
             1423.00,1320.00 1424.00,1335.00 1424.00,1335.00
             1424.00,1335.00 1424.00,1412.00 1424.00,1412.00
             1424.00,1412.00 1425.00,1429.00 1425.00,1429.00
             1425.00,1429.00 1425.00,1483.00 1425.00,1483.00
             1425.00,1483.00 1426.00,1500.00 1426.00,1500.00
             1426.00,1500.00 1426.00,1541.00 1426.00,1541.00
             1426.00,1541.00 1427.00,1558.00 1427.00,1558.00
             1427.00,1558.00 1427.00,1590.00 1427.00,1590.00
             1427.00,1590.00 1428.00,1607.00 1428.00,1607.00
             1428.00,1607.00 1428.00,1630.00 1428.00,1630.00
             1428.00,1630.00 1429.00,1647.00 1429.00,1647.00
             1429.00,1647.00 1430.00,1687.00 1430.00,1687.00
             1430.00,1687.00 1431.00,1702.00 1431.00,1702.00
             1431.00,1702.00 1433.00,1732.00 1433.00,1732.00
             1433.00,1732.00 1433.00,1761.00 1433.00,1761.00
             1433.00,1761.00 1433.96,1773.00 1433.96,1773.00
             1433.96,1773.00 1433.96,1789.00 1433.96,1789.00
             1434.02,1799.40 1435.03,1796.43 1435.82,1803.00
             1436.87,1811.75 1437.02,1820.46 1439.75,1829.00
             1445.04,1845.61 1454.17,1867.18 1466.09,1880.00
             1477.78,1892.56 1496.19,1901.86 1512.00,1908.20
             1542.81,1920.56 1575.39,1927.11 1608.00,1932.59
             1654.12,1940.33 1708.23,1943.93 1755.00,1944.00
             1755.00,1944.00 1770.00,1945.00 1770.00,1945.00
             1770.00,1945.00 1788.00,1945.00 1788.00,1945.00
             1788.00,1945.00 1805.00,1944.00 1805.00,1944.00
             1872.92,1943.89 1950.33,1937.14 2017.00,1923.80
             2047.68,1917.66 2077.92,1909.87 2107.00,1898.20
             2122.79,1891.86 2143.19,1881.33 2154.91,1868.99
             2164.11,1859.30 2173.52,1840.81 2177.64,1828.00
             2180.24,1819.93 2180.99,1803.73 2181.00,1795.00
             2181.00,1795.00 2183.00,1764.00 2183.00,1764.00
             2183.00,1764.00 2183.00,1720.00 2183.00,1720.00
             2183.00,1720.00 2184.00,1703.00 2184.00,1703.00
             2184.00,1703.00 2184.00,1645.00 2184.00,1645.00
             2184.00,1645.00 2184.97,1631.00 2184.97,1631.00
             2184.97,1631.00 2184.00,1617.00 2184.00,1617.00
             2184.00,1617.00 2184.00,1438.00 2184.00,1438.00
             2184.00,1438.00 2183.00,1423.00 2183.00,1423.00
             2183.00,1423.00 2183.00,1337.00 2183.00,1337.00
             2183.00,1337.00 2182.00,1322.00 2182.00,1322.00
             2182.00,1322.00 2182.00,1253.00 2182.00,1253.00
             2182.00,1253.00 2181.00,1238.00 2181.00,1238.00
             2181.00,1238.00 2181.00,1181.00 2181.00,1181.00
             2181.00,1181.00 2180.00,1164.00 2180.00,1164.00
             2180.00,1164.00 2180.00,1117.00 2180.00,1117.00
             2180.00,1117.00 2179.00,1100.00 2179.00,1100.00
             2179.00,1100.00 2179.00,1063.00 2179.00,1063.00
             2179.00,1063.00 2178.00,1046.00 2178.00,1046.00
             2178.00,1046.00 2178.00,1015.00 2178.00,1015.00
             2178.00,1015.00 2177.00,998.00 2177.00,998.00
             2177.00,998.00 2177.00,971.00 2177.00,971.00
             2177.00,971.00 2176.00,955.00 2176.00,955.00
             2176.00,955.00 2176.00,935.00 2176.00,935.00
             2176.00,935.00 2175.00,919.00 2175.00,919.00
             2175.00,919.00 2175.00,903.00 2175.00,903.00
             2175.00,903.00 2174.00,889.00 2174.00,889.00
             2174.00,889.00 2174.00,877.00 2174.00,877.00
             2174.00,877.00 2173.00,860.00 2173.00,860.00
             2173.00,860.00 2171.00,833.00 2171.00,833.00
             2170.77,812.78 2171.67,787.55 2166.96,768.00
             2166.96,768.00 2154.10,733.00 2154.10,733.00
             2154.10,733.00 2143.02,717.00 2143.02,717.00
             2131.33,700.07 2125.36,694.36 2111.00,680.00
             2111.00,680.00 2098.00,667.46 2098.00,667.46
             2098.00,667.46 2085.00,657.59 2085.00,657.59
             2080.79,655.46 2079.06,657.88 2073.02,652.67
             2067.52,647.92 2069.83,646.46 2065.35,641.88
             2065.35,641.88 2036.00,619.34 2036.00,619.34
             2027.44,613.58 2028.74,616.44 2024.00,614.70
             2022.75,614.25 2011.36,607.30 2010.59,606.46
             2009.41,605.16 2009.48,604.50 2009.00,603.00
             2000.08,604.48 2002.02,597.96 1997.67,593.61
             1993.71,589.66 1988.44,587.46 1983.00,587.00
             1983.00,587.00 1984.00,584.00 1984.00,584.00
             1984.00,584.00 1955.00,564.95 1955.00,564.95
             1947.72,560.35 1943.68,556.52 1935.00,559.00
             1935.00,559.00 1936.00,555.00 1936.00,555.00
             1927.88,550.13 1928.53,546.53 1928.22,538.00
             1928.22,538.00 1928.22,530.00 1928.22,530.00
             1928.22,530.00 1927.00,514.00 1927.00,514.00
             1927.00,514.00 1927.00,474.00 1927.00,474.00
             1927.01,470.48 1926.76,464.30 1929.56,461.74
             1931.51,459.95 1934.53,460.04 1937.00,460.00
             1937.00,460.00 1961.00,460.00 1961.00,460.00
             1964.70,459.99 1969.55,460.35 1972.35,457.49
             1975.07,454.72 1974.98,450.60 1975.00,447.00
             1975.00,447.00 1975.00,409.00 1975.00,409.00
             1975.00,409.00 1975.00,239.00 1975.00,239.00
             1975.00,239.00 1974.00,224.00 1974.00,224.00
             1974.00,224.00 1974.00,136.00 1974.00,136.00
             1973.99,132.47 1974.19,129.27 1972.55,126.00
             1969.34,119.63 1964.96,118.46 1959.00,116.08
             1959.00,116.08 1953.00,113.63 1953.00,113.63
             1946.43,111.70 1926.64,110.44 1919.00,109.91
             1919.00,109.91 1903.00,108.00 1903.00,108.00
             1903.00,108.00 1874.00,107.49 1874.00,107.49
             1874.00,107.49 1848.00,106.14 1848.00,106.14
             1848.00,106.14 1827.00,106.14 1827.00,106.14
             1827.00,106.14 1818.00,106.14 1818.00,106.14
             1818.00,106.14 1802.00,105.08 1802.00,105.08
             1802.00,105.08 1785.00,106.16 1785.00,106.16
             1785.00,106.16 1773.00,106.16 1773.00,106.16
             1773.00,106.16 1754.00,106.16 1754.00,106.16
             1754.00,106.16 1744.00,106.96 1744.00,106.96
             1744.00,106.96 1730.00,106.96 1730.00,106.96
             1730.00,106.96 1704.00,109.83 1704.00,109.83
             1704.00,109.83 1681.00,112.72 1681.00,112.72
             1681.00,112.72 1673.00,113.32 1673.00,113.32
             1673.00,113.32 1665.00,115.49 1665.00,115.49
             1665.00,115.49 1650.00,119.26 1650.00,119.26
             1641.73,121.91 1625.85,123.23 1622.95,133.02
             1622.24,135.22 1622.99,141.14 1622.95,144.00
             1622.95,144.00 1622.00,165.00 1622.00,165.00
             1622.00,165.00 1622.00,225.00 1622.00,225.00
             1622.00,225.00 1621.00,240.00 1621.00,240.00
             1621.00,240.00 1621.00,303.00 1621.00,303.00
             1621.00,303.00 1620.00,320.00 1620.00,320.00
             1620.00,320.00 1620.00,381.00 1620.00,381.00
             1620.00,381.00 1619.00,398.00 1619.00,398.00
             1619.00,398.00 1619.00,462.00 1619.00,462.00 Z
           M 2035.00,826.14
           C 2035.00,826.14 2043.00,826.14 2043.00,826.14
             2047.55,826.02 2056.20,827.48 2058.98,831.49
             2059.97,832.93 2060.49,838.06 2060.93,840.00
             2060.93,840.00 2060.93,866.00 2060.93,866.00
             2060.93,866.00 2060.93,996.00 2060.93,996.00
             2060.93,996.00 2060.93,1089.00 2060.93,1089.00
             2060.93,1089.00 2062.00,1104.00 2062.00,1104.00
             2062.00,1104.00 2062.00,1246.00 2062.00,1246.00
             2062.00,1246.00 2062.00,1560.00 2062.00,1560.00
             2062.00,1560.00 2063.00,1575.00 2063.00,1575.00
             2063.00,1575.00 2063.00,1702.00 2063.00,1702.00
             2063.01,1708.24 2064.68,1714.22 2061.44,1719.99
             2057.89,1726.33 2049.37,1730.66 2043.00,1733.74
             2027.86,1741.07 2002.77,1747.04 1986.00,1750.40
             1944.40,1758.72 1902.23,1763.20 1860.00,1766.09
             1860.00,1766.09 1827.00,1768.00 1827.00,1768.00
             1827.00,1768.00 1814.00,1769.00 1814.00,1769.00
             1814.00,1769.00 1799.00,1769.00 1799.00,1769.00
             1799.00,1769.00 1782.00,1770.00 1782.00,1770.00
             1782.00,1770.00 1731.00,1770.00 1731.00,1770.00
             1731.00,1770.00 1715.00,1768.96 1715.00,1768.96
             1715.00,1768.96 1699.00,1768.96 1699.00,1768.96
             1699.00,1768.96 1687.00,1768.00 1687.00,1768.00
             1687.00,1768.00 1651.00,1765.17 1651.00,1765.17
             1628.22,1762.89 1605.07,1760.05 1583.00,1753.71
             1569.95,1749.96 1547.92,1742.81 1541.45,1730.00
             1539.35,1725.83 1539.01,1718.67 1539.00,1714.00
             1539.00,1714.00 1539.00,1683.00 1539.00,1683.00
             1539.00,1683.00 1538.00,1667.00 1538.00,1667.00
             1538.00,1667.00 1538.00,1591.00 1538.00,1591.00
             1538.00,1591.00 1537.00,1576.00 1537.00,1576.00
             1537.00,1576.00 1537.00,1467.00 1537.00,1467.00
             1537.00,1467.00 1536.00,1452.00 1536.00,1452.00
             1536.00,1452.00 1536.00,1322.00 1536.00,1322.00
             1536.00,1322.00 1535.00,1307.00 1535.00,1307.00
             1535.00,1307.00 1535.00,1156.00 1535.00,1156.00
             1535.00,1156.00 1534.00,1141.00 1534.00,1141.00
             1534.00,1141.00 1534.00,984.00 1534.00,984.00
             1534.00,984.00 1533.00,969.00 1533.00,969.00
             1533.00,969.00 1533.00,853.00 1533.00,853.00
             1533.02,843.39 1536.94,838.80 1547.00,838.10
             1552.29,837.73 1570.07,842.40 1577.00,843.57
             1577.00,843.57 1632.00,849.09 1632.00,849.09
             1632.00,849.09 1642.00,850.00 1642.00,850.00
             1642.00,850.00 1664.00,851.00 1664.00,851.00
             1664.00,851.00 1681.00,851.00 1681.00,851.00
             1681.00,851.00 1698.00,852.00 1698.00,852.00
             1698.00,852.00 1747.00,852.00 1747.00,852.00
             1747.00,852.00 1764.00,851.00 1764.00,851.00
             1764.00,851.00 1787.00,851.00 1787.00,851.00
             1787.00,851.00 1799.00,850.04 1799.00,850.04
             1799.00,850.04 1813.00,850.04 1813.00,850.04
             1813.00,850.04 1828.00,848.96 1828.00,848.96
             1828.00,848.96 1838.00,848.96 1838.00,848.96
             1838.00,848.96 1849.00,848.00 1849.00,848.00
             1849.00,848.00 1892.00,845.09 1892.00,845.09
             1892.00,845.09 1969.00,837.72 1969.00,837.72
             1969.00,837.72 2010.00,831.39 2010.00,831.39
             2010.00,831.39 2035.00,826.14 2035.00,826.14 Z
           M 1739.00,1298.00
           C 1739.00,1298.00 1745.00,1298.00 1745.00,1298.00
             1745.00,1298.00 1743.03,1316.00 1743.03,1316.00
             1742.77,1317.70 1742.13,1320.96 1743.03,1322.40
             1744.27,1324.10 1747.18,1323.96 1749.00,1324.00
             1751.88,1324.05 1759.48,1324.41 1761.70,1322.98
             1765.29,1320.66 1766.43,1308.28 1767.00,1304.00
             1767.00,1304.00 1773.00,1304.00 1773.00,1304.00
             1772.91,1308.26 1770.40,1318.97 1771.74,1321.71
             1773.06,1324.40 1776.47,1323.98 1779.00,1324.00
             1782.56,1324.02 1792.90,1324.81 1795.26,1322.40
             1797.15,1320.47 1797.53,1308.57 1798.00,1305.00
             1798.00,1305.00 1804.01,1305.00 1804.01,1305.00
             1803.92,1308.69 1801.97,1318.81 1804.01,1321.40
             1805.37,1323.10 1808.05,1322.96 1810.00,1323.00
             1814.06,1323.07 1828.76,1323.96 1831.26,1321.40
             1833.75,1318.86 1833.00,1309.63 1833.00,1306.00
             1833.00,1306.00 1839.00,1306.00 1839.00,1306.00
             1839.00,1309.32 1838.34,1318.78 1840.29,1321.13
             1843.06,1324.47 1854.61,1322.10 1859.00,1322.00
             1860.95,1321.95 1863.63,1322.11 1864.98,1320.40
             1866.48,1318.51 1866.00,1310.66 1866.00,1308.00
             1866.00,1308.00 1872.00,1308.00 1872.00,1308.00
             1872.00,1310.78 1871.58,1317.53 1873.02,1319.69
             1875.01,1322.67 1880.98,1322.67 1882.98,1319.69
             1885.55,1315.85 1884.04,1303.76 1884.00,1299.00
             1897.42,1300.10 1887.15,1313.49 1891.18,1319.69
             1893.89,1323.85 1904.73,1321.35 1909.00,1321.00
             1908.92,1312.47 1906.48,1303.41 1904.80,1295.00
             1904.80,1295.00 1896.80,1255.00 1896.80,1255.00
             1896.80,1255.00 1893.40,1238.00 1893.40,1238.00
             1892.90,1235.50 1891.81,1231.45 1892.64,1229.04
             1894.27,1224.28 1903.56,1221.32 1908.00,1219.42
             1919.77,1214.39 1933.48,1207.92 1942.56,1198.70
             1947.70,1193.48 1959.82,1175.70 1962.46,1169.00
             1965.10,1162.29 1966.19,1155.04 1967.60,1148.00
             1968.43,1143.85 1969.80,1138.07 1969.96,1134.00
             1970.25,1126.57 1966.80,1116.37 1964.71,1109.00
             1959.93,1092.17 1952.91,1070.63 1943.45,1056.00
             1931.27,1037.14 1908.53,1020.67 1888.00,1011.87
             1888.00,1011.87 1871.00,1006.00 1871.00,1006.00
             1862.09,1003.03 1852.38,999.11 1843.00,998.04
             1843.00,998.04 1834.00,998.04 1834.00,998.04
             1834.00,998.04 1822.00,997.00 1822.00,997.00
             1808.06,996.98 1801.43,998.70 1788.00,1000.92
             1771.15,1003.71 1769.89,1004.21 1754.00,1010.24
             1746.83,1012.96 1744.30,1012.97 1737.00,1017.47
             1715.94,1030.43 1704.22,1043.68 1690.67,1064.00
             1690.67,1064.00 1682.18,1077.00 1682.18,1077.00
             1682.18,1077.00 1678.78,1084.83 1678.78,1084.83
             1678.78,1084.83 1675.77,1090.09 1675.77,1090.09
             1669.62,1103.16 1663.02,1127.58 1663.00,1142.00
             1663.00,1142.00 1663.00,1154.00 1663.00,1154.00
             1663.16,1166.93 1672.14,1179.81 1679.42,1190.00
             1684.21,1196.70 1688.64,1202.61 1696.04,1206.74
             1696.04,1206.74 1719.00,1217.97 1719.00,1217.97
             1722.30,1219.49 1728.05,1221.44 1729.36,1225.10
             1730.54,1228.38 1726.85,1241.89 1726.00,1246.00
             1726.00,1246.00 1714.58,1300.00 1714.58,1300.00
             1714.58,1300.00 1711.25,1316.00 1711.25,1316.00
             1710.87,1318.50 1710.31,1321.46 1712.40,1323.40
             1714.44,1325.29 1718.38,1324.99 1721.00,1325.00
             1723.97,1325.01 1730.44,1325.40 1732.85,1323.98
             1735.52,1322.41 1735.91,1319.78 1736.41,1317.00
             1736.41,1317.00 1739.00,1298.00 1739.00,1298.00 Z
           M 1755.00,1078.29
           C 1770.86,1076.80 1788.94,1079.83 1800.91,1091.18
             1803.37,1093.51 1806.02,1097.02 1807.65,1100.00
             1818.53,1119.82 1802.49,1138.20 1784.00,1144.66
             1774.86,1147.84 1769.50,1148.11 1760.00,1148.00
             1741.21,1147.78 1716.54,1136.10 1715.09,1115.00
             1714.69,1109.22 1715.96,1103.97 1718.93,1099.00
             1721.06,1095.43 1723.77,1092.13 1727.01,1089.52
             1735.40,1082.76 1744.55,1079.88 1755.00,1078.29 Z
           M 1869.00,1080.29
           C 1884.86,1078.80 1902.94,1081.83 1914.91,1093.18
             1917.37,1095.51 1920.02,1099.02 1921.65,1102.00
             1932.53,1121.82 1916.49,1140.20 1898.00,1146.66
             1888.86,1149.84 1883.50,1150.11 1874.00,1150.00
             1855.21,1149.78 1830.54,1138.10 1829.09,1117.00
             1828.69,1111.22 1829.96,1105.97 1832.93,1101.00
             1835.06,1097.43 1837.77,1094.13 1841.01,1091.52
             1849.40,1084.76 1858.55,1081.88 1869.00,1080.29 Z
           M 1932.00,1411.00
           C 1935.36,1397.02 1926.02,1390.23 1915.00,1384.31
             1905.65,1379.28 1890.50,1376.57 1880.00,1378.46
             1874.56,1379.44 1869.96,1381.53 1865.00,1383.84
             1860.37,1385.99 1855.96,1388.27 1852.52,1392.17
             1849.20,1395.93 1843.35,1407.11 1842.87,1412.00
             1842.87,1412.00 1842.87,1421.00 1842.87,1421.00
             1843.89,1431.61 1851.07,1436.70 1841.56,1446.72
             1841.56,1446.72 1816.00,1471.15 1816.00,1471.15
             1813.48,1473.37 1808.67,1478.69 1805.00,1477.68
             1801.95,1476.84 1797.23,1470.48 1794.91,1468.00
             1794.91,1468.00 1787.32,1460.00 1787.32,1460.00
             1783.89,1455.90 1783.42,1454.29 1778.99,1450.17
             1775.83,1447.24 1768.78,1441.92 1767.38,1438.00
             1766.30,1434.97 1768.69,1430.13 1769.57,1427.00
             1770.99,1421.96 1771.54,1415.17 1770.68,1410.00
             1769.31,1401.83 1765.61,1395.43 1760.65,1389.00
             1756.91,1384.14 1752.10,1378.09 1746.96,1374.71
             1737.62,1368.55 1719.82,1366.60 1709.00,1369.24
             1695.29,1372.58 1686.71,1384.11 1680.48,1396.00
             1680.48,1396.00 1675.42,1407.65 1675.42,1407.65
             1672.27,1411.01 1669.57,1407.67 1660.00,1410.04
             1652.56,1411.89 1646.36,1417.18 1641.62,1423.00
             1635.35,1430.70 1630.58,1443.95 1632.33,1454.00
             1632.82,1456.83 1634.29,1460.25 1635.32,1463.00
             1637.25,1468.16 1640.01,1473.74 1644.30,1477.37
             1645.96,1478.78 1649.04,1480.44 1651.00,1481.60
             1662.93,1488.67 1667.46,1489.15 1681.00,1489.00
             1686.21,1488.94 1695.57,1486.86 1700.00,1488.30
             1706.78,1490.51 1711.49,1496.92 1716.28,1501.72
             1716.28,1501.72 1734.83,1518.91 1734.83,1518.91
             1734.83,1518.91 1746.00,1530.28 1746.00,1530.28
             1747.90,1532.18 1750.05,1534.05 1748.95,1537.00
             1747.77,1540.16 1737.14,1548.23 1734.01,1551.00
             1726.85,1557.35 1727.23,1558.86 1721.71,1564.96
             1721.71,1564.96 1707.00,1580.00 1707.00,1580.00
             1703.27,1583.74 1698.32,1589.81 1693.00,1590.97
             1693.00,1590.97 1683.00,1590.97 1683.00,1590.97
             1667.29,1592.67 1657.83,1591.73 1642.00,1597.43
             1634.46,1600.15 1626.87,1603.85 1623.89,1612.00
             1621.99,1617.21 1624.95,1623.25 1627.00,1628.00
             1630.34,1635.74 1632.53,1636.30 1639.00,1641.40
             1649.55,1649.70 1661.35,1655.84 1675.00,1656.00
             1684.17,1656.10 1684.09,1656.19 1693.00,1654.21
             1695.24,1653.71 1699.69,1652.24 1701.73,1653.20
             1706.11,1655.30 1704.59,1663.47 1709.79,1669.70
             1717.12,1678.49 1735.10,1680.87 1746.00,1681.00
             1764.39,1681.21 1784.80,1671.88 1790.25,1653.00
             1791.09,1650.11 1791.95,1645.99 1791.79,1643.00
             1791.42,1635.74 1788.87,1629.78 1786.58,1623.00
             1785.51,1619.81 1783.80,1614.28 1784.83,1611.00
             1785.93,1607.46 1801.59,1592.88 1804.96,1590.28
             1806.00,1589.47 1807.16,1588.54 1808.58,1588.73
             1810.53,1589.00 1817.65,1596.85 1820.04,1598.77
             1820.04,1598.77 1829.00,1605.46 1829.00,1605.46
             1829.00,1605.46 1848.00,1622.17 1848.00,1622.17
             1853.55,1627.19 1857.85,1630.20 1858.00,1638.00
             1858.35,1657.42 1854.59,1655.70 1860.58,1677.00
             1861.40,1679.92 1862.24,1683.42 1863.84,1686.00
             1866.15,1689.73 1871.80,1694.88 1876.00,1696.30
             1882.30,1698.43 1897.21,1695.72 1903.00,1692.59
             1908.60,1689.56 1919.40,1679.17 1923.24,1674.00
             1929.44,1665.67 1931.99,1659.44 1931.99,1649.00
             1931.99,1645.64 1929.51,1634.35 1930.81,1632.51
             1933.46,1628.74 1941.36,1631.37 1950.00,1627.00
             1960.35,1621.78 1963.18,1612.32 1965.50,1602.00
             1966.25,1598.65 1966.80,1597.67 1966.96,1594.00
             1967.99,1570.34 1948.29,1554.36 1926.00,1553.09
             1926.00,1553.09 1893.00,1556.94 1893.00,1556.94
             1885.71,1556.33 1876.37,1545.09 1871.00,1540.17
             1868.89,1538.22 1864.65,1535.36 1865.45,1532.03
             1865.98,1529.82 1869.30,1527.36 1871.00,1525.92
             1871.00,1525.92 1884.00,1514.75 1884.00,1514.75
             1884.00,1514.75 1901.00,1500.58 1901.00,1500.58
             1903.38,1498.53 1907.15,1494.74 1910.00,1493.78
             1913.00,1492.77 1916.04,1494.02 1919.00,1494.54
             1919.00,1494.54 1934.00,1495.54 1934.00,1495.54
             1947.33,1495.08 1959.72,1488.12 1969.83,1479.99
             1974.37,1476.34 1978.99,1472.27 1981.62,1467.00
             1983.70,1462.85 1984.49,1456.65 1984.82,1452.00
             1985.84,1437.57 1977.34,1427.54 1965.00,1421.37
             1949.94,1413.83 1941.70,1414.64 1932.00,1411.00 Z" />
</svg>
