<?xml version="1.0" encoding="UTF-8" standalone="no"?>
<!DOCTYPE svg PUBLIC "-//W3C//DTD SVG 20010904//EN"
              "http://www.w3.org/TR/2001/REC-SVG-20010904/DTD/svg10.dtd">

<svg xmlns="http://www.w3.org/2000/svg"
     width="12.8in" height="7.2in"
     viewBox="0 0 3840 2160">
  <path id="Selection"
        fill="none" stroke="black" stroke-width="1"
        d="M 1522.00,929.00
           C 1522.00,929.00 1391.00,892.58 1391.00,892.58
             1391.00,892.58 1317.00,873.88 1317.00,873.88
             1317.00,873.88 1310.00,872.20 1310.00,872.20
             1299.13,870.57 1287.97,870.88 1277.00,871.00
             1269.40,871.09 1263.34,873.55 1256.00,875.00
             1256.00,875.00 1219.00,881.58 1219.00,881.58
             1219.00,881.58 1161.00,894.13 1161.00,894.13
             1161.00,894.13 1143.00,898.75 1143.00,898.75
             1143.00,898.75 1110.00,912.58 1110.00,912.58
             1110.00,912.58 1080.00,923.95 1080.00,923.95
             1080.00,923.95 999.00,952.69 999.00,952.69
             999.00,952.69 949.00,970.66 949.00,970.66
             918.32,981.31 883.13,987.10 854.00,1001.34
             841.86,1007.27 836.66,1006.73 826.09,1018.00
             817.00,1027.69 815.03,1036.06 809.26,1047.00
             809.26,1047.00 804.31,1056.00 804.31,1056.00
             800.88,1063.41 794.78,1081.97 793.01,1090.00
             793.01,1090.00 790.63,1104.00 790.63,1104.00
             790.63,1104.00 787.61,1116.00 787.61,1116.00
             787.61,1116.00 782.91,1164.00 782.91,1164.00
             782.91,1164.00 782.00,1174.00 782.00,1174.00
             782.00,1174.00 781.00,1200.00 781.00,1200.00
             780.98,1204.42 780.50,1213.28 777.49,1216.61
             774.58,1219.82 768.11,1221.03 764.00,1222.34
             764.00,1222.34 736.00,1232.09 736.00,1232.09
             731.05,1234.14 720.73,1241.49 716.00,1244.86
             716.00,1244.86 681.00,1270.28 681.00,1270.28
             673.93,1275.15 655.84,1282.26 647.00,1286.31
             647.00,1286.31 461.00,1370.31 461.00,1370.31
             461.00,1370.31 336.00,1427.14 336.00,1427.14
             336.00,1427.14 253.00,1464.75 253.00,1464.75
             236.55,1472.57 223.48,1475.35 213.06,1492.00
             209.53,1497.65 201.83,1512.71 200.91,1519.00
             200.02,1525.01 202.24,1535.86 203.39,1542.00
             203.39,1542.00 209.00,1573.00 209.00,1573.00
             209.00,1573.00 227.00,1663.00 227.00,1663.00
             230.76,1681.17 234.82,1708.19 243.32,1724.00
             245.96,1728.89 248.14,1730.88 251.57,1735.00
             263.61,1749.48 262.39,1749.12 278.00,1761.34
             285.52,1767.23 291.13,1771.88 301.00,1772.00
             301.00,1772.00 327.00,1772.00 327.00,1772.00
             327.00,1772.00 344.00,1773.00 344.00,1773.00
             344.00,1773.00 395.00,1774.00 395.00,1774.00
             395.00,1774.00 412.00,1775.00 412.00,1775.00
             412.00,1775.00 455.00,1777.00 455.00,1777.00
             455.00,1777.00 472.00,1778.00 472.00,1778.00
             472.00,1778.00 494.00,1779.00 494.00,1779.00
             494.00,1779.00 565.00,1779.00 565.00,1779.00
             565.00,1779.00 582.00,1780.00 582.00,1780.00
             582.00,1780.00 621.00,1781.00 621.00,1781.00
             621.00,1781.00 638.00,1782.00 638.00,1782.00
             638.00,1782.00 692.00,1785.00 692.00,1785.00
             692.00,1785.00 701.00,1785.00 701.00,1785.00
             701.00,1785.00 723.00,1787.04 723.00,1787.04
             723.00,1787.04 732.00,1787.04 732.00,1787.04
             732.00,1787.04 789.00,1797.25 789.00,1797.25
             789.00,1797.25 804.00,1799.83 804.00,1799.83
             804.00,1799.83 938.00,1811.83 938.00,1811.83
             938.00,1811.83 989.00,1816.17 989.00,1816.17
             992.98,1816.61 997.11,1818.09 1001.00,1819.12
             1013.89,1822.50 1041.15,1830.98 1053.00,1831.00
             1053.00,1831.00 1111.00,1831.00 1111.00,1831.00
             1111.00,1831.00 1128.00,1830.00 1128.00,1830.00
             1128.00,1830.00 1182.00,1830.00 1182.00,1830.00
             1182.00,1830.00 1197.00,1829.00 1197.00,1829.00
             1197.00,1829.00 1256.00,1829.00 1256.00,1829.00
             1256.00,1829.00 1271.00,1828.00 1271.00,1828.00
             1271.00,1828.00 1325.00,1828.00 1325.00,1828.00
             1325.00,1828.00 1342.00,1827.00 1342.00,1827.00
             1342.00,1827.00 1399.00,1827.00 1399.00,1827.00
             1399.00,1827.00 1414.00,1826.00 1414.00,1826.00
             1414.00,1826.00 1468.00,1826.00 1468.00,1826.00
             1468.00,1826.00 1485.00,1825.00 1485.00,1825.00
             1485.00,1825.00 1540.00,1825.00 1540.00,1825.00
             1540.00,1825.00 1557.00,1824.00 1557.00,1824.00
             1557.00,1824.00 1613.00,1824.00 1613.00,1824.00
             1613.00,1824.00 1630.00,1823.00 1630.00,1823.00
             1630.00,1823.00 1664.00,1823.00 1664.00,1823.00
             1667.45,1823.01 1671.85,1822.76 1674.78,1824.85
             1677.84,1827.04 1679.77,1833.46 1681.20,1837.00
             1681.20,1837.00 1691.86,1863.00 1691.86,1863.00
             1692.82,1865.16 1694.63,1868.98 1695.96,1870.83
             1699.74,1876.07 1712.88,1887.44 1719.00,1889.93
             1721.12,1890.79 1736.22,1892.96 1739.00,1893.00
             1745.55,1893.07 1755.79,1892.79 1762.00,1891.03
             1771.26,1888.40 1773.23,1887.03 1779.96,1880.00
             1792.85,1866.54 1792.90,1858.37 1794.09,1841.00
             1794.09,1841.00 1795.00,1831.00 1795.00,1831.00
             1795.00,1831.00 1792.88,1802.00 1792.88,1802.00
             1792.59,1797.38 1791.08,1792.52 1792.88,1788.00
             1794.02,1785.03 1798.99,1778.88 1801.12,1776.00
             1801.12,1776.00 1816.57,1755.00 1816.57,1755.00
             1816.57,1755.00 1837.60,1721.00 1837.60,1721.00
             1837.60,1721.00 1853.63,1694.00 1853.63,1694.00
             1853.63,1694.00 1866.69,1657.00 1866.69,1657.00
             1871.40,1643.76 1879.98,1623.60 1880.00,1610.00
             1880.00,1610.00 1880.00,1545.00 1880.00,1545.00
             1880.00,1545.00 1918.00,1545.00 1918.00,1545.00
             1918.00,1545.00 1935.00,1544.00 1935.00,1544.00
             1935.00,1544.00 1968.00,1544.00 1968.00,1544.00
             1968.00,1544.00 1984.00,1543.00 1984.00,1543.00
             1984.00,1543.00 2023.00,1543.00 2023.00,1543.00
             2023.00,1543.00 2038.00,1542.00 2038.00,1542.00
             2035.75,1548.16 2036.66,1547.76 2035.49,1553.00
             2033.79,1560.56 2030.17,1571.38 2026.24,1578.00
             2023.32,1582.93 2019.84,1588.88 2015.96,1593.00
             2012.12,1597.07 2006.74,1600.55 2005.00,1606.00
             2017.13,1607.88 2055.93,1609.92 2068.00,1609.44
             2068.00,1609.44 2084.00,1609.44 2084.00,1609.44
             2084.00,1609.44 2095.00,1609.44 2095.00,1609.44
             2095.00,1609.44 2103.00,1609.44 2103.00,1609.44
             2103.00,1609.44 2110.00,1609.44 2110.00,1609.44
             2110.00,1609.44 2124.00,1608.17 2124.00,1608.17
             2132.62,1607.33 2140.59,1607.43 2149.00,1605.00
             2146.09,1599.40 2136.84,1594.70 2131.81,1589.54
             2118.33,1575.71 2112.65,1560.08 2115.00,1541.00
             2115.00,1541.00 2152.00,1541.00 2152.00,1541.00
             2152.00,1541.00 2168.00,1540.00 2168.00,1540.00
             2168.00,1540.00 2185.00,1540.00 2185.00,1540.00
             2185.00,1540.00 2202.00,1539.00 2202.00,1539.00
             2202.00,1539.00 2222.00,1539.00 2222.00,1539.00
             2222.00,1539.00 2237.00,1538.00 2237.00,1538.00
             2237.00,1538.00 2266.00,1537.00 2266.00,1537.00
             2266.00,1537.00 2263.88,1548.00 2263.88,1548.00
             2262.01,1556.83 2258.01,1566.31 2253.36,1574.00
             2250.82,1578.19 2248.24,1582.38 2244.91,1586.00
             2241.29,1589.92 2237.65,1591.84 2236.00,1597.00
             2248.30,1599.20 2261.44,1599.12 2273.93,1598.90
             2273.93,1598.90 2323.00,1598.04 2323.00,1598.04
             2323.00,1598.04 2345.00,1597.16 2345.00,1597.16
             2345.00,1597.16 2369.00,1594.28 2369.00,1594.28
             2371.38,1593.97 2376.55,1593.92 2377.83,1591.53
             2378.82,1589.70 2377.14,1588.26 2375.85,1587.24
             2371.56,1583.87 2370.25,1583.87 2365.00,1579.07
             2355.99,1570.84 2348.79,1561.98 2345.41,1550.00
             2342.62,1540.09 2344.42,1540.90 2343.00,1535.00
             2343.00,1535.00 2361.00,1535.00 2361.00,1535.00
             2361.00,1535.00 2378.00,1534.00 2378.00,1534.00
             2378.00,1534.00 2499.00,1532.00 2499.00,1532.00
             2499.00,1532.00 2517.00,1531.00 2517.00,1531.00
             2512.09,1549.85 2513.32,1552.89 2502.42,1571.00
             2498.12,1578.15 2488.64,1585.54 2487.00,1591.00
             2508.32,1594.82 2543.48,1592.62 2566.00,1592.88
             2580.80,1593.05 2616.28,1590.64 2630.00,1587.00
             2628.17,1581.32 2625.46,1581.58 2621.00,1578.37
             2618.57,1576.62 2612.51,1571.19 2610.51,1568.93
             2604.13,1561.67 2599.06,1554.48 2596.45,1545.00
             2593.58,1534.59 2595.27,1535.40 2594.00,1529.00
             2594.00,1529.00 2611.00,1528.00 2611.00,1528.00
             2611.00,1528.00 2669.00,1526.00 2669.00,1526.00
             2669.00,1526.00 2681.00,1525.04 2681.00,1525.04
             2681.00,1525.04 2693.00,1525.04 2693.00,1525.04
             2693.00,1525.04 2709.00,1523.96 2709.00,1523.96
             2709.00,1523.96 2724.00,1523.96 2724.00,1523.96
             2724.00,1523.96 2736.00,1522.96 2736.00,1522.96
             2736.00,1522.96 2749.00,1522.96 2749.00,1522.96
             2749.00,1522.96 2761.00,1522.00 2761.00,1522.00
             2761.00,1522.00 2780.00,1521.00 2780.00,1521.00
             2780.00,1521.00 2777.91,1533.00 2777.91,1533.00
             2775.80,1543.91 2771.86,1553.44 2766.26,1563.00
             2759.49,1574.54 2751.02,1578.69 2749.00,1585.00
             2772.63,1589.43 2813.98,1586.60 2839.00,1586.88
             2839.00,1586.88 2848.00,1586.33 2848.00,1586.33
             2848.00,1586.33 2854.00,1586.33 2854.00,1586.33
             2854.00,1586.33 2873.00,1584.28 2873.00,1584.28
             2880.03,1583.42 2886.27,1583.53 2893.00,1581.00
             2889.72,1575.53 2882.87,1572.42 2878.00,1567.91
             2866.74,1557.47 2857.40,1543.92 2857.01,1528.00
             2856.96,1525.70 2856.76,1521.21 2858.02,1519.31
             2860.18,1516.07 2873.99,1516.02 2878.00,1516.00
             2878.00,1516.00 2889.00,1515.09 2889.00,1515.09
             2889.00,1515.09 2912.00,1514.00 2912.00,1514.00
             2912.00,1514.00 2922.00,1513.09 2922.00,1513.09
             2922.00,1513.09 2947.00,1511.91 2947.00,1511.91
             2947.00,1511.91 2960.00,1511.00 2960.00,1511.00
             2960.00,1511.00 2974.00,1510.00 2974.00,1510.00
             2974.00,1510.00 2992.00,1509.00 2992.00,1509.00
             2996.38,1508.98 3009.75,1506.80 3012.21,1509.60
             3014.63,1512.02 3012.71,1524.57 3012.21,1528.00
             3008.60,1546.53 2999.63,1563.90 2985.00,1576.00
             2985.00,1576.00 2985.00,1578.00 2985.00,1578.00
             2995.39,1581.04 3019.35,1579.71 3031.00,1579.42
             3056.23,1578.80 3105.78,1576.16 3129.00,1570.00
             3125.98,1564.15 3122.95,1564.19 3118.04,1560.76
             3115.14,1558.73 3107.31,1551.32 3104.92,1548.58
             3098.50,1541.20 3092.22,1528.78 3091.13,1519.00
             3090.26,1511.26 3092.31,1507.34 3092.00,1502.00
             3092.00,1502.00 3176.00,1495.17 3176.00,1495.17
             3176.00,1495.17 3249.00,1489.00 3249.00,1489.00
             3248.95,1504.69 3245.35,1519.25 3237.67,1533.00
             3231.08,1544.80 3225.98,1547.71 3224.17,1551.09
             3223.38,1552.57 3223.33,1553.45 3223.00,1555.00
             3223.00,1555.00 3234.00,1555.00 3234.00,1555.00
             3234.00,1555.00 3298.00,1551.59 3298.00,1551.59
             3298.00,1551.59 3323.83,1548.96 3323.83,1548.96
             3323.83,1548.96 3332.00,1548.38 3332.00,1548.38
             3332.00,1548.38 3355.00,1544.25 3355.00,1544.25
             3359.88,1543.43 3363.58,1543.78 3366.00,1539.00
             3350.97,1530.79 3337.02,1520.49 3330.42,1503.96
             3326.23,1493.47 3327.73,1491.26 3326.00,1484.00
             3326.00,1484.00 3372.00,1478.72 3372.00,1478.72
             3372.00,1478.72 3418.00,1472.73 3418.00,1472.73
             3418.00,1472.73 3445.00,1469.00 3445.00,1469.00
             3443.14,1481.33 3440.02,1492.20 3433.49,1503.00
             3429.41,1509.76 3421.28,1517.03 3420.00,1522.99
             3420.00,1522.99 3432.00,1522.99 3432.00,1522.99
             3432.00,1522.99 3479.00,1520.71 3479.00,1520.71
             3479.00,1520.71 3496.72,1518.88 3496.72,1518.88
             3496.72,1518.88 3528.00,1515.91 3528.00,1515.91
             3528.00,1515.91 3552.00,1511.42 3552.00,1511.42
             3557.17,1510.49 3560.23,1510.97 3563.00,1506.00
             3546.82,1498.22 3531.96,1485.39 3526.06,1467.91
             3524.60,1463.58 3522.24,1454.35 3524.35,1450.11
             3525.50,1447.79 3535.65,1441.84 3539.00,1438.83
             3550.46,1428.52 3553.34,1424.22 3561.80,1412.00
             3567.75,1403.39 3572.63,1393.98 3575.81,1384.00
             3576.81,1380.86 3577.67,1373.88 3581.14,1372.88
             3583.30,1372.26 3590.51,1373.90 3593.00,1374.40
             3606.16,1377.05 3615.98,1381.40 3626.99,1389.17
             3632.09,1392.78 3634.93,1397.98 3640.76,1399.00
             3642.73,1380.81 3641.03,1369.51 3640.76,1352.00
             3640.76,1352.00 3637.49,1307.01 3637.49,1307.01
             3637.49,1307.01 3635.68,1296.42 3635.68,1296.42
             3635.68,1296.42 3635.68,1288.83 3635.68,1288.83
             3635.68,1288.83 3631.34,1265.83 3631.34,1265.83
             3630.57,1260.41 3630.88,1256.93 3625.00,1255.00
             3617.08,1271.05 3606.11,1283.95 3589.00,1290.54
             3589.00,1290.54 3577.00,1294.00 3577.00,1294.00
             3573.65,1284.34 3569.78,1275.71 3562.83,1268.00
             3547.74,1251.28 3530.04,1246.11 3509.00,1241.12
             3494.63,1237.71 3479.80,1235.00 3465.00,1235.00
             3464.33,1216.86 3472.15,1204.27 3485.00,1192.04
             3491.42,1185.93 3497.73,1183.23 3499.41,1181.37
             3500.59,1180.05 3500.51,1179.50 3501.00,1178.00
             3494.17,1175.44 3489.96,1175.56 3483.00,1174.58
             3483.00,1174.58 3445.00,1171.07 3445.00,1171.07
             3421.75,1170.52 3379.56,1167.66 3358.00,1171.07
             3359.54,1175.87 3368.40,1183.85 3372.48,1190.00
             3380.20,1201.62 3385.83,1218.07 3387.00,1232.00
             3387.00,1232.00 3370.00,1232.00 3370.00,1232.00
             3370.00,1232.00 3341.00,1234.00 3341.00,1234.00
             3341.00,1234.00 3249.00,1234.00 3249.00,1234.00
             3249.91,1220.61 3257.33,1205.12 3266.81,1195.66
             3271.67,1190.81 3281.38,1185.03 3284.00,1180.00
             3271.24,1176.31 3244.98,1176.26 3231.00,1175.98
             3231.00,1175.98 3194.00,1175.98 3194.00,1175.98
             3183.65,1175.94 3150.15,1178.18 3140.00,1180.00
             3141.55,1184.81 3151.53,1192.98 3155.30,1198.00
             3162.66,1207.80 3169.13,1222.86 3171.00,1235.00
             3171.00,1235.00 3148.00,1235.00 3148.00,1235.00
             3148.00,1235.00 3133.00,1236.00 3133.00,1236.00
             3133.00,1236.00 3091.00,1236.00 3091.00,1236.00
             3091.00,1236.00 3074.00,1237.00 3074.00,1237.00
             3074.00,1237.00 3044.00,1238.00 3044.00,1238.00
             3044.00,1238.00 3029.00,1239.00 3029.00,1239.00
             3029.00,1239.00 3012.00,1239.00 3012.00,1239.00
             3012.00,1239.00 3014.37,1228.00 3014.37,1228.00
             3016.12,1220.62 3021.47,1210.80 3026.32,1205.00
             3032.74,1197.33 3044.14,1189.84 3047.00,1185.00
             3035.79,1181.76 3004.41,1180.80 2992.00,1181.31
             2992.00,1181.31 2974.00,1181.31 2974.00,1181.31
             2974.00,1181.31 2964.00,1181.31 2964.00,1181.31
             2964.00,1181.31 2942.00,1182.63 2942.00,1182.63
             2928.88,1183.44 2915.97,1183.40 2903.00,1186.00
             2903.51,1187.59 2903.43,1188.06 2904.59,1189.49
             2906.14,1191.40 2913.64,1197.72 2918.47,1204.00
             2925.54,1213.18 2932.45,1228.49 2934.00,1240.00
             2934.00,1240.00 2915.00,1240.00 2915.00,1240.00
             2915.00,1240.00 2902.00,1241.00 2902.00,1241.00
             2902.00,1241.00 2813.00,1241.00 2813.00,1241.00
             2813.00,1241.00 2796.00,1242.00 2796.00,1242.00
             2796.00,1242.00 2778.00,1242.00 2778.00,1242.00
             2778.00,1242.00 2758.00,1243.00 2758.00,1243.00
             2759.94,1219.09 2773.25,1205.27 2792.00,1192.00
             2789.00,1186.68 2785.54,1188.31 2780.00,1187.58
             2780.00,1187.58 2753.00,1185.58 2753.00,1185.58
             2753.00,1185.58 2745.00,1185.58 2745.00,1185.58
             2745.00,1185.58 2690.00,1186.37 2690.00,1186.37
             2680.67,1186.94 2655.36,1187.94 2648.00,1191.00
             2648.00,1191.00 2648.00,1193.00 2648.00,1193.00
             2659.05,1200.47 2664.18,1207.41 2670.32,1219.00
             2670.32,1219.00 2674.51,1226.83 2674.51,1226.83
             2674.51,1226.83 2680.00,1245.00 2680.00,1245.00
             2680.00,1245.00 2655.00,1246.00 2655.00,1246.00
             2655.00,1246.00 2639.00,1247.00 2639.00,1247.00
             2639.00,1247.00 2624.00,1247.00 2624.00,1247.00
             2624.00,1247.00 2607.00,1248.00 2607.00,1248.00
             2607.00,1248.00 2529.00,1250.00 2529.00,1250.00
             2531.50,1243.33 2530.37,1244.09 2531.71,1239.00
             2533.23,1233.20 2538.12,1224.63 2541.92,1220.00
             2544.43,1216.95 2549.24,1211.03 2552.17,1208.75
             2556.89,1205.06 2560.99,1204.28 2563.00,1198.00
             2548.62,1194.50 2526.99,1195.46 2512.00,1194.86
             2512.00,1194.86 2500.00,1194.86 2500.00,1194.86
             2500.00,1194.86 2481.00,1194.86 2481.00,1194.86
             2481.00,1194.86 2474.00,1195.67 2474.00,1195.67
             2458.19,1195.85 2435.34,1196.92 2420.00,1200.00
             2421.88,1206.11 2428.83,1209.16 2435.13,1218.00
             2445.46,1232.51 2445.79,1236.97 2451.00,1253.00
             2451.00,1253.00 2435.00,1254.00 2435.00,1254.00
             2435.00,1254.00 2370.00,1256.00 2370.00,1256.00
             2370.00,1256.00 2353.00,1257.00 2353.00,1257.00
             2353.00,1257.00 2309.00,1259.09 2309.00,1259.09
             2309.00,1259.09 2285.00,1261.00 2285.00,1261.00
             2286.78,1247.47 2290.69,1235.88 2299.29,1225.00
             2299.29,1225.00 2306.09,1217.17 2306.09,1217.17
             2310.19,1213.19 2314.19,1211.67 2316.00,1206.00
             2316.00,1206.00 2283.00,1205.00 2283.00,1205.00
             2283.00,1205.00 2271.00,1205.86 2271.00,1205.86
             2271.00,1205.86 2263.00,1205.86 2263.00,1205.86
             2263.00,1205.86 2253.00,1205.86 2253.00,1205.86
             2253.00,1205.86 2203.00,1211.31 2203.00,1211.31
             2203.00,1211.31 2173.00,1216.00 2173.00,1216.00
             2173.51,1217.58 2173.44,1218.07 2174.59,1219.49
             2176.62,1221.96 2182.25,1224.51 2189.41,1233.00
             2199.06,1244.44 2202.33,1253.03 2207.00,1267.00
             2207.00,1267.00 2161.00,1269.91 2161.00,1269.91
             2161.00,1269.91 2068.00,1277.17 2068.00,1277.17
             2068.00,1277.17 2044.00,1279.17 2044.00,1279.17
             2044.00,1279.17 2025.00,1281.00 2025.00,1281.00
             2025.90,1261.42 2038.89,1245.30 2054.00,1234.00
             2054.00,1234.00 2054.00,1232.00 2054.00,1232.00
             2046.78,1230.24 2030.22,1230.99 2022.00,1231.00
             2022.00,1231.00 2010.00,1231.91 2010.00,1231.91
             2010.00,1231.91 1976.00,1234.83 1976.00,1234.83
             1957.60,1236.67 1929.37,1239.40 1912.00,1244.00
             1912.00,1244.00 1912.00,1246.00 1912.00,1246.00
             1930.92,1258.77 1934.99,1267.71 1945.00,1287.00
             1945.00,1287.00 1890.00,1291.09 1890.00,1291.09
             1890.00,1291.09 1866.00,1293.00 1866.00,1293.00
             1866.00,1293.00 1865.00,1278.00 1865.00,1278.00
             1865.00,1278.00 1864.00,1252.00 1864.00,1252.00
             1864.00,1252.00 1863.00,1238.00 1863.00,1238.00
             1863.00,1238.00 1862.00,1221.00 1862.00,1221.00
             1862.00,1221.00 1860.00,1184.00 1860.00,1184.00
             1860.00,1184.00 1859.00,1170.00 1859.00,1170.00
             1859.00,1170.00 1857.00,1133.00 1857.00,1133.00
             1857.00,1133.00 1856.00,1117.00 1856.00,1117.00
             1856.00,1117.00 1856.00,1094.00 1856.00,1094.00
             1856.00,1094.00 1855.00,1080.00 1855.00,1080.00
             1855.00,1080.00 1854.00,1059.00 1854.00,1059.00
             1854.00,1059.00 1854.00,1033.00 1854.00,1033.00
             1853.99,1024.07 1852.27,1011.86 1850.61,1003.00
             1849.54,997.27 1849.31,992.62 1844.56,988.43
             1841.43,985.67 1834.20,985.04 1830.00,984.20
             1830.00,984.20 1799.00,977.13 1799.00,977.13
             1799.00,977.13 1754.00,968.58 1754.00,968.58
             1754.00,968.58 1700.00,957.91 1700.00,957.91
             1686.57,955.36 1673.83,949.64 1660.00,949.00
             1660.00,949.00 1649.25,889.00 1649.25,889.00
             1649.25,889.00 1625.42,756.00 1625.42,756.00
             1625.42,756.00 1617.29,705.00 1617.29,705.00
             1615.75,692.53 1614.11,673.25 1608.88,662.00
             1598.04,638.72 1573.95,631.28 1550.00,631.00
             1543.43,630.93 1534.13,631.14 1528.00,633.47
             1517.36,637.51 1504.35,650.20 1498.90,660.00
             1495.89,665.43 1492.96,674.88 1491.37,681.00
             1490.10,685.87 1488.08,692.00 1488.08,697.00
             1488.08,697.00 1488.91,705.00 1488.91,705.00
             1488.91,705.00 1492.29,740.00 1492.29,740.00
             1492.29,740.00 1496.58,764.00 1496.58,764.00
             1503.91,804.64 1512.06,844.99 1517.15,886.00
             1517.15,886.00 1522.00,929.00 1522.00,929.00 Z
           M 1354.00,1003.00
           C 1354.00,1003.00 1354.00,1488.00 1354.00,1488.00
             1354.00,1488.00 1589.00,1488.00 1589.00,1488.00
             1589.00,1488.00 1589.00,1576.00 1589.00,1576.00
             1589.00,1576.00 1354.00,1576.00 1354.00,1576.00
             1354.00,1576.00 1354.00,1717.00 1354.00,1717.00
             1354.00,1718.99 1354.23,1722.81 1352.98,1724.40
             1350.96,1726.95 1336.68,1726.00 1333.00,1726.00
             1333.00,1726.00 1266.00,1726.00 1266.00,1726.00
             1266.00,1726.00 1266.00,1576.00 1266.00,1576.00
             1266.00,1576.00 1042.00,1576.00 1042.00,1576.00
             1032.33,1575.98 1032.98,1575.31 1033.00,1564.00
             1033.00,1564.00 1034.00,1547.00 1034.00,1547.00
             1034.00,1547.00 1034.00,1497.00 1034.00,1497.00
             1034.01,1490.26 1033.51,1488.14 1041.00,1488.00
             1041.00,1488.00 1088.00,1488.00 1088.00,1488.00
             1088.00,1488.00 1266.00,1488.00 1266.00,1488.00
             1266.00,1488.00 1266.00,1002.00 1266.00,1002.00
             1266.00,1002.00 1292.00,1002.00 1292.00,1002.00
             1292.00,1002.00 1308.00,1003.00 1308.00,1003.00
             1308.00,1003.00 1354.00,1003.00 1354.00,1003.00 Z
           M 685.00,1430.29
           C 703.96,1428.49 710.42,1431.66 728.00,1436.71
             739.89,1440.13 745.16,1440.68 756.00,1447.42
             760.31,1450.10 770.34,1456.03 772.73,1460.09
             776.30,1466.16 775.65,1470.52 776.09,1477.00
             776.09,1477.00 777.00,1500.00 777.00,1500.00
             777.00,1500.00 778.00,1517.00 778.00,1517.00
             778.00,1517.00 779.00,1557.00 779.00,1557.00
             779.00,1557.00 780.00,1572.00 780.00,1572.00
             780.00,1572.00 780.00,1587.00 780.00,1587.00
             780.05,1597.84 782.72,1602.09 779.06,1614.00
             777.15,1620.24 768.19,1629.68 763.75,1635.00
             763.75,1635.00 730.00,1675.00 730.00,1675.00
             721.37,1685.00 718.83,1690.98 705.00,1691.00
             705.00,1691.00 684.00,1692.00 684.00,1692.00
             684.00,1692.00 639.00,1692.00 639.00,1692.00
             639.00,1692.00 622.00,1693.00 622.00,1693.00
             622.00,1693.00 573.00,1693.00 573.00,1693.00
             573.00,1693.00 556.00,1694.00 556.00,1694.00
             556.00,1694.00 511.00,1694.00 511.00,1694.00
             511.00,1694.00 496.00,1695.00 496.00,1695.00
             496.00,1695.00 445.00,1695.00 445.00,1695.00
             445.00,1695.00 430.00,1696.00 430.00,1696.00
             430.00,1696.00 357.00,1696.00 357.00,1696.00
             354.34,1696.00 351.58,1696.11 349.00,1695.36
             339.42,1692.61 325.08,1678.83 320.92,1670.00
             318.75,1665.41 316.64,1649.89 315.58,1644.00
             315.58,1644.00 306.73,1584.00 306.73,1584.00
             306.73,1584.00 302.72,1554.00 302.72,1554.00
             302.32,1550.96 300.66,1543.76 302.06,1541.22
             303.39,1538.81 306.57,1537.85 309.00,1537.00
             309.00,1537.00 326.00,1531.58 326.00,1531.58
             326.00,1531.58 391.00,1511.02 391.00,1511.02
             391.00,1511.02 510.00,1474.29 510.00,1474.29
             510.00,1474.29 575.00,1455.28 575.00,1455.28
             575.00,1455.28 616.00,1443.37 616.00,1443.37
             616.00,1443.37 685.00,1430.29 685.00,1430.29 Z" />
</svg>
