<?xml version="1.0" encoding="UTF-8" standalone="no"?>
<!DOCTYPE svg PUBLIC "-//W3C//DTD SVG 20010904//EN"
              "http://www.w3.org/TR/2001/REC-SVG-20010904/DTD/svg10.dtd">

<svg xmlns="http://www.w3.org/2000/svg"
     width="12.8in" height="7.2in"
     viewBox="0 0 3840 2160">
  <path id="Selection #1"
        fill="none" stroke="black" stroke-width="1"
        d="M 3624.00,694.00
           C 3642.95,688.60 3639.82,687.48 3655.00,677.54
             3670.34,667.50 3667.23,671.84 3682.00,658.09
             3682.00,658.09 3690.99,649.99 3690.99,649.99
             3690.99,649.99 3699.09,641.22 3699.09,641.22
             3701.88,638.70 3704.04,638.21 3706.04,635.73
             3711.73,628.64 3709.07,623.31 3721.00,623.00
             3715.22,610.91 3703.49,615.87 3693.00,616.00
             3693.00,616.00 3604.00,616.00 3604.00,616.00
             3604.00,616.00 3534.00,616.00 3534.00,616.00
             3534.00,616.00 3519.00,615.00 3519.00,615.00
             3519.00,615.00 3431.00,615.00 3431.00,615.00
             3431.00,615.00 3238.00,615.00 3238.00,615.00
             3238.00,615.00 3223.00,614.00 3223.00,614.00
             3223.00,614.00 3134.00,614.00 3134.00,614.00
             3134.00,614.00 2939.00,614.00 2939.00,614.00
             2939.00,614.00 2922.00,613.00 2922.00,613.00
             2922.00,613.00 2643.00,613.00 2643.00,613.00
             2643.00,613.00 2628.00,612.00 2628.00,612.00
             2628.00,612.00 2393.00,612.00 2393.00,612.00
             2393.00,612.00 2378.00,611.00 2378.00,611.00
             2378.00,611.00 2374.00,611.00 2374.00,611.00
             2374.00,611.00 2361.00,612.00 2361.00,612.00
             2361.00,612.00 2342.00,612.00 2342.00,612.00
             2342.00,612.00 2327.00,611.00 2327.00,611.00
             2327.00,611.00 2290.00,611.00 2290.00,611.00
             2290.00,611.00 2048.00,611.00 2048.00,611.00
             2048.00,611.00 2033.00,610.00 2033.00,610.00
             2033.00,610.00 1944.00,610.00 1944.00,610.00
             1944.00,610.00 1749.00,610.00 1749.00,610.00
             1749.00,610.00 1734.00,609.00 1734.00,609.00
             1734.00,609.00 1646.00,609.00 1646.00,609.00
             1646.00,609.00 1453.00,609.00 1453.00,609.00
             1453.00,609.00 1438.00,608.00 1438.00,608.00
             1438.00,608.00 1349.00,608.00 1349.00,608.00
             1349.00,608.00 1154.00,608.00 1154.00,608.00
             1154.00,608.00 1139.00,607.00 1139.00,607.00
             1139.00,607.00 1051.00,607.00 1051.00,607.00
             1051.00,607.00 858.00,607.00 858.00,607.00
             858.00,607.00 841.00,606.00 841.00,606.00
             841.00,606.00 559.00,606.00 559.00,606.00
             559.00,606.00 544.00,605.17 544.00,605.17
             544.00,605.17 516.09,605.17 516.09,605.17
             516.09,605.17 507.99,605.17 507.99,605.17
             507.99,605.17 491.00,606.00 491.00,606.00
             466.07,606.26 461.78,607.80 438.00,612.55
             438.00,612.55 421.00,615.26 421.00,615.26
             421.00,615.26 399.00,621.02 399.00,621.02
             391.85,623.25 385.66,625.27 379.00,628.78
             379.00,628.78 369.00,634.14 369.00,634.14
             369.00,634.14 348.00,643.37 348.00,643.37
             325.52,654.61 304.62,669.33 286.00,686.17
             237.26,730.24 205.48,797.60 200.91,863.00
             200.91,863.00 200.00,873.00 200.00,873.00
             200.00,873.00 200.00,896.00 200.00,896.00
             200.00,896.00 200.91,908.00 200.91,908.00
             204.09,953.44 220.34,1000.33 246.03,1038.00
             271.97,1076.05 306.75,1107.01 348.00,1127.63
             412.18,1159.72 489.76,1164.11 557.00,1139.05
             566.42,1135.54 576.10,1131.80 585.00,1127.11
             627.33,1104.81 656.89,1079.19 684.58,1040.00
             693.02,1028.04 701.56,1012.35 707.69,999.00
             710.20,993.53 713.09,983.25 718.05,980.07
             726.79,974.47 733.89,975.74 743.00,974.90
             749.18,974.33 746.95,973.02 757.00,973.00
             757.00,973.00 780.00,973.00 780.00,973.00
             780.00,973.00 796.00,972.00 796.00,972.00
             796.00,972.00 832.00,972.00 832.00,972.00
             832.00,972.00 849.00,971.00 849.00,971.00
             849.00,971.00 886.00,971.00 886.00,971.00
             886.00,971.00 903.00,970.00 903.00,970.00
             903.00,970.00 939.00,970.00 939.00,970.00
             939.00,970.00 956.00,969.00 956.00,969.00
             956.00,969.00 991.00,969.00 991.00,969.00
             991.00,969.00 1006.00,968.00 1006.00,968.00
             1006.00,968.00 1044.00,968.00 1044.00,968.00
             1044.00,968.00 1061.00,967.00 1061.00,967.00
             1061.00,967.00 1098.00,967.00 1098.00,967.00
             1098.00,967.00 1115.00,966.00 1115.00,966.00
             1115.00,966.00 1151.00,966.00 1151.00,966.00
             1151.00,966.00 1168.00,965.00 1168.00,965.00
             1168.00,965.00 1203.00,965.00 1203.00,965.00
             1203.00,965.00 1220.00,964.00 1220.00,964.00
             1220.00,964.00 1256.00,964.00 1256.00,964.00
             1256.00,964.00 1271.00,963.00 1271.00,963.00
             1271.00,963.00 1293.00,963.00 1293.00,963.00
             1297.92,963.01 1305.15,963.30 1307.99,968.21
             1309.53,970.90 1308.04,977.48 1307.99,981.00
             1307.99,981.00 1307.99,999.00 1307.99,999.00
             1307.99,999.00 1307.00,1015.00 1307.00,1015.00
             1307.00,1015.00 1307.00,1032.00 1307.00,1032.00
             1307.00,1032.00 1306.00,1047.00 1306.00,1047.00
             1306.00,1047.00 1304.00,1126.00 1304.00,1126.00
             1304.00,1126.00 1303.00,1142.00 1303.00,1142.00
             1303.00,1142.00 1303.00,1158.00 1303.00,1158.00
             1303.00,1158.00 1302.00,1172.00 1302.00,1172.00
             1302.00,1172.00 1302.00,1188.00 1302.00,1188.00
             1302.00,1188.00 1301.00,1205.00 1301.00,1205.00
             1301.00,1205.00 1300.00,1252.00 1300.00,1252.00
             1300.00,1252.00 1299.00,1268.00 1299.00,1268.00
             1299.00,1268.00 1299.00,1285.00 1299.00,1285.00
             1299.00,1285.00 1298.21,1304.00 1298.21,1304.00
             1298.00,1305.99 1297.92,1309.14 1298.21,1311.00
             1299.90,1316.39 1306.78,1322.12 1312.00,1323.77
             1312.00,1323.77 1320.17,1325.22 1320.17,1325.22
             1343.54,1330.54 1353.54,1329.04 1377.00,1329.00
             1377.00,1329.00 1389.00,1328.09 1389.00,1328.09
             1420.86,1325.91 1452.38,1321.93 1484.00,1317.27
             1542.59,1308.64 1600.92,1298.22 1659.00,1286.60
             1931.49,1232.09 2200.83,1163.67 2469.00,1091.15
             2469.00,1091.15 2488.00,1087.58 2488.00,1087.58
             2488.00,1087.58 2501.00,1082.98 2501.00,1082.98
             2501.00,1082.98 2511.00,1080.50 2511.00,1080.50
             2511.00,1080.50 2526.00,1075.43 2526.00,1075.43
             2526.00,1075.43 2601.00,1054.58 2601.00,1054.58
             2601.00,1054.58 2685.00,1030.42 2685.00,1030.42
             2819.15,992.18 2952.40,950.90 3085.00,907.67
             3192.60,872.59 3299.65,835.61 3405.00,794.20
             3461.33,772.06 3517.68,748.96 3572.00,722.24
             3572.00,722.24 3592.00,712.33 3592.00,712.33
             3592.00,712.33 3612.00,704.19 3612.00,704.19
             3616.34,702.01 3622.88,699.01 3624.00,694.00 Z
           M 3460.00,659.28
           C 3460.00,659.28 3497.00,661.00 3497.00,661.00
             3497.00,661.00 3502.00,661.00 3502.00,661.00
             3502.00,661.00 3514.00,661.91 3514.00,661.91
             3514.00,661.91 3549.00,666.00 3549.00,666.00
             3549.00,666.00 3563.00,669.50 3563.00,669.50
             3563.00,669.50 3587.00,674.12 3587.00,674.12
             3587.00,674.12 3606.98,679.47 3606.98,679.47
             3609.55,680.61 3612.81,682.56 3612.04,685.91
             3611.11,689.93 3599.74,693.75 3596.00,695.44
             3596.00,695.44 3586.00,700.73 3586.00,700.73
             3586.00,700.73 3574.00,706.42 3574.00,706.42
             3570.64,708.31 3560.06,714.31 3557.01,715.18
             3557.01,715.18 3549.83,716.07 3549.83,716.07
             3534.42,718.32 3516.67,721.46 3502.00,726.70
             3502.00,726.70 3488.00,733.13 3488.00,733.13
             3488.00,733.13 3477.00,737.01 3477.00,737.01
             3477.00,737.01 3458.00,745.06 3458.00,745.06
             3458.00,745.06 3437.00,750.67 3437.00,750.67
             3437.00,750.67 3418.00,757.50 3418.00,757.50
             3418.00,757.50 3405.00,761.36 3405.00,761.36
             3405.00,761.36 3387.00,768.14 3387.00,768.14
             3387.00,768.14 3360.00,777.53 3360.00,777.53
             3360.00,777.53 3340.00,785.78 3340.00,785.78
             3340.00,785.78 3322.00,794.67 3322.00,794.67
             3322.00,794.67 3305.00,800.87 3305.00,800.87
             3305.00,800.87 3279.00,813.69 3279.00,813.69
             3279.00,813.69 3249.00,825.45 3249.00,825.45
             3249.00,825.45 3229.00,835.31 3229.00,835.31
             3229.00,835.31 3206.00,842.34 3206.00,842.34
             3206.00,842.34 3188.00,849.24 3188.00,849.24
             3188.00,849.24 3180.00,850.46 3180.00,850.46
             3171.07,852.07 3162.61,853.66 3154.00,856.70
             3154.00,856.70 3135.09,863.80 3135.09,863.80
             3131.18,865.72 3130.50,868.03 3126.00,869.86
             3126.00,869.86 3100.00,877.70 3100.00,877.70
             3100.00,877.70 3087.00,882.95 3087.00,882.95
             3087.00,882.95 3068.00,889.59 3068.00,889.59
             3068.00,889.59 3059.00,893.33 3059.00,893.33
             3059.00,893.33 3040.00,899.48 3040.00,899.48
             3040.00,899.48 3026.00,902.22 3026.00,902.22
             3026.00,902.22 3003.00,910.39 3003.00,910.39
             2997.10,911.89 2997.06,909.62 2986.00,913.19
             2986.00,913.19 2970.00,920.57 2970.00,920.57
             2970.00,920.57 2932.00,932.54 2932.00,932.54
             2921.77,936.18 2903.06,944.25 2893.00,945.83
             2893.00,945.83 2884.17,945.83 2884.17,945.83
             2884.17,945.83 2861.00,953.78 2861.00,953.78
             2861.00,953.78 2849.00,956.75 2849.00,956.75
             2849.00,956.75 2839.00,960.52 2839.00,960.52
             2839.00,960.52 2826.00,964.09 2826.00,964.09
             2826.00,964.09 2807.00,972.14 2807.00,972.14
             2807.00,972.14 2791.00,977.20 2791.00,977.20
             2791.00,977.20 2781.00,980.84 2781.00,980.84
             2781.00,980.84 2770.00,982.79 2770.00,982.79
             2770.00,982.79 2757.00,987.91 2757.00,987.91
             2757.00,987.91 2745.00,990.88 2745.00,990.88
             2745.00,990.88 2726.00,996.21 2726.00,996.21
             2720.80,997.57 2720.41,995.79 2714.00,997.68
             2714.00,997.68 2689.00,1005.26 2689.00,1005.26
             2689.00,1005.26 2678.00,1007.72 2678.00,1007.72
             2678.00,1007.72 2661.00,1017.52 2661.00,1017.52
             2661.00,1017.52 2653.00,1020.08 2653.00,1020.08
             2653.00,1020.08 2637.00,1025.86 2637.00,1025.86
             2637.00,1025.86 2614.00,1035.56 2614.00,1035.56
             2614.00,1035.56 2581.00,1045.22 2581.00,1045.22
             2581.00,1045.22 2571.00,1049.14 2571.00,1049.14
             2561.85,1052.36 2552.49,1055.19 2543.00,1057.21
             2543.00,1057.21 2506.00,1066.87 2506.00,1066.87
             2501.76,1067.94 2494.03,1070.83 2490.04,1069.26
             2488.37,1068.60 2487.04,1067.48 2486.18,1065.89
             2483.01,1060.06 2489.47,1055.40 2492.16,1051.00
             2492.16,1051.00 2495.78,1043.00 2495.78,1043.00
             2495.78,1043.00 2517.52,1004.00 2517.52,1004.00
             2525.33,993.72 2534.99,984.70 2545.00,976.61
             2552.10,970.87 2571.56,959.90 2580.00,956.45
             2580.00,956.45 2592.00,952.31 2592.00,952.31
             2599.11,949.72 2600.81,948.26 2609.00,946.42
             2609.00,946.42 2633.00,942.15 2633.00,942.15
             2639.17,941.42 2645.74,941.03 2651.00,937.35
             2657.44,932.86 2676.90,910.95 2681.79,904.00
             2690.47,891.68 2684.83,895.62 2700.29,878.00
             2721.54,853.76 2746.36,837.61 2776.00,825.55
             2785.61,821.64 2801.82,815.13 2812.00,815.00
             2812.00,815.00 2824.00,815.00 2824.00,815.00
             2830.47,815.08 2838.51,817.25 2845.00,818.55
             2855.77,820.71 2868.71,823.42 2879.00,827.09
             2879.00,827.09 2898.00,834.31 2898.00,834.31
             2898.00,834.31 2915.00,842.45 2915.00,842.45
             2915.00,842.45 2943.00,849.09 2943.00,849.09
             2943.00,849.09 2957.00,852.70 2957.00,852.70
             2963.05,853.57 2973.93,852.41 2980.00,851.19
             2987.11,849.77 2993.70,846.34 3000.00,842.86
             3022.73,830.29 3020.11,830.03 3039.00,814.32
             3039.00,814.32 3050.00,806.34 3050.00,806.34
             3064.91,794.77 3078.62,784.15 3096.00,776.31
             3100.82,774.14 3105.93,772.75 3111.00,771.29
             3111.00,771.29 3125.00,767.31 3125.00,767.31
             3133.21,765.74 3135.69,766.41 3143.00,765.91
             3143.00,765.91 3164.00,763.83 3164.00,763.83
             3176.93,762.59 3183.74,759.02 3199.00,759.00
             3213.50,758.98 3242.81,758.27 3256.00,753.91
             3273.77,748.04 3297.58,726.44 3312.00,714.17
             3312.00,714.17 3325.00,705.32 3325.00,705.32
             3339.23,694.52 3345.68,688.50 3362.00,679.44
             3373.72,672.93 3406.46,663.54 3420.00,662.17
             3420.00,662.17 3460.00,659.28 3460.00,659.28 Z
           M 3633.00,690.00
           C 3633.00,690.00 3633.00,691.00 3633.00,691.00
             3633.00,691.00 3632.00,690.00 3632.00,690.00
             3632.00,690.00 3633.00,690.00 3633.00,690.00 Z
           M 3624.00,695.00
           C 3624.00,695.00 3624.00,696.00 3624.00,696.00
             3624.00,696.00 3623.00,695.00 3623.00,695.00
             3623.00,695.00 3624.00,695.00 3624.00,695.00 Z
           M 3487.01,915.02
           C 3480.37,919.65 3477.88,926.72 3475.09,934.00
             3475.09,934.00 3461.14,977.00 3461.14,977.00
             3461.14,977.00 3450.80,1008.00 3450.80,1008.00
             3450.80,1008.00 3439.80,1041.00 3439.80,1041.00
             3430.99,1067.59 3417.57,1093.84 3436.21,1120.00
             3439.78,1125.02 3441.92,1126.93 3447.00,1130.33
             3451.78,1133.52 3456.51,1136.03 3462.00,1137.81
             3468.44,1139.88 3477.25,1141.92 3484.00,1142.00
             3484.00,1142.00 3493.00,1142.00 3493.00,1142.00
             3500.44,1141.96 3511.00,1139.58 3518.00,1137.00
             3524.39,1134.64 3529.45,1132.01 3534.91,1127.86
             3546.55,1118.98 3554.93,1104.83 3555.00,1090.00
             3555.00,1090.00 3555.00,1079.00 3555.00,1079.00
             3554.98,1065.72 3545.98,1043.39 3541.51,1030.00
             3541.51,1030.00 3532.74,1004.00 3532.74,1004.00
             3532.74,1004.00 3521.74,971.00 3521.74,971.00
             3521.74,971.00 3504.58,926.00 3504.58,926.00
             3500.64,918.15 3496.81,911.73 3487.01,915.02 Z
           M 3052.01,955.70
           C 3043.84,959.56 3040.58,969.04 3037.58,977.00
             3037.58,977.00 3019.28,1038.00 3019.28,1038.00
             3019.28,1038.00 3008.33,1074.00 3008.33,1074.00
             3008.33,1074.00 2998.98,1104.00 2998.98,1104.00
             2998.98,1104.00 2989.98,1133.00 2989.98,1133.00
             2981.73,1159.51 2975.62,1186.80 2994.04,1211.00
             2997.71,1215.82 3000.13,1218.25 3005.00,1221.84
             3011.55,1226.68 3015.43,1228.73 3023.00,1231.58
             3033.46,1235.51 3041.06,1235.86 3052.00,1236.26
             3061.73,1236.61 3073.93,1234.70 3083.00,1231.19
             3090.20,1228.40 3096.84,1224.77 3103.00,1220.10
             3108.94,1215.60 3112.59,1211.25 3116.56,1205.00
             3138.71,1170.22 3124.01,1140.12 3113.91,1105.00
             3113.91,1105.00 3100.23,1060.00 3100.23,1060.00
             3100.23,1060.00 3089.42,1025.00 3089.42,1025.00
             3085.65,1012.11 3075.74,981.14 3070.24,970.00
             3066.34,962.08 3062.32,953.49 3052.01,955.70 Z
           M 3320.10,1171.04
           C 3314.79,1175.18 3313.98,1180.87 3312.26,1187.00
             3312.26,1187.00 3304.26,1219.00 3304.26,1219.00
             3304.26,1219.00 3291.99,1266.00 3291.99,1266.00
             3288.97,1276.99 3284.13,1291.88 3284.00,1303.00
             3283.92,1309.76 3283.74,1315.42 3285.77,1322.00
             3290.80,1338.31 3303.78,1345.64 3320.00,1346.26
             3337.53,1346.92 3352.25,1337.81 3358.20,1321.00
             3361.38,1312.04 3361.10,1306.23 3361.00,1297.00
             3360.88,1287.26 3357.47,1278.33 3355.23,1269.00
             3355.23,1269.00 3340.58,1212.00 3340.58,1212.00
             3340.58,1212.00 3330.77,1179.00 3330.77,1179.00
             3328.84,1173.83 3326.14,1169.41 3320.10,1171.04 Z
           M 2770.00,1181.78
           C 2763.27,1185.25 2761.64,1190.39 2759.00,1197.00
             2759.00,1197.00 2747.11,1231.00 2747.11,1231.00
             2747.11,1231.00 2740.86,1248.00 2740.86,1248.00
             2740.86,1248.00 2734.58,1265.00 2734.58,1265.00
             2726.81,1285.60 2714.28,1312.11 2738.00,1327.90
             2741.83,1330.44 2745.67,1331.92 2750.00,1333.33
             2757.26,1335.70 2761.49,1335.98 2769.00,1336.26
             2775.78,1336.50 2782.49,1335.54 2789.00,1333.71
             2794.77,1332.08 2796.83,1331.38 2802.00,1328.11
             2805.44,1325.94 2808.07,1324.05 2810.81,1320.98
             2819.08,1311.74 2820.97,1297.81 2818.10,1286.00
             2818.10,1286.00 2813.67,1273.00 2813.67,1273.00
             2813.67,1273.00 2803.42,1245.00 2803.42,1245.00
             2803.42,1245.00 2796.05,1225.00 2796.05,1225.00
             2796.05,1225.00 2782.05,1190.00 2782.05,1190.00
             2779.14,1185.00 2776.20,1180.94 2770.00,1181.78 Z
           M 3170.00,1362.74
           C 3160.89,1367.60 3155.83,1381.59 3152.67,1391.00
             3152.67,1391.00 3131.28,1463.00 3131.28,1463.00
             3131.28,1463.00 3117.98,1506.00 3117.98,1506.00
             3117.98,1506.00 3106.28,1544.00 3106.28,1544.00
             3094.37,1583.55 3072.26,1631.17 3100.90,1669.00
             3104.88,1674.26 3109.68,1678.95 3115.00,1682.84
             3121.37,1687.50 3128.57,1691.26 3136.00,1693.91
             3148.31,1698.30 3157.26,1698.79 3170.00,1699.26
             3203.22,1700.47 3238.56,1683.10 3252.69,1652.00
             3259.40,1637.23 3260.18,1623.85 3260.00,1608.00
             3259.79,1590.16 3250.96,1566.40 3245.72,1549.00
             3245.72,1549.00 3213.98,1445.00 3213.98,1445.00
             3209.37,1430.17 3196.81,1391.44 3190.74,1379.00
             3186.50,1370.30 3181.29,1360.11 3170.00,1362.74 Z" />
</svg>
