<?xml version="1.0" encoding="UTF-8" standalone="no"?>
<!DOCTYPE svg PUBLIC "-//W3C//DTD SVG 20010904//EN"
              "http://www.w3.org/TR/2001/REC-SVG-20010904/DTD/svg10.dtd">

<svg xmlns="http://www.w3.org/2000/svg"
     width="12.8in" height="7.2in"
     viewBox="0 0 3840 2160">
  <path id="Selection #1"
        fill="none" stroke="black" stroke-width="1"
        d="M 2146.00,1453.00
           C 2146.00,1453.00 2143.00,1454.00 2143.00,1454.00
             2143.00,1454.00 2148.78,1471.83 2148.78,1471.83
             2150.62,1475.69 2152.11,1475.47 2153.83,1481.00
             2153.83,1481.00 2166.43,1527.00 2166.43,1527.00
             2166.43,1527.00 2191.42,1613.00 2191.42,1613.00
             2215.17,1694.23 2240.91,1775.05 2268.66,1855.00
             2290.22,1917.13 2313.24,1978.21 2340.69,2038.00
             2340.69,2038.00 2349.56,2057.00 2349.56,2057.00
             2349.56,2057.00 2350.82,2065.00 2350.82,2065.00
             2351.70,2068.47 2354.29,2072.77 2356.00,2076.00
             2356.00,2076.00 2360.00,2075.00 2360.00,2075.00
             2360.00,2075.00 2360.00,2082.00 2360.00,2082.00
             2364.56,2090.53 2375.54,2106.04 2382.17,2112.91
             2386.69,2117.60 2396.45,2124.67 2399.00,2129.00
             2400.58,2127.96 2401.78,2127.38 2402.94,2125.67
             2405.26,2121.68 2403.01,2109.30 2402.94,2104.00
             2402.94,2104.00 2402.94,2059.00 2402.94,2059.00
             2402.94,2059.00 2403.88,2049.17 2403.88,2049.17
             2403.88,2049.17 2403.88,2027.00 2403.88,2027.00
             2403.88,2027.00 2403.88,1868.00 2403.88,1868.00
             2403.88,1868.00 2405.00,1853.00 2405.00,1853.00
             2405.00,1853.00 2405.00,1757.00 2405.00,1757.00
             2405.00,1757.00 2405.00,1546.00 2405.00,1546.00
             2405.00,1546.00 2406.00,1531.00 2406.00,1531.00
             2406.00,1531.00 2406.00,1435.00 2406.00,1435.00
             2406.00,1435.00 2406.00,1223.00 2406.00,1223.00
             2406.00,1223.00 2407.00,1208.00 2407.00,1208.00
             2407.00,1208.00 2407.00,1026.00 2407.00,1026.00
             2407.00,1026.00 2408.00,1011.00 2408.00,1011.00
             2408.00,1011.00 2408.00,923.00 2408.00,923.00
             2408.00,923.00 2408.00,731.00 2408.00,731.00
             2408.00,731.00 2408.97,719.04 2408.97,719.04
             2408.97,719.04 2408.97,688.00 2408.97,688.00
             2408.97,688.00 2408.97,484.00 2408.97,484.00
             2408.97,484.00 2408.97,409.00 2408.97,409.00
             2408.97,409.00 2409.95,394.00 2409.95,394.00
             2409.95,394.00 2408.13,385.00 2408.13,385.00
             2408.13,385.00 2406.83,365.00 2406.83,365.00
             2406.83,365.00 2401.11,331.00 2401.11,331.00
             2398.33,318.93 2396.28,315.76 2391.44,305.00
             2383.27,286.87 2376.73,274.83 2362.91,260.00
             2338.35,233.63 2303.73,217.78 2268.00,214.92
             2268.00,214.92 2258.00,214.00 2258.00,214.00
             2218.47,213.54 2177.67,229.45 2150.04,258.00
             2105.86,303.66 2096.89,374.91 2128.43,430.00
             2140.50,451.10 2158.11,469.09 2179.00,481.55
             2185.85,485.63 2203.70,492.18 2205.86,499.00
             2207.27,502.37 2205.92,504.35 2205.86,507.00
             2205.86,507.00 2207.00,533.00 2207.00,533.00
             2207.00,533.00 2207.00,554.00 2207.00,554.00
             2207.00,554.00 2208.00,571.00 2208.00,571.00
             2208.00,571.00 2208.00,612.00 2208.00,612.00
             2208.00,612.00 2209.00,627.00 2209.00,627.00
             2209.00,627.00 2209.00,668.00 2209.00,668.00
             2209.00,668.00 2210.00,685.00 2210.00,685.00
             2210.00,685.00 2210.00,725.00 2210.00,725.00
             2210.00,725.00 2211.00,742.00 2211.00,742.00
             2211.00,742.00 2211.00,783.00 2211.00,783.00
             2211.00,783.00 2212.00,804.00 2212.00,804.00
             2211.98,813.52 2211.75,814.98 2202.00,815.00
             2202.00,815.00 2180.00,814.00 2180.00,814.00
             2180.00,814.00 2129.00,813.00 2129.00,813.00
             2129.00,813.00 2114.00,811.96 2114.00,811.96
             2114.00,811.96 2101.00,811.96 2101.00,811.96
             2101.00,811.96 2091.00,811.00 2091.00,811.00
             2091.00,811.00 2072.00,811.00 2072.00,811.00
             2072.00,811.00 2055.00,810.00 2055.00,810.00
             2055.00,810.00 2030.00,810.00 2030.00,810.00
             2024.37,810.01 2018.81,810.56 2016.83,817.00
             2016.06,819.52 2017.20,821.15 2016.83,824.28
             2016.83,824.28 2015.00,838.00 2015.00,838.00
             2014.66,867.03 2019.75,903.20 2024.75,932.00
             2024.75,932.00 2030.88,969.00 2030.88,969.00
             2030.88,969.00 2039.00,1011.00 2039.00,1011.00
             2039.00,1011.00 2056.42,1094.00 2056.42,1094.00
             2074.75,1177.41 2095.09,1260.42 2116.85,1343.00
             2116.85,1343.00 2146.00,1453.00 2146.00,1453.00 Z
           M 2366.00,2068.00
           C 2366.00,2068.00 2363.00,2068.00 2363.00,2068.00
             2363.00,2068.00 2349.46,2039.00 2349.46,2039.00
             2349.46,2039.00 2343.25,2010.00 2343.25,2010.00
             2343.25,2010.00 2333.44,1986.00 2333.44,1986.00
             2333.44,1986.00 2330.33,1975.00 2330.33,1975.00
             2330.33,1975.00 2317.31,1937.00 2317.31,1937.00
             2317.31,1937.00 2302.55,1902.00 2302.55,1902.00
             2302.55,1902.00 2290.78,1876.00 2290.78,1876.00
             2288.37,1871.66 2286.47,1870.98 2283.31,1864.00
             2283.31,1864.00 2278.66,1850.00 2278.66,1850.00
             2275.68,1841.39 2272.95,1836.52 2273.20,1827.00
             2273.52,1814.61 2265.53,1809.38 2263.11,1803.99
             2263.11,1803.99 2259.06,1791.00 2259.06,1791.00
             2259.06,1791.00 2249.00,1764.00 2249.00,1764.00
             2249.00,1764.00 2241.51,1737.00 2241.51,1737.00
             2241.26,1735.42 2241.47,1734.51 2241.51,1733.00
             2241.95,1725.41 2238.80,1725.73 2235.91,1719.96
             2235.91,1719.96 2229.18,1699.00 2229.18,1699.00
             2229.18,1699.00 2227.64,1691.42 2227.64,1691.42
             2226.74,1688.88 2225.26,1688.38 2223.43,1682.00
             2223.43,1682.00 2221.25,1672.00 2221.25,1672.00
             2221.25,1672.00 2217.72,1661.00 2217.72,1661.00
             2217.72,1661.00 2212.46,1643.00 2212.46,1643.00
             2212.46,1643.00 2203.89,1620.00 2203.89,1620.00
             2203.89,1620.00 2201.48,1611.00 2201.48,1611.00
             2201.48,1611.00 2198.23,1601.00 2198.23,1601.00
             2195.12,1588.38 2194.43,1575.31 2189.49,1563.17
             2189.49,1563.17 2183.51,1553.00 2183.51,1553.00
             2183.51,1553.00 2178.31,1539.00 2178.31,1539.00
             2178.31,1539.00 2174.09,1529.00 2174.09,1529.00
             2174.09,1529.00 2168.25,1510.00 2168.25,1510.00
             2168.25,1510.00 2162.23,1492.00 2162.23,1492.00
             2162.23,1492.00 2155.75,1466.00 2155.75,1466.00
             2155.10,1463.26 2154.35,1458.80 2157.31,1457.07
             2161.66,1454.52 2166.19,1461.22 2170.04,1463.65
             2185.39,1473.35 2190.26,1472.21 2203.56,1488.00
             2211.58,1497.52 2218.03,1511.92 2221.10,1524.00
             2222.63,1529.99 2223.45,1542.63 2226.51,1547.00
             2229.57,1551.38 2240.41,1561.11 2245.00,1564.41
             2245.00,1564.41 2255.00,1571.17 2255.00,1571.17
             2270.68,1583.91 2279.87,1597.38 2287.40,1616.00
             2290.34,1623.29 2293.27,1631.03 2292.96,1639.00
             2292.82,1642.59 2292.05,1645.51 2291.42,1649.00
             2289.54,1659.42 2286.53,1670.17 2282.55,1680.00
             2282.55,1680.00 2277.55,1691.00 2277.55,1691.00
             2277.55,1691.00 2272.18,1715.00 2272.18,1715.00
             2270.91,1731.87 2282.65,1746.05 2292.80,1758.00
             2300.95,1767.60 2311.07,1781.14 2315.30,1793.00
             2318.89,1803.05 2319.17,1810.67 2320.17,1821.00
             2320.17,1821.00 2323.00,1850.00 2323.00,1850.00
             2323.01,1857.11 2324.50,1872.75 2327.31,1879.00
             2334.87,1895.81 2360.37,1918.16 2368.79,1939.00
             2377.85,1961.40 2377.71,1986.33 2376.09,2010.00
             2376.09,2010.00 2373.92,2033.00 2373.92,2033.00
             2373.92,2033.00 2369.11,2057.00 2369.11,2057.00
             2369.11,2057.00 2366.00,2068.00 2366.00,2068.00 Z
           M 2217.00,1563.00
           C 2219.89,1569.40 2223.81,1573.99 2231.00,1575.00
             2227.79,1569.81 2222.82,1564.98 2217.00,1563.00 Z
           M 2025.00,1585.53
           C 1998.64,1593.74 2006.05,1644.89 2036.00,1639.54
             2036.00,1639.54 2081.00,1623.58 2081.00,1623.58
             2085.46,1621.88 2093.89,1618.98 2095.34,1613.99
             2097.34,1607.15 2085.72,1603.62 2081.00,1602.12
             2081.00,1602.12 2049.00,1590.58 2049.00,1590.58
             2040.52,1587.38 2034.31,1584.00 2025.00,1585.53 Z
           M 2214.00,1585.00
           C 2214.00,1585.00 2219.25,1605.00 2219.25,1605.00
             2219.25,1605.00 2218.00,1610.00 2218.00,1610.00
             2222.46,1610.97 2227.07,1614.81 2226.15,1619.99
             2225.70,1622.48 2223.43,1624.02 2222.57,1626.28
             2221.57,1628.93 2222.51,1632.42 2223.36,1635.00
             2223.36,1635.00 2229.65,1650.00 2229.65,1650.00
             2229.65,1650.00 2234.09,1672.00 2234.09,1672.00
             2234.09,1672.00 2240.40,1685.00 2240.40,1685.00
             2240.40,1685.00 2249.00,1715.00 2249.00,1715.00
             2249.00,1715.00 2251.49,1711.89 2251.49,1711.89
             2251.49,1711.89 2257.75,1682.00 2257.75,1682.00
             2257.75,1682.00 2261.68,1655.00 2261.68,1655.00
             2261.68,1655.00 2261.04,1646.00 2261.04,1646.00
             2261.04,1646.00 2257.98,1629.28 2257.98,1629.28
             2257.98,1629.28 2238.88,1608.96 2238.88,1608.96
             2238.88,1608.96 2222.75,1592.49 2222.75,1592.49
             2222.75,1592.49 2214.00,1585.00 2214.00,1585.00 Z
           M 2142.00,1678.00
           C 2142.00,1678.00 2143.00,1681.00 2143.00,1681.00
             2143.00,1681.00 2146.00,1678.00 2146.00,1678.00
             2146.00,1678.00 2142.00,1678.00 2142.00,1678.00 Z
           M 2153.00,1681.00
           C 2156.26,1687.97 2155.99,1688.46 2156.00,1696.00
             2165.63,1690.70 2165.56,1679.79 2153.00,1681.00 Z
           M 2177.00,1697.00
           C 2177.00,1697.00 2175.00,1706.00 2175.00,1706.00
             2180.41,1704.20 2180.65,1701.02 2177.00,1697.00 Z
           M 2092.00,1726.46
           C 2049.21,1735.99 2056.90,1806.48 2101.00,1807.00
             2116.37,1807.18 2125.60,1803.04 2140.00,1798.72
             2140.00,1798.72 2192.00,1782.67 2192.00,1782.67
             2198.80,1780.41 2205.65,1778.12 2212.00,1774.74
             2215.10,1773.08 2218.52,1770.96 2218.63,1767.00
             2218.73,1763.46 2215.74,1760.74 2213.00,1758.99
             2208.93,1756.41 2195.21,1752.34 2190.00,1750.86
             2190.00,1750.86 2138.00,1735.33 2138.00,1735.33
             2123.14,1730.49 2107.91,1724.26 2092.00,1726.46 Z
           M 2267.00,1754.00
           C 2267.00,1754.00 2270.00,1757.00 2270.00,1757.00
             2270.00,1757.00 2267.00,1754.00 2267.00,1754.00 Z
           M 2270.00,1758.00
           C 2270.00,1758.00 2273.00,1761.00 2273.00,1761.00
             2273.00,1761.00 2270.00,1758.00 2270.00,1758.00 Z
           M 1850.00,1782.42
           C 1839.68,1783.98 1833.06,1785.73 1825.17,1793.30
             1806.97,1810.75 1807.85,1846.63 1824.18,1865.00
             1832.65,1874.51 1845.44,1879.19 1858.00,1879.91
             1868.30,1880.50 1892.55,1872.80 1903.00,1869.33
             1903.00,1869.33 1967.00,1849.34 1967.00,1849.34
             1973.84,1847.15 1985.20,1843.73 1991.00,1839.89
             1993.95,1837.94 1997.73,1834.92 1997.63,1831.00
             1997.53,1827.17 1994.04,1824.15 1991.00,1822.36
             1986.87,1819.93 1970.30,1814.66 1965.00,1813.14
             1965.00,1813.14 1890.00,1790.58 1890.00,1790.58
             1877.54,1786.93 1863.21,1780.85 1850.00,1782.42 Z
           M 2290.00,1809.00
           C 2290.00,1809.00 2292.00,1819.00 2292.00,1819.00
             2293.27,1815.16 2292.20,1812.25 2290.00,1809.00 Z
           M 2293.00,1822.00
           C 2293.00,1822.00 2295.00,1830.00 2295.00,1830.00
             2296.46,1826.15 2295.81,1824.85 2293.00,1822.00 Z
           M 2019.00,1890.53
           C 2007.66,1893.92 2003.89,1900.71 2004.00,1912.00
             2004.06,1917.28 2004.86,1921.73 2008.39,1925.91
             2015.85,1934.74 2027.50,1935.66 2038.00,1933.55
             2038.00,1933.55 2086.00,1921.12 2086.00,1921.12
             2089.72,1920.13 2100.18,1917.51 2101.60,1913.79
             2104.22,1906.90 2088.30,1903.95 2084.00,1902.87
             2084.00,1902.87 2050.00,1894.12 2050.00,1894.12
             2038.61,1891.11 2031.10,1888.55 2019.00,1890.53 Z
           M 1991.00,1904.00
           C 1991.00,1904.00 1987.00,1910.00 1987.00,1910.00
             1989.93,1908.34 1991.18,1907.54 1991.00,1904.00 Z
           M 1918.00,1912.00
           C 1918.00,1912.00 1920.00,1916.00 1920.00,1916.00
             1920.00,1916.00 1922.00,1916.00 1922.00,1916.00
             1922.53,1912.03 1921.97,1911.47 1918.00,1912.00 Z
           M 2141.00,1967.44
           C 2134.93,1968.57 2129.85,1969.95 2125.18,1974.33
             2106.72,1991.64 2112.32,2039.21 2146.00,2039.99
             2156.94,2040.24 2164.84,2036.72 2175.00,2033.33
             2175.00,2033.33 2219.00,2018.33 2219.00,2018.33
             2225.18,2016.27 2239.17,2012.09 2240.67,2005.00
             2242.52,1996.20 2226.26,1992.26 2220.00,1990.42
             2220.00,1990.42 2166.00,1972.58 2166.00,1972.58
             2157.89,1970.19 2149.60,1966.53 2141.00,1967.44 Z" />
</svg>
