<?xml version="1.0" encoding="UTF-8" standalone="no"?>
<!DOCTYPE svg PUBLIC "-//W3C//DTD SVG 20010904//EN"
              "http://www.w3.org/TR/2001/REC-SVG-20010904/DTD/svg10.dtd">

<svg xmlns="http://www.w3.org/2000/svg"
     width="325.121mm" height="182.88mm"
     viewBox="0 0 3840 2160">
  <path id="Selection"
        fill="none" stroke="black" stroke-width="1"
        d="M 1902.00,315.00
           C 1902.00,315.00 1901.06,325.00 1901.06,325.00
             1901.06,325.00 1896.00,341.00 1896.00,341.00
             1896.00,341.00 1893.00,324.00 1893.00,324.00
             1893.00,324.00 1890.91,324.00 1890.91,324.00
             1889.05,330.85 1890.35,333.48 1890.91,340.00
             1890.91,340.00 1890.00,353.00 1890.00,353.00
             1887.34,344.30 1887.02,330.77 1878.00,326.00
             1878.00,326.00 1877.00,327.00 1877.00,327.00
             1879.56,335.97 1883.48,338.35 1884.00,349.00
             1884.00,349.00 1880.00,350.00 1880.00,350.00
             1880.00,350.00 1881.00,354.00 1881.00,354.00
             1881.00,354.00 1884.00,360.00 1884.00,360.00
             1884.00,360.00 1882.00,356.00 1882.00,356.00
             1882.00,356.00 1881.00,365.00 1881.00,365.00
             1881.00,365.00 1876.00,365.00 1876.00,365.00
             1876.16,360.51 1874.90,359.28 1871.91,356.00
             1868.24,351.98 1855.87,340.82 1851.00,339.10
             1849.11,338.57 1848.78,338.86 1847.00,339.10
             1847.00,339.10 1863.00,353.17 1863.00,353.17
             1863.00,353.17 1876.00,365.00 1876.00,365.00
             1876.00,365.00 1876.00,375.00 1876.00,375.00
             1876.00,375.00 1894.00,375.00 1894.00,375.00
             1894.00,375.00 1913.00,374.00 1913.00,374.00
             1913.22,356.81 1929.04,360.17 1940.00,355.00
             1940.00,355.00 1940.00,353.00 1940.00,353.00
             1934.58,351.90 1923.89,353.88 1919.00,356.56
             1915.95,358.22 1913.49,360.63 1911.00,363.00
             1911.00,363.00 1925.89,345.91 1925.89,345.91
             1925.89,345.91 1925.89,343.00 1925.89,343.00
             1918.12,346.59 1909.78,353.61 1907.00,362.00
             1906.26,354.31 1912.92,348.01 1918.00,343.01
             1921.61,339.46 1924.72,338.22 1925.00,333.00
             1916.18,335.93 1906.81,346.19 1904.00,355.00
             1901.65,342.87 1914.33,335.93 1914.00,327.00
             1904.21,333.52 1898.97,345.50 1898.00,357.00
             1895.33,347.29 1902.84,337.43 1905.10,328.00
             1906.36,322.73 1907.29,317.98 1902.00,315.00 Z
           M 1885.00,349.00
           C 1885.00,349.00 1885.00,350.00 1885.00,350.00
             1885.00,350.00 1884.00,349.00 1884.00,349.00
             1884.00,349.00 1885.00,349.00 1885.00,349.00 Z
           M 1903.00,355.00
           C 1903.00,355.00 1903.00,356.00 1903.00,356.00
             1903.00,356.00 1902.00,355.00 1902.00,355.00
             1902.00,355.00 1903.00,355.00 1903.00,355.00 Z
           M 1906.00,362.00
           C 1906.00,362.00 1906.00,363.00 1906.00,363.00
             1906.00,363.00 1905.00,362.00 1905.00,362.00
             1905.00,362.00 1906.00,362.00 1906.00,362.00 Z
           M 1911.00,363.00
           C 1911.00,363.00 1911.00,364.00 1911.00,364.00
             1911.00,364.00 1910.00,363.00 1910.00,363.00
             1910.00,363.00 1911.00,363.00 1911.00,363.00 Z
           M 1912.00,375.00
           C 1912.00,375.00 1912.00,376.00 1912.00,376.00
             1912.00,376.00 1913.00,375.00 1913.00,375.00
             1913.00,375.00 1912.00,375.00 1912.00,375.00 Z
           M 1867.00,403.00
           C 1867.00,403.00 1858.49,417.00 1858.49,417.00
             1858.49,417.00 1851.54,433.00 1851.54,433.00
             1851.54,433.00 1844.45,444.00 1844.45,444.00
             1844.45,444.00 1826.31,477.00 1826.31,477.00
             1826.31,477.00 1814.57,506.00 1814.57,506.00
             1814.57,506.00 1804.11,526.00 1804.11,526.00
             1804.11,526.00 1785.55,564.00 1785.55,564.00
             1785.55,564.00 1750.34,614.00 1750.34,614.00
             1750.34,614.00 1700.55,696.00 1700.55,696.00
             1700.55,696.00 1682.74,722.00 1682.74,722.00
             1682.74,722.00 1667.78,747.00 1667.78,747.00
             1642.81,794.30 1633.95,826.60 1619.58,877.00
             1619.58,877.00 1608.28,916.00 1608.28,916.00
             1608.28,916.00 1603.66,930.00 1603.66,930.00
             1603.66,930.00 1596.29,970.00 1596.29,970.00
             1596.29,970.00 1593.84,995.00 1593.84,995.00
             1593.84,995.00 1591.00,1024.00 1591.00,1024.00
             1591.00,1024.00 1590.10,1050.00 1590.10,1050.00
             1590.10,1050.00 1590.10,1065.00 1590.10,1065.00
             1590.10,1065.00 1591.00,1076.00 1591.00,1076.00
             1591.00,1076.00 1591.00,1091.00 1591.00,1091.00
             1591.00,1091.00 1595.73,1132.00 1595.73,1132.00
             1595.73,1132.00 1603.00,1175.00 1603.00,1175.00
             1600.49,1172.40 1598.33,1170.49 1597.03,1167.00
             1595.42,1162.70 1596.25,1157.41 1590.90,1153.74
             1588.77,1152.28 1586.51,1152.03 1584.00,1152.03
             1574.29,1152.03 1571.22,1158.26 1571.01,1167.00
             1571.01,1167.00 1572.04,1193.00 1572.04,1193.00
             1572.04,1193.00 1577.78,1221.83 1577.78,1221.83
             1578.25,1228.48 1573.60,1231.95 1575.76,1240.00
             1577.93,1248.07 1581.43,1246.60 1584.47,1252.05
             1586.89,1256.40 1589.29,1270.59 1590.00,1276.00
             1584.72,1277.85 1585.96,1281.37 1587.15,1286.00
             1589.83,1296.36 1591.44,1297.92 1595.88,1307.00
             1598.69,1312.74 1598.91,1317.96 1600.72,1324.00
             1600.72,1324.00 1605.65,1337.00 1605.65,1337.00
             1607.05,1342.37 1607.37,1348.15 1610.34,1353.00
             1613.58,1358.29 1618.93,1362.09 1624.00,1365.49
             1632.62,1371.27 1635.93,1373.26 1646.00,1370.00
             1646.00,1370.00 1652.12,1394.00 1652.12,1394.00
             1652.12,1394.00 1662.71,1435.00 1662.71,1435.00
             1662.71,1435.00 1669.98,1457.00 1669.98,1457.00
             1674.97,1473.06 1681.42,1497.48 1688.40,1512.00
             1690.74,1516.86 1697.05,1525.13 1700.33,1530.00
             1700.33,1530.00 1726.00,1568.00 1726.00,1568.00
             1726.00,1568.00 1737.26,1583.00 1737.26,1583.00
             1738.12,1585.26 1738.05,1590.18 1738.42,1593.00
             1739.62,1602.04 1740.10,1607.85 1740.00,1617.00
             1740.00,1617.00 1739.00,1631.00 1739.00,1631.00
             1739.00,1631.00 1741.29,1669.00 1741.29,1669.00
             1741.29,1669.00 1743.72,1683.00 1743.72,1683.00
             1743.72,1683.00 1746.29,1709.00 1746.29,1709.00
             1746.29,1709.00 1748.83,1726.00 1748.83,1726.00
             1748.83,1726.00 1750.09,1750.00 1750.09,1750.00
             1750.09,1750.00 1751.00,1760.00 1751.00,1760.00
             1751.00,1760.00 1750.00,1778.00 1750.00,1778.00
             1750.00,1778.00 1751.00,1797.00 1751.00,1797.00
             1751.33,1825.48 1760.69,1825.23 1761.00,1851.00
             1761.12,1861.99 1759.90,1878.92 1762.37,1889.00
             1763.27,1892.65 1764.26,1898.92 1767.28,1901.26
             1768.97,1902.58 1770.92,1902.85 1773.00,1902.95
             1781.50,1903.37 1787.25,1897.49 1793.00,1891.96
             1802.25,1883.08 1809.46,1872.36 1816.90,1862.04
             1819.57,1858.33 1822.91,1856.36 1824.78,1852.00
             1824.78,1852.00 1829.00,1832.00 1829.00,1832.00
             1835.28,1844.33 1830.31,1861.19 1843.00,1865.84
             1848.86,1867.99 1852.72,1864.21 1856.14,1860.00
             1858.04,1857.67 1860.22,1854.37 1863.36,1857.37
             1865.24,1859.17 1867.34,1865.38 1868.09,1868.00
             1870.06,1874.86 1870.99,1879.86 1871.00,1887.00
             1871.01,1895.07 1870.36,1901.97 1875.95,1908.66
             1882.76,1916.81 1896.04,1909.14 1900.52,1901.96
             1907.34,1891.02 1906.94,1874.40 1907.00,1862.00
             1907.03,1856.26 1907.99,1850.64 1909.00,1845.00
             1911.45,1850.28 1914.20,1858.70 1919.18,1862.08
             1923.32,1864.73 1925.89,1862.77 1928.58,1862.08
             1936.57,1860.34 1938.74,1860.98 1939.00,1851.00
             1942.18,1857.75 1947.38,1866.23 1949.10,1873.00
             1949.10,1873.00 1953.98,1899.00 1953.98,1899.00
             1956.24,1904.56 1959.73,1907.75 1966.00,1906.77
             1973.03,1905.68 1976.01,1898.72 1984.00,1893.00
             1984.00,1901.26 1982.94,1914.31 1989.39,1920.58
             1992.24,1923.35 1995.09,1923.01 1998.91,1926.27
             2002.41,1929.25 2003.91,1932.99 2009.00,1933.76
             2019.97,1935.42 2023.70,1921.16 2024.87,1913.00
             2024.87,1913.00 2026.99,1894.00 2026.99,1894.00
             2029.89,1884.69 2033.98,1885.46 2034.00,1870.00
             2034.02,1855.51 2033.86,1855.28 2038.00,1841.00
             2046.86,1851.26 2042.76,1856.82 2048.65,1864.98
             2054.62,1873.27 2059.93,1869.55 2064.01,1875.14
             2067.59,1880.05 2069.91,1892.53 2077.00,1893.36
             2083.81,1894.16 2085.97,1886.26 2088.96,1882.06
             2092.23,1877.47 2094.60,1878.67 2097.77,1875.69
             2100.81,1872.84 2100.94,1869.87 2100.86,1866.00
             2100.86,1866.00 2100.86,1854.00 2100.86,1854.00
             2100.86,1854.00 2100.86,1843.00 2100.86,1843.00
             2100.86,1843.00 2099.63,1834.00 2099.63,1834.00
             2099.63,1834.00 2099.00,1817.00 2099.00,1817.00
             2099.00,1817.00 2097.01,1795.00 2097.01,1795.00
             2097.01,1795.00 2099.00,1774.00 2099.00,1774.00
             2099.00,1774.00 2099.00,1738.00 2099.00,1738.00
             2099.00,1738.00 2094.68,1693.00 2094.68,1693.00
             2094.68,1693.00 2094.00,1682.00 2094.00,1682.00
             2094.00,1682.00 2094.00,1629.00 2094.00,1629.00
             2094.00,1629.00 2094.90,1617.00 2094.90,1617.00
             2094.90,1617.00 2094.09,1608.00 2094.09,1608.00
             2093.85,1603.71 2094.65,1601.87 2094.96,1598.00
             2094.96,1598.00 2094.96,1585.00 2094.96,1585.00
             2094.96,1585.00 2093.36,1564.00 2093.36,1564.00
             2093.36,1564.00 2108.14,1541.00 2108.14,1541.00
             2117.95,1523.45 2126.67,1505.27 2132.57,1486.00
             2132.57,1486.00 2139.14,1463.00 2139.14,1463.00
             2139.14,1463.00 2142.34,1453.00 2142.34,1453.00
             2142.34,1453.00 2151.58,1411.00 2151.58,1411.00
             2151.58,1411.00 2159.26,1376.02 2159.26,1376.02
             2162.39,1368.01 2171.98,1368.88 2181.70,1357.96
             2192.25,1346.11 2194.19,1326.92 2197.28,1312.00
             2199.43,1301.64 2202.37,1299.85 2199.00,1289.00
             2204.74,1287.21 2205.48,1283.52 2206.54,1278.00
             2206.54,1278.00 2210.10,1251.00 2210.10,1251.00
             2210.61,1246.13 2214.90,1235.53 2216.59,1230.00
             2219.96,1218.93 2220.73,1207.53 2221.01,1196.00
             2221.01,1196.00 2221.82,1186.00 2221.82,1186.00
             2221.47,1182.21 2219.55,1180.99 2218.44,1175.00
             2218.09,1173.15 2217.94,1170.71 2217.27,1169.00
             2215.66,1164.90 2208.92,1157.35 2204.00,1158.65
             2204.00,1158.65 2191.00,1165.00 2191.00,1165.00
             2191.00,1165.00 2193.00,1141.00 2193.00,1141.00
             2193.00,1141.00 2195.04,1111.00 2195.04,1111.00
             2195.04,1111.00 2195.04,1098.00 2195.04,1098.00
             2195.04,1098.00 2196.00,1088.00 2196.00,1088.00
             2196.00,1088.00 2195.00,1067.00 2195.00,1067.00
             2195.00,1067.00 2195.00,1045.00 2195.00,1045.00
             2194.98,1033.43 2189.86,996.27 2187.54,984.00
             2187.54,984.00 2179.43,957.00 2179.43,957.00
             2179.43,957.00 2176.35,943.00 2176.35,943.00
             2176.35,943.00 2170.65,919.00 2170.65,919.00
             2170.65,919.00 2164.58,888.00 2164.58,888.00
             2164.58,888.00 2151.67,840.00 2151.67,840.00
             2151.67,840.00 2146.13,823.00 2146.13,823.00
             2146.13,823.00 2131.48,792.00 2131.48,792.00
             2131.48,792.00 2120.14,768.00 2120.14,768.00
             2120.14,768.00 2107.45,748.00 2107.45,748.00
             2107.45,748.00 2099.54,733.00 2099.54,733.00
             2099.54,733.00 2087.34,716.00 2087.34,716.00
             2087.34,716.00 2061.67,677.00 2061.67,677.00
             2061.67,677.00 2050.11,660.00 2050.11,660.00
             2050.11,660.00 2031.54,635.00 2031.54,635.00
             2031.54,635.00 2015.48,606.00 2015.48,606.00
             2015.48,606.00 1992.57,553.00 1992.57,553.00
             1992.57,553.00 1967.43,495.00 1967.43,495.00
             1967.43,495.00 1961.48,477.00 1961.48,477.00
             1959.02,469.68 1955.21,460.92 1951.75,454.00
             1946.10,442.69 1938.68,429.49 1931.67,419.00
             1927.98,413.49 1924.08,407.01 1918.00,404.00
             1913.03,409.79 1910.00,409.41 1903.00,410.16
             1889.50,411.61 1891.76,410.88 1879.00,408.46
             1876.60,408.00 1874.27,407.95 1872.04,406.84
             1870.19,405.92 1868.56,404.35 1867.00,403.00 Z
           M 1886.05,431.62
           C 1895.58,430.28 1893.98,437.96 1892.00,444.00
             1887.26,458.43 1881.29,470.58 1879.06,486.00
             1879.06,486.00 1879.06,494.00 1879.06,494.00
             1879.06,494.00 1878.00,504.00 1878.00,504.00
             1878.00,504.00 1878.00,522.00 1878.00,522.00
             1877.98,535.81 1873.77,561.95 1869.14,575.00
             1864.71,587.45 1854.20,602.11 1846.42,613.00
             1827.80,639.06 1817.99,651.93 1793.00,672.75
             1793.00,672.75 1761.00,697.42 1761.00,697.42
             1758.11,699.47 1749.91,705.61 1747.00,706.42
             1740.86,708.13 1736.09,701.48 1742.23,695.51
             1742.23,695.51 1765.00,679.11 1765.00,679.11
             1765.00,679.11 1800.00,649.83 1800.00,649.83
             1810.72,640.02 1822.88,623.95 1831.43,612.00
             1839.10,601.27 1850.32,586.81 1855.69,575.00
             1861.77,561.60 1865.98,535.77 1866.00,521.00
             1866.04,494.11 1866.37,477.70 1875.95,452.00
             1878.20,445.96 1880.57,434.84 1886.05,431.62 Z
           M 1903.01,485.66
           C 1905.00,485.92 1905.87,485.71 1907.40,487.43
             1910.72,491.18 1908.06,504.87 1908.00,510.00
             1908.00,510.00 1908.00,537.00 1908.00,537.00
             1908.00,537.00 1905.17,564.00 1905.17,564.00
             1905.17,564.00 1903.39,581.00 1903.39,581.00
             1900.93,594.54 1893.90,615.01 1888.80,628.00
             1877.88,655.80 1866.30,681.02 1849.65,706.00
             1849.65,706.00 1829.51,732.00 1829.51,732.00
             1829.51,732.00 1809.83,756.96 1809.83,756.96
             1809.83,756.96 1800.09,766.01 1800.09,766.01
             1800.09,766.01 1790.83,776.71 1790.83,776.71
             1790.83,776.71 1780.00,786.09 1780.00,786.09
             1780.00,786.09 1736.00,825.17 1736.00,825.17
             1736.00,825.17 1721.00,839.96 1721.00,839.96
             1721.00,839.96 1702.18,858.00 1702.18,858.00
             1695.72,865.34 1681.44,885.36 1676.42,894.00
             1662.88,917.32 1654.53,931.79 1647.26,958.00
             1645.32,964.97 1643.05,971.77 1642.15,979.00
             1642.15,979.00 1639.37,1002.00 1639.37,1002.00
             1638.68,1005.12 1637.53,1008.02 1633.98,1008.63
             1630.23,1009.27 1627.53,1006.63 1627.31,1003.00
             1627.31,1003.00 1629.87,980.00 1629.87,980.00
             1634.44,947.09 1644.48,924.57 1660.72,896.00
             1669.35,880.82 1681.60,861.96 1693.17,849.00
             1693.17,849.00 1712.00,830.91 1712.00,830.91
             1712.00,830.91 1731.00,812.17 1731.00,812.17
             1731.00,812.17 1782.00,767.00 1782.00,767.00
             1782.00,767.00 1792.04,756.00 1792.04,756.00
             1792.04,756.00 1809.92,737.00 1809.92,737.00
             1809.92,737.00 1822.00,721.00 1822.00,721.00
             1822.00,721.00 1834.98,705.00 1834.98,705.00
             1852.46,679.68 1862.79,658.08 1874.58,630.00
             1879.62,617.97 1888.67,592.42 1891.19,580.00
             1892.94,571.40 1893.48,562.72 1894.09,554.00
             1894.09,554.00 1896.00,537.00 1896.00,537.00
             1896.00,537.00 1896.00,511.00 1896.00,511.00
             1896.05,507.07 1897.18,490.93 1898.98,488.23
             1900.33,486.22 1900.99,486.33 1903.01,485.66 Z
           M 1925.11,581.62
           C 1933.40,580.43 1934.27,590.01 1937.25,596.00
             1946.22,614.06 1954.06,625.54 1966.92,641.00
             1980.27,657.06 1994.70,672.66 2010.00,686.91
             2010.00,686.91 2040.96,715.00 2040.96,715.00
             2040.96,715.00 2056.61,734.00 2056.61,734.00
             2056.61,734.00 2070.51,750.00 2070.51,750.00
             2070.51,750.00 2078.08,762.00 2078.08,762.00
             2089.69,779.79 2099.94,798.02 2107.32,818.00
             2113.58,834.95 2124.81,868.55 2132.49,883.00
             2134.79,887.32 2145.36,900.44 2135.94,903.34
             2129.60,905.30 2123.11,892.60 2120.81,888.00
             2120.81,888.00 2108.95,858.00 2108.95,858.00
             2108.95,858.00 2097.42,827.00 2097.42,827.00
             2089.02,804.73 2080.11,787.88 2067.00,768.00
             2067.00,768.00 2060.49,758.00 2060.49,758.00
             2060.49,758.00 2047.61,743.00 2047.61,743.00
             2047.61,743.00 2032.91,725.00 2032.91,725.00
             2032.91,725.00 1998.28,693.59 1998.28,693.59
             1982.54,678.70 1968.38,662.52 1954.42,646.00
             1942.54,631.93 1933.85,617.47 1925.76,601.00
             1922.88,595.14 1918.03,586.05 1925.11,581.62 Z
           M 1920.02,685.64
           C 1926.28,686.17 1929.77,690.78 1934.00,695.00
             1934.00,695.00 1956.28,718.00 1956.28,718.00
             1956.28,718.00 1968.83,731.00 1968.83,731.00
             1974.60,737.39 1994.12,762.13 1997.63,769.00
             2003.64,780.78 2010.09,811.61 2013.88,826.00
             2016.59,836.26 2023.84,853.05 2029.46,862.00
             2029.46,862.00 2037.99,873.00 2037.99,873.00
             2040.40,877.16 2039.61,882.58 2033.98,882.72
             2029.33,882.84 2025.81,878.27 2023.21,875.00
             2016.22,866.19 2011.24,855.50 2007.32,845.00
             2007.32,845.00 2002.43,831.00 2002.43,831.00
             1998.46,816.95 1993.16,788.85 1987.51,777.00
             1984.98,771.70 1979.51,764.85 1975.87,760.00
             1964.65,745.04 1952.69,732.56 1939.91,719.00
             1932.30,710.93 1925.72,707.11 1918.14,697.00
             1914.64,692.33 1913.50,687.86 1920.02,685.64 Z
           M 1912.04,740.66
           C 1922.78,739.93 1918.38,755.84 1916.56,762.00
             1916.56,762.00 1905.90,791.00 1905.90,791.00
             1901.25,810.03 1903.15,829.23 1907.87,848.00
             1910.81,859.69 1915.38,866.12 1916.47,871.00
             1917.25,874.47 1917.04,878.94 1912.94,880.16
             1908.07,881.61 1905.75,876.48 1904.14,873.00
             1899.02,861.90 1897.63,859.29 1895.08,847.00
             1890.53,826.13 1889.60,803.81 1895.08,783.00
             1896.99,776.14 1899.91,770.47 1902.55,764.00
             1908.08,750.40 1905.08,744.54 1912.04,740.66 Z
           M 1858.04,771.62
           C 1872.18,769.64 1861.84,787.76 1858.84,793.00
             1853.50,802.37 1838.82,819.32 1831.00,826.99
             1824.59,833.26 1816.26,838.63 1812.44,847.00
             1810.52,851.21 1807.88,858.38 1808.22,863.00
             1808.22,863.00 1810.68,874.00 1810.68,874.00
             1811.01,877.18 1810.28,880.19 1806.94,881.38
             1801.50,883.33 1799.25,878.16 1798.13,874.00
             1795.02,862.43 1795.17,857.30 1799.42,846.00
             1805.19,830.68 1811.79,827.60 1822.99,816.91
             1822.99,816.91 1842.33,795.00 1842.33,795.00
             1847.37,788.59 1852.25,774.92 1858.04,771.62 Z
           M 2007.00,893.28
           C 2015.94,892.45 2033.83,893.63 2043.00,894.72
             2043.00,894.72 2063.00,896.67 2063.00,896.67
             2069.33,898.05 2085.55,905.48 2091.00,909.10
             2094.10,911.17 2096.23,913.31 2099.00,915.72
             2105.00,920.94 2116.80,932.51 2119.30,940.00
             2120.38,943.23 2119.96,949.45 2119.88,953.00
             2119.57,967.70 2124.33,970.79 2131.97,982.00
             2131.97,982.00 2148.16,1006.00 2148.16,1006.00
             2148.16,1006.00 2157.18,1017.00 2157.18,1017.00
             2165.75,1027.91 2178.54,1049.09 2180.16,1063.00
             2180.16,1063.00 2179.00,1080.00 2179.00,1080.00
             2178.84,1093.94 2178.93,1118.84 2181.46,1132.00
             2181.46,1132.00 2186.83,1153.00 2186.83,1153.00
             2188.41,1158.05 2190.24,1160.16 2189.82,1166.00
             2188.71,1181.33 2185.43,1181.28 2191.21,1198.00
             2194.53,1207.61 2199.40,1207.45 2200.83,1211.08
             2202.01,1214.07 2199.31,1216.59 2195.00,1214.90
             2191.01,1213.33 2188.00,1209.73 2186.13,1206.00
             2181.23,1196.20 2180.88,1188.58 2181.00,1178.00
             2181.00,1178.00 2181.96,1167.00 2181.96,1167.00
             2182.40,1155.66 2172.64,1127.82 2173.03,1111.04
             2173.03,1111.04 2173.03,1099.00 2173.03,1099.00
             2173.03,1099.00 2173.96,1090.00 2173.96,1090.00
             2173.96,1090.00 2173.96,1078.00 2173.96,1078.00
             2173.99,1072.24 2172.63,1061.19 2170.35,1056.00
             2170.35,1056.00 2151.43,1026.00 2151.43,1026.00
             2147.53,1020.36 2144.36,1014.18 2139.82,1009.00
             2139.82,1009.00 2133.32,1002.00 2133.32,1002.00
             2133.32,1002.00 2127.10,993.00 2127.10,993.00
             2120.42,983.29 2112.17,971.27 2112.09,959.00
             2112.09,959.00 2112.09,955.00 2112.09,955.00
             2112.09,955.00 2112.09,943.00 2112.09,943.00
             2110.99,937.80 2099.23,927.08 2095.00,923.04
             2085.55,914.00 2070.02,905.55 2057.00,903.44
             2057.00,903.44 2038.00,901.91 2038.00,901.91
             2038.00,901.91 2028.00,901.00 2028.00,901.00
             2014.21,900.84 2000.67,901.35 1987.00,903.28
             1987.00,903.28 1974.00,905.71 1974.00,905.71
             1974.00,905.71 1953.00,907.00 1953.00,907.00
             1953.00,907.00 1934.00,907.00 1934.00,907.00
             1934.00,907.00 1906.00,908.29 1906.00,908.29
             1906.00,908.29 1886.00,911.83 1886.00,911.83
             1886.00,911.83 1870.00,912.91 1870.00,912.91
             1870.00,912.91 1863.00,912.37 1863.00,912.37
             1863.00,912.37 1844.00,913.00 1844.00,913.00
             1844.00,913.00 1833.00,913.96 1833.00,913.96
             1833.00,913.96 1819.00,913.96 1819.00,913.96
             1819.00,913.96 1803.00,914.91 1803.00,914.91
             1803.00,914.91 1781.00,912.09 1781.00,912.09
             1775.83,911.75 1773.67,912.76 1769.00,912.96
             1757.18,913.48 1743.91,914.18 1733.00,919.33
             1726.48,922.40 1719.53,928.02 1717.11,935.00
             1715.30,940.20 1716.87,941.70 1714.30,949.00
             1710.68,959.27 1705.58,968.99 1699.49,978.00
             1690.75,990.93 1679.19,995.49 1666.38,1012.00
             1657.85,1023.00 1656.90,1033.66 1650.47,1042.00
             1645.38,1048.61 1640.22,1051.56 1636.21,1056.04
             1631.59,1061.20 1627.26,1071.20 1625.87,1078.00
             1624.95,1082.50 1627.10,1091.15 1627.72,1096.00
             1627.72,1096.00 1630.72,1117.00 1630.72,1117.00
             1630.72,1117.00 1631.29,1126.00 1631.29,1126.00
             1631.99,1131.41 1632.92,1132.86 1633.00,1139.00
             1633.00,1139.00 1633.00,1157.00 1633.00,1157.00
             1633.00,1157.00 1634.26,1176.00 1634.26,1176.00
             1634.81,1191.09 1630.45,1213.82 1625.31,1228.00
             1625.31,1228.00 1620.49,1240.85 1620.49,1240.85
             1619.51,1242.67 1617.60,1244.13 1615.57,1242.77
             1613.67,1241.49 1614.01,1237.94 1614.32,1236.00
             1614.32,1236.00 1620.12,1218.00 1620.12,1218.00
             1620.12,1218.00 1626.96,1182.00 1626.96,1182.00
             1626.96,1182.00 1626.46,1172.00 1626.46,1172.00
             1626.46,1172.00 1626.46,1166.00 1626.46,1166.00
             1626.46,1166.00 1625.00,1142.00 1625.00,1142.00
             1625.00,1142.00 1619.00,1083.00 1619.00,1083.00
             1618.87,1071.37 1622.13,1060.23 1629.76,1051.18
             1629.76,1051.18 1635.37,1045.68 1635.37,1045.68
             1635.37,1045.68 1642.49,1036.00 1642.49,1036.00
             1647.09,1029.79 1646.48,1027.84 1649.49,1022.00
             1653.93,1013.40 1659.18,1005.56 1665.21,998.00
             1672.29,989.13 1685.39,981.11 1691.64,972.00
             1697.27,963.81 1702.52,953.54 1705.38,944.00
             1707.17,938.05 1706.45,932.71 1709.99,927.00
             1712.41,923.11 1715.62,920.66 1719.00,917.72
             1732.00,906.43 1737.94,907.18 1754.00,904.71
             1761.74,903.51 1765.55,901.82 1774.00,902.01
             1774.00,902.01 1798.00,905.07 1798.00,905.07
             1798.00,905.07 1809.17,905.07 1809.17,905.07
             1809.17,905.07 1816.00,906.70 1816.00,906.70
             1816.00,906.70 1833.00,906.00 1833.00,906.00
             1833.00,906.00 1843.00,905.18 1843.00,905.18
             1843.00,905.18 1850.00,905.82 1850.00,905.82
             1850.00,905.82 1860.00,905.00 1860.00,905.00
             1860.00,905.00 1874.00,905.00 1874.00,905.00
             1890.49,904.97 1904.31,898.70 1930.00,899.00
             1930.00,899.00 1941.00,899.92 1941.00,899.92
             1941.00,899.92 1956.00,899.00 1956.00,899.00
             1956.00,899.00 1989.00,895.29 1989.00,895.29
             1989.00,895.29 2007.00,893.28 2007.00,893.28 Z
           M 1764.00,1200.00
           C 1764.00,1200.00 1779.09,1183.00 1779.09,1183.00
             1779.09,1183.00 1809.72,1150.00 1809.72,1150.00
             1815.82,1143.08 1822.73,1133.22 1833.00,1134.11
             1842.82,1134.95 1848.13,1144.99 1845.35,1154.00
             1843.48,1160.06 1836.44,1166.28 1832.28,1171.00
             1832.28,1171.00 1820.17,1184.00 1820.17,1184.00
             1820.17,1184.00 1802.00,1204.00 1802.00,1204.00
             1799.36,1206.65 1787.90,1219.21 1786.90,1222.00
             1785.82,1225.00 1788.11,1226.88 1789.84,1229.00
             1789.84,1229.00 1799.91,1241.00 1799.91,1241.00
             1799.91,1241.00 1806.32,1249.00 1806.32,1249.00
             1806.32,1249.00 1826.32,1273.00 1826.32,1273.00
             1830.46,1278.01 1836.52,1283.61 1838.36,1290.00
             1841.41,1300.55 1834.39,1310.87 1823.00,1309.89
             1814.70,1309.18 1807.73,1299.18 1802.88,1293.00
             1802.88,1293.00 1784.20,1271.00 1784.20,1271.00
             1784.20,1271.00 1778.79,1264.00 1778.79,1264.00
             1778.79,1264.00 1764.00,1246.00 1764.00,1246.00
             1764.00,1246.00 1746.83,1265.00 1746.83,1265.00
             1746.83,1265.00 1729.08,1284.00 1729.08,1284.00
             1724.34,1289.15 1718.05,1297.99 1711.00,1299.61
             1700.65,1301.98 1691.17,1294.92 1692.11,1284.00
             1692.77,1276.24 1699.77,1270.53 1704.58,1265.00
             1704.58,1265.00 1725.83,1242.00 1725.83,1242.00
             1731.78,1235.43 1736.71,1228.22 1744.00,1223.00
             1744.00,1223.00 1712.32,1185.00 1712.32,1185.00
             1712.32,1185.00 1695.91,1165.00 1695.91,1165.00
             1695.91,1165.00 1687.68,1155.00 1687.68,1155.00
             1682.51,1148.73 1678.36,1144.87 1680.39,1136.00
             1683.07,1124.33 1697.50,1121.72 1705.96,1129.21
             1705.96,1129.21 1733.32,1162.00 1733.32,1162.00
             1740.49,1170.56 1759.82,1191.48 1764.00,1200.00 Z
           M 2082.00,1232.00
           C 2082.00,1232.00 2133.00,1270.42 2133.00,1270.42
             2140.76,1276.00 2150.83,1282.08 2149.89,1293.00
             2148.84,1305.26 2135.63,1308.78 2126.00,1303.59
             2126.00,1303.59 2094.00,1280.01 2094.00,1280.01
             2087.32,1275.12 2067.35,1261.22 2063.00,1256.00
             2063.00,1256.00 2039.54,1283.00 2039.54,1283.00
             2039.54,1283.00 2021.42,1304.00 2021.42,1304.00
             2021.42,1304.00 2008.72,1318.90 2008.72,1318.90
             2001.64,1326.13 1989.56,1326.05 1984.01,1316.98
             1977.63,1306.58 1986.29,1297.51 1992.59,1290.00
             1992.59,1290.00 2037.00,1237.00 2037.00,1237.00
             2030.67,1234.16 2012.76,1219.80 2006.00,1214.74
             2006.00,1214.74 1966.10,1184.91 1966.10,1184.91
             1956.30,1174.83 1961.38,1159.19 1974.00,1158.11
             1982.53,1157.37 1989.69,1164.03 1996.00,1168.88
             1996.00,1168.88 2037.00,1199.42 2037.00,1199.42
             2037.00,1199.42 2050.00,1208.73 2050.00,1208.73
             2051.83,1210.06 2054.61,1212.56 2057.00,1212.24
             2059.52,1211.91 2061.79,1208.87 2063.26,1207.00
             2063.26,1207.00 2075.00,1193.00 2075.00,1193.00
             2075.00,1193.00 2095.82,1169.00 2095.82,1169.00
             2095.82,1169.00 2113.18,1148.00 2113.18,1148.00
             2118.46,1142.01 2124.32,1135.36 2133.00,1136.11
             2147.15,1137.32 2148.50,1152.06 2141.90,1162.00
             2141.90,1162.00 2110.37,1199.00 2110.37,1199.00
             2110.37,1199.00 2082.00,1232.00 2082.00,1232.00 Z
           M 1881.00,1473.28
           C 1893.59,1472.11 1902.80,1473.67 1915.00,1475.01
             1915.00,1475.01 1924.00,1475.01 1924.00,1475.01
             1924.00,1475.01 1943.00,1478.51 1943.00,1478.51
             1943.00,1478.51 1959.00,1484.40 1959.00,1484.40
             1979.00,1492.33 1988.70,1496.56 2006.00,1510.28
             2016.90,1518.93 2031.04,1531.76 2036.01,1545.00
             2039.15,1553.36 2035.15,1563.51 2026.00,1565.61
             2012.32,1568.74 2009.04,1558.24 2003.90,1551.09
             2002.11,1548.59 2000.28,1547.06 1997.99,1545.08
             1997.99,1545.08 1987.91,1535.82 1987.91,1535.82
             1975.09,1524.98 1963.30,1519.34 1948.00,1513.20
             1942.44,1510.97 1936.95,1508.36 1931.00,1507.32
             1931.00,1507.32 1892.00,1503.08 1892.00,1503.08
             1892.00,1503.08 1884.00,1503.91 1884.00,1503.91
             1869.08,1504.95 1850.85,1508.12 1838.00,1516.24
             1829.91,1521.36 1816.40,1532.84 1810.13,1540.00
             1804.80,1546.10 1804.25,1554.01 1794.00,1554.89
             1782.74,1555.86 1775.06,1545.76 1777.53,1535.00
             1779.69,1525.54 1787.34,1518.51 1794.00,1512.01
             1802.09,1504.12 1817.91,1491.34 1828.00,1486.37
             1833.37,1483.73 1852.21,1477.36 1858.00,1476.33
             1858.00,1476.33 1881.00,1473.28 1881.00,1473.28 Z
           M 2057.00,1611.00
           C 2053.93,1616.05 2051.94,1621.59 2045.00,1621.00
             2045.00,1621.00 2042.00,1624.00 2042.00,1624.00
             2043.70,1618.82 2051.40,1611.21 2057.00,1611.00 Z
           M 1972.00,1683.00
           C 1968.67,1691.04 1960.37,1694.80 1952.00,1693.00
             1952.00,1693.00 1952.00,1690.00 1952.00,1690.00
             1958.62,1685.23 1963.28,1679.37 1972.00,1683.00 Z
           M 1895.00,1692.00
           C 1900.02,1690.55 1901.70,1690.06 1907.00,1690.23
             1910.00,1689.97 1913.04,1689.93 1916.00,1690.23
             1919.23,1691.05 1929.37,1693.51 1927.12,1698.51
             1926.43,1700.07 1924.43,1701.38 1922.91,1702.01
             1917.68,1704.15 1901.40,1700.14 1897.31,1696.35
             1895.65,1694.82 1895.62,1693.99 1895.00,1692.00 Z
           M 1927.00,1853.00
           C 1927.00,1853.00 1927.00,1854.00 1927.00,1854.00
             1927.00,1854.00 1926.00,1853.00 1926.00,1853.00
             1926.00,1853.00 1927.00,1853.00 1927.00,1853.00 Z
           M 1936.00,1910.00
           C 1932.31,1914.51 1926.88,1922.67 1924.61,1928.00
             1921.54,1935.23 1918.69,1943.02 1919.04,1951.00
             1919.85,1969.51 1942.17,1966.79 1948.47,1960.47
             1956.01,1952.90 1951.91,1935.18 1947.07,1927.00
             1945.21,1923.85 1938.00,1912.01 1936.00,1910.00 Z
           M 2008.00,1953.00
           C 2001.47,1963.02 1988.55,1983.67 1994.43,1995.98
             1999.67,2006.97 2021.01,2005.18 2023.72,1992.00
             2026.69,1977.64 2015.64,1965.04 2010.00,1953.00
             2010.00,1953.00 2008.00,1953.00 2008.00,1953.00 Z
           M 1832.00,1972.00
           C 1826.36,1978.29 1820.28,1989.14 1817.01,1997.00
             1810.43,2012.82 1800.00,2042.34 1824.00,2048.84
             1827.08,2049.68 1829.80,2050.10 1833.00,2049.91
             1836.03,2049.72 1839.27,2048.91 1842.00,2047.60
             1847.15,2045.12 1851.68,2040.56 1853.35,2035.00
             1853.97,2032.97 1853.97,2031.09 1854.00,2029.00
             1854.16,2016.49 1852.92,2008.39 1847.19,1997.00
             1847.19,1997.00 1841.31,1987.00 1841.31,1987.00
             1838.29,1981.49 1836.82,1976.24 1832.00,1972.00 Z
           M 2057.00,2021.00
           C 2049.09,2034.96 2039.34,2062.94 2040.04,2079.00
             2040.51,2089.87 2045.50,2100.37 2058.00,2099.87
             2069.29,2099.42 2074.75,2087.93 2074.99,2078.00
             2075.41,2060.59 2070.82,2049.57 2064.28,2034.00
             2064.28,2034.00 2059.00,2021.00 2059.00,2021.00
             2059.00,2021.00 2057.00,2021.00 2057.00,2021.00 Z" />
</svg>
