<svg width="4" height="6" viewBox="0 0 4 6" fill="none" xmlns="http://www.w3.org/2000/svg">
<path d="M1.93334 0.607368L1.89667 0.610568L1.83667 0.616668H1.8C1.7487 0.616734 1.652 0.640768 1.6 0.653768L1.48 0.685834L1.41667 0.713301L1.32 0.751034L1.25333 0.785434L1.12333 0.853135L1.04667 0.910968L1.00667 0.939235L0.967235 0.963635L0.886702 1.03367L0.859702 1.06333L0.827235 1.09667L0.795602 1.13667L0.768202 1.16667L0.735268 1.21L0.689168 1.26667C0.665002 1.2985 0.570435 1.4479 0.551635 1.48333L0.525835 1.54L0.503502 1.58L0.453335 1.71667L0.388068 1.92L0.379502 1.96L0.337635 2.09667L0.317235 2.22667L0.309435 2.33667L0.293335 2.46V2.54L0.296668 2.58333V2.72667L0.293335 2.78333V2.88L0.296535 2.92V2.96667L0.299868 3.00667V3.04333L0.303335 3.09333C0.303468 3.177 0.320301 3.2764 0.332335 3.36L0.337235 3.41667C0.342702 3.47313 0.349635 3.5493 0.363868 3.60333L0.388902 3.68L0.414001 3.76L0.563802 4.08333L0.604235 4.17667C0.654002 4.27623 0.773168 4.4734 0.838068 4.56333L0.973335 4.73L1.0317 4.80667L1.0507 4.83333L1.1 4.88333L1.15907 4.94667C1.2201 5.0163 1.28103 5.08737 1.35 5.14943L1.42333 5.208C1.44827 5.2279 1.50787 5.27533 1.53333 5.28893C1.59843 5.32367 1.68187 5.34347 1.75333 5.36123C1.79213 5.3709 1.86577 5.38953 1.90333 5.39L2.02334 5.39413H2.06667L2.20334 5.38057C2.237 5.37733 2.2774 5.37587 2.31 5.36653C2.36147 5.3518 2.47437 5.30867 2.52 5.2832L2.64334 5.19877L2.72 5.1397L2.7503 5.10667L2.78567 5.07L2.83 5.01333L2.88427 4.95L2.9618 4.86333L3.014 4.79667L3.11194 4.67L3.1384 4.62667L3.2114 4.51667L3.28114 4.40667L3.3255 4.34333L3.34954 4.29L3.3842 4.21667L3.4143 4.16L3.4777 4.02667L3.4985 3.98333L3.5135 3.94L3.5735 3.77L3.59847 3.71L3.60813 3.67667L3.62563 3.62667L3.64187 3.58667L3.67087 3.49333L3.68153 3.43L3.6981 3.33667C3.7073 3.28187 3.73327 3.1723 3.73334 3.12333V3.02667L3.73594 2.98333V2.94L3.74 2.88V2.81667L3.74334 2.76333V2.65667L3.73987 2.60667V2.56333L3.73667 2.53L3.72723 2.43333L3.72233 2.36667L3.7107 2.31333L3.69084 2.21L3.66694 2.06667L3.655 1.99667L3.63807 1.94L3.5881 1.78333L3.5577 1.68667L3.47927 1.50667L3.45457 1.45333L3.39223 1.35667L3.33854 1.27333L3.28237 1.1997L3.2549 1.16L3.16403 1.05333C3.15107 1.0381 3.15077 1.03113 3.1332 1.01347L3.09 0.975268L3.05334 0.941735L2.96667 0.883201L2.86 0.804868L2.82334 0.785634L2.77334 0.758435L2.7 0.735068L2.62667 0.701034L2.56667 0.679168C2.4797 0.651268 2.3775 0.638868 2.28667 0.626234C2.19994 0.614168 2.11427 0.606668 2.02667 0.607368H1.93334ZM2.15334 0.830001V0.986668L2.15 1.03667V1.41L2.14667 1.46667V1.58333H2.26334L2.32 1.58667H2.48V1.87333H2.37667L2.32334 1.87H2.14667L2.14334 1.91667V2.14H1.88667C1.88003 2.14 1.8673 2.14077 1.862 2.1366C1.85357 2.1299 1.85667 2.08527 1.85667 2.07333V1.97333L1.86 1.92V1.86667H1.67667L1.62 1.86333H1.48333V1.57667H1.56333L1.61667 1.58H1.86V1.52333L1.86333 1.47333V1.10333L1.86667 1.04667V0.830001H2.15334ZM2.78334 2.16713H2.84C2.8877 2.16673 2.9537 2.18227 2.99334 2.20947C3.00624 2.2183 3.0319 2.24183 3.04334 2.25333C3.0666 2.2768 3.0916 2.3121 3.10303 2.34333C3.1167 2.38077 3.1134 2.43017 3.11334 2.47C3.1133 2.49637 3.107 2.53303 3.09527 2.55667L3.0811 2.58L3.05797 2.62L3.0344 2.64667L3.00524 2.68277C2.9684 2.72173 2.88604 2.77583 2.83334 2.78773C2.81804 2.7912 2.77664 2.7935 2.76 2.79333L2.72667 2.7903C2.69844 2.78837 2.68174 2.7909 2.65334 2.7797C2.618 2.7658 2.59944 2.75087 2.57 2.7276C2.53774 2.70213 2.50677 2.674 2.48313 2.64C2.47383 2.6266 2.47094 2.6144 2.46354 2.6L2.44447 2.56333C2.43247 2.53533 2.41797 2.4737 2.4168 2.44333C2.41594 2.42087 2.42154 2.40147 2.42667 2.38C2.43184 2.3584 2.43673 2.3393 2.44817 2.32C2.491 2.2478 2.5792 2.1976 2.66 2.18073L2.70667 2.1761L2.74 2.17057L2.78334 2.16713ZM1.15667 2.1738H1.27333L1.33333 2.17907L1.39333 2.1878C1.43507 2.19797 1.49747 2.23167 1.5261 2.26333C1.5333 2.27133 1.55667 2.3012 1.5615 2.31L1.57623 2.34667C1.59413 2.39287 1.5959 2.4012 1.60057 2.45C1.6014 2.4587 1.60317 2.4641 1.60264 2.47333C1.60134 2.49637 1.5934 2.5182 1.58693 2.54C1.5695 2.5988 1.53277 2.67433 1.4861 2.71493L1.45 2.73873L1.42333 2.75823C1.36847 2.78997 1.3086 2.79737 1.24667 2.79667C1.21197 2.79623 1.19143 2.78967 1.16 2.7767C1.1059 2.75437 1.08457 2.73813 1.04277 2.69807C1.0226 2.67877 1.00427 2.6602 0.988768 2.63667L0.974401 2.61C0.956335 2.58037 0.947368 2.5667 0.934902 2.53333C0.928468 2.51607 0.905102 2.4616 0.904102 2.44667C0.903302 2.4352 0.908502 2.42463 0.909668 2.41333C0.911468 2.39627 0.917068 2.35543 0.921735 2.34C0.935368 2.29457 0.978435 2.2412 1.01667 2.2139C1.04037 2.197 1.0876 2.1814 1.11667 2.17763L1.15667 2.1738ZM1.52667 3.71V4.58667C1.52663 4.60913 1.5283 4.6162 1.50333 4.61667L1.42 4.61333H1.34V3.73667C1.34003 3.7142 1.33837 3.70713 1.36333 3.70683H1.41L1.45 3.71H1.52667ZM2.66667 3.71333V3.88L2.66334 3.93V4.31333L2.66 4.37V4.57333L2.47334 4.57667V4.44333L2.47667 4.39333V4.01L2.48 3.95333V3.74C2.48004 3.71753 2.47837 3.71047 2.50334 3.71L2.58334 3.71333H2.66667ZM2.09334 3.94V4.03333L2.09 4.08333V4.24667L2.08667 4.30333V4.48L2.08334 4.53V4.72333L2.08014 4.75667V4.79333L2.07667 4.89667H1.89667L1.89333 4.80333L1.89667 4.75333V4.57667L1.9 4.52667V4.34333L1.90333 4.28667V4.10667L1.90667 4.05V3.93667H2.02L2.09334 3.94Z" fill="#AE111E" stroke="black" stroke-width="0.00333333"/>
</svg>
