<?xml version="1.0" encoding="UTF-8" standalone="no"?>
<!DOCTYPE svg PUBLIC "-//W3C//DTD SVG 20010904//EN"
              "http://www.w3.org/TR/2001/REC-SVG-20010904/DTD/svg10.dtd">

<svg xmlns="http://www.w3.org/2000/svg"
     width="12.8in" height="7.2in"
     viewBox="0 0 3840 2160">
  <path id="Selection #1"
        fill="none" stroke="black" stroke-width="1"
        d="M 1780.00,482.21
           C 1780.00,482.21 1769.00,483.17 1769.00,483.17
             1769.00,483.17 1751.00,485.00 1751.00,485.00
             1751.00,485.00 1740.00,485.00 1740.00,485.00
             1724.61,485.02 1695.60,492.23 1680.00,496.13
             1680.00,496.13 1644.00,505.75 1644.00,505.75
             1644.00,505.75 1625.00,513.99 1625.00,513.99
             1625.00,513.99 1596.00,525.31 1596.00,525.31
             1596.00,525.31 1576.00,535.63 1576.00,535.63
             1576.00,535.63 1537.00,555.94 1537.00,555.94
             1537.00,555.94 1514.00,573.29 1514.00,573.29
             1514.00,573.29 1502.00,581.77 1502.00,581.77
             1502.00,581.77 1490.17,589.09 1490.17,589.09
             1490.17,589.09 1466.01,610.10 1466.01,610.10
             1466.01,610.10 1457.91,619.00 1457.91,619.00
             1457.91,619.00 1448.17,629.00 1448.17,629.00
             1448.17,629.00 1438.68,641.00 1438.68,641.00
             1438.68,641.00 1430.46,650.00 1430.46,650.00
             1430.46,650.00 1420.58,663.00 1420.58,663.00
             1420.58,663.00 1406.75,680.00 1406.75,680.00
             1399.50,689.55 1371.13,734.37 1365.49,745.00
             1365.49,745.00 1357.75,762.00 1357.75,762.00
             1357.75,762.00 1351.05,774.00 1351.05,774.00
             1351.05,774.00 1336.00,815.00 1336.00,815.00
             1336.00,815.00 1316.42,876.00 1316.42,876.00
             1316.42,876.00 1313.85,888.00 1313.85,888.00
             1313.85,888.00 1301.29,929.00 1301.29,929.00
             1301.29,929.00 1295.17,968.00 1295.17,968.00
             1295.17,968.00 1292.83,1001.00 1292.83,1001.00
             1292.83,1001.00 1288.00,1038.00 1288.00,1038.00
             1288.00,1038.00 1288.00,1062.00 1288.00,1062.00
             1288.00,1062.00 1289.00,1075.00 1289.00,1075.00
             1289.00,1075.00 1289.00,1118.00 1289.00,1118.00
             1289.00,1118.00 1288.00,1135.00 1288.00,1135.00
             1288.00,1135.00 1288.00,1164.00 1288.00,1164.00
             1288.00,1164.00 1288.96,1176.00 1288.96,1176.00
             1288.96,1176.00 1288.96,1190.00 1288.96,1190.00
             1288.96,1190.00 1289.96,1202.00 1289.96,1202.00
             1289.96,1202.00 1289.96,1213.00 1289.96,1213.00
             1289.96,1213.00 1291.00,1228.00 1291.00,1228.00
             1291.04,1253.10 1296.09,1282.92 1299.70,1308.00
             1299.70,1308.00 1301.17,1325.00 1301.17,1325.00
             1302.81,1341.94 1304.89,1364.79 1309.16,1381.00
             1309.16,1381.00 1316.67,1404.00 1316.67,1404.00
             1316.67,1404.00 1324.20,1428.00 1324.20,1428.00
             1324.20,1428.00 1369.14,1525.00 1369.14,1525.00
             1369.14,1525.00 1381.27,1553.00 1381.27,1553.00
             1396.20,1582.87 1431.95,1642.02 1451.42,1669.00
             1451.42,1669.00 1492.00,1719.00 1492.00,1719.00
             1492.00,1719.00 1509.51,1742.00 1509.51,1742.00
             1509.51,1742.00 1515.21,1750.00 1515.21,1750.00
             1515.21,1750.00 1530.00,1765.00 1530.00,1765.00
             1530.00,1765.00 1547.72,1784.00 1547.72,1784.00
             1566.03,1804.89 1584.31,1826.21 1605.00,1844.83
             1605.00,1844.83 1627.00,1862.40 1627.00,1862.40
             1634.48,1868.37 1652.36,1882.60 1660.00,1886.68
             1679.53,1897.10 1704.56,1903.04 1726.00,1908.37
             1737.64,1911.27 1759.73,1916.86 1771.00,1917.00
             1771.00,1917.00 1807.00,1918.24 1807.00,1918.24
             1807.00,1918.24 1820.00,1918.24 1820.00,1918.24
             1820.00,1918.24 1861.00,1914.17 1861.00,1914.17
             1871.10,1913.20 1883.22,1912.76 1893.00,1909.96
             1908.44,1905.54 1942.31,1892.60 1956.00,1884.96
             1956.00,1884.96 1993.00,1859.63 1993.00,1859.63
             1993.00,1859.63 2016.00,1841.91 2016.00,1841.91
             2016.00,1841.91 2025.09,1832.00 2025.09,1832.00
             2025.09,1832.00 2035.70,1821.00 2035.70,1821.00
             2035.70,1821.00 2049.00,1804.00 2049.00,1804.00
             2049.00,1804.00 2065.28,1785.00 2065.28,1785.00
             2065.28,1785.00 2088.54,1759.00 2088.54,1759.00
             2088.54,1759.00 2104.20,1739.00 2104.20,1739.00
             2104.20,1739.00 2133.58,1701.00 2133.58,1701.00
             2133.58,1701.00 2141.52,1688.00 2141.52,1688.00
             2141.52,1688.00 2163.42,1655.00 2163.42,1655.00
             2163.42,1655.00 2184.34,1622.00 2184.34,1622.00
             2184.34,1622.00 2197.65,1603.00 2197.65,1603.00
             2197.65,1603.00 2204.86,1587.00 2204.86,1587.00
             2204.86,1587.00 2215.26,1565.00 2215.26,1565.00
             2215.26,1565.00 2224.29,1548.00 2224.29,1548.00
             2224.29,1548.00 2243.31,1508.00 2243.31,1508.00
             2243.31,1508.00 2249.55,1495.00 2249.55,1495.00
             2249.55,1495.00 2254.05,1482.00 2254.05,1482.00
             2254.05,1482.00 2272.05,1431.00 2272.05,1431.00
             2272.05,1431.00 2279.54,1413.00 2279.54,1413.00
             2279.54,1413.00 2282.44,1403.00 2282.44,1403.00
             2282.44,1403.00 2287.69,1388.00 2287.69,1388.00
             2287.69,1388.00 2292.56,1376.00 2292.56,1376.00
             2292.56,1376.00 2301.26,1348.00 2301.26,1348.00
             2301.26,1348.00 2304.46,1329.00 2304.46,1329.00
             2304.46,1329.00 2309.43,1301.00 2309.43,1301.00
             2312.19,1284.56 2319.98,1251.69 2320.00,1237.00
             2320.00,1237.00 2320.00,1208.00 2320.00,1208.00
             2320.00,1208.00 2320.78,1195.00 2320.78,1195.00
             2320.78,1195.00 2320.78,1182.00 2320.78,1182.00
             2320.78,1182.00 2322.00,1164.00 2322.00,1164.00
             2322.00,1164.00 2322.00,1145.00 2322.00,1145.00
             2322.00,1145.00 2323.00,1129.00 2323.00,1129.00
             2323.00,1129.00 2323.00,1097.00 2323.00,1097.00
             2323.00,1097.00 2321.96,1082.00 2321.96,1082.00
             2321.96,1082.00 2321.96,1069.00 2321.96,1069.00
             2321.96,1069.00 2321.00,1059.00 2321.00,1059.00
             2321.00,1059.00 2318.17,1030.00 2318.17,1030.00
             2318.17,1030.00 2316.70,1010.00 2316.70,1010.00
             2316.70,1010.00 2313.21,994.00 2313.21,994.00
             2313.21,994.00 2307.25,963.00 2307.25,963.00
             2307.25,963.00 2300.08,920.00 2300.08,920.00
             2300.08,920.00 2296.50,899.00 2296.50,899.00
             2296.50,899.00 2291.42,882.00 2291.42,882.00
             2291.42,882.00 2276.43,835.00 2276.43,835.00
             2276.43,835.00 2267.31,806.00 2267.31,806.00
             2267.31,806.00 2243.78,752.00 2243.78,752.00
             2243.78,752.00 2236.37,736.00 2236.37,736.00
             2236.37,736.00 2217.67,707.00 2217.67,707.00
             2217.67,707.00 2201.56,682.00 2201.56,682.00
             2201.56,682.00 2184.71,659.91 2184.71,659.91
             2184.71,659.91 2176.47,648.00 2176.47,648.00
             2176.47,648.00 2149.21,616.00 2149.21,616.00
             2145.32,611.43 2145.23,609.34 2139.96,604.04
             2139.96,604.04 2127.00,592.58 2127.00,592.58
             2127.00,592.58 2116.00,582.52 2116.00,582.52
             2116.00,582.52 2090.00,564.96 2090.00,564.96
             2090.00,564.96 2058.00,541.46 2058.00,541.46
             2058.00,541.46 2047.00,535.69 2047.00,535.69
             2047.00,535.69 2032.00,527.53 2032.00,527.53
             2032.00,527.53 2010.00,520.52 2010.00,520.52
             2010.00,520.52 1988.00,510.31 1988.00,510.31
             1988.00,510.31 1970.00,503.75 1970.00,503.75
             1943.91,495.38 1913.25,491.66 1886.00,487.87
             1859.98,484.25 1834.28,482.00 1808.00,482.21
             1808.00,482.21 1780.00,482.21 1780.00,482.21 Z
           M 1846.00,549.00
           C 1846.00,549.00 1846.00,596.00 1846.00,596.00
             1846.00,596.00 1845.00,611.00 1845.00,611.00
             1845.00,611.00 1845.00,723.00 1845.00,723.00
             1845.00,723.00 1844.00,740.00 1844.00,740.00
             1844.00,740.00 1844.00,775.00 1844.00,775.00
             1844.00,775.00 1879.00,775.00 1879.00,775.00
             1879.00,775.00 1896.00,776.00 1896.00,776.00
             1896.00,776.00 1944.00,776.00 1944.00,776.00
             1944.00,776.00 1944.00,862.00 1944.00,862.00
             1944.00,862.00 1913.00,862.00 1913.00,862.00
             1913.00,862.00 1897.00,861.00 1897.00,861.00
             1897.00,861.00 1844.00,861.00 1844.00,861.00
             1844.00,861.00 1843.00,875.00 1843.00,875.00
             1843.00,875.00 1843.00,942.00 1843.00,942.00
             1843.00,942.00 1766.00,942.00 1766.00,942.00
             1764.01,942.00 1760.19,942.23 1758.60,940.98
             1756.07,938.97 1757.00,925.58 1757.00,922.00
             1757.00,922.00 1757.00,892.00 1757.00,892.00
             1757.00,892.00 1758.00,876.00 1758.00,876.00
             1758.00,876.00 1758.00,860.00 1758.00,860.00
             1758.00,860.00 1703.00,860.00 1703.00,860.00
             1703.00,860.00 1686.00,859.00 1686.00,859.00
             1686.00,859.00 1645.00,859.00 1645.00,859.00
             1645.00,859.00 1645.00,773.00 1645.00,773.00
             1645.00,773.00 1669.00,773.00 1669.00,773.00
             1669.00,773.00 1685.00,774.00 1685.00,774.00
             1685.00,774.00 1758.00,774.00 1758.00,774.00
             1758.00,774.00 1758.00,757.00 1758.00,757.00
             1758.00,757.00 1759.00,742.00 1759.00,742.00
             1759.00,742.00 1759.00,631.00 1759.00,631.00
             1759.00,631.00 1760.00,614.00 1760.00,614.00
             1760.00,614.00 1760.00,549.00 1760.00,549.00
             1760.00,549.00 1846.00,549.00 1846.00,549.00 Z
           M 2035.00,950.14
           C 2035.00,950.14 2052.00,950.14 2052.00,950.14
             2066.31,950.02 2086.11,954.68 2098.00,962.84
             2101.87,965.49 2109.57,972.55 2113.00,976.00
             2119.98,983.04 2127.48,993.63 2130.91,1003.00
             2135.01,1014.23 2134.02,1029.05 2134.00,1041.00
             2133.99,1048.91 2132.10,1059.91 2128.58,1067.00
             2128.58,1067.00 2124.33,1074.00 2124.33,1074.00
             2124.33,1074.00 2117.39,1086.00 2117.39,1086.00
             2117.39,1086.00 2110.32,1094.00 2110.32,1094.00
             2110.32,1094.00 2101.57,1104.83 2101.57,1104.83
             2090.52,1116.52 2065.81,1132.75 2050.00,1136.32
             2045.41,1137.36 2032.99,1138.05 2028.00,1138.00
             2028.00,1138.00 2018.00,1137.09 2018.00,1137.09
             2009.53,1136.51 2004.52,1137.27 1996.00,1133.91
             1985.40,1129.74 1979.83,1125.26 1971.00,1118.28
             1961.32,1110.64 1952.03,1102.20 1944.94,1092.00
             1942.15,1087.98 1941.28,1084.32 1939.06,1080.00
             1939.06,1080.00 1933.34,1069.00 1933.34,1069.00
             1929.74,1060.60 1925.39,1042.11 1925.04,1033.00
             1924.78,1026.26 1926.46,1020.44 1928.00,1014.00
             1929.55,1007.52 1931.02,1001.79 1934.45,996.00
             1947.30,974.34 1973.76,959.28 1998.00,954.22
             1998.00,954.22 2012.00,952.83 2012.00,952.83
             2012.00,952.83 2022.00,951.17 2022.00,951.17
             2022.00,951.17 2035.00,950.14 2035.00,950.14 Z
           M 1547.00,952.14
           C 1547.00,952.14 1582.00,952.14 1582.00,952.14
             1582.00,952.14 1600.00,953.72 1600.00,953.72
             1600.00,953.72 1618.00,956.34 1618.00,956.34
             1630.52,959.39 1649.24,969.50 1657.83,979.00
             1659.99,981.40 1667.00,990.36 1668.45,993.00
             1668.45,993.00 1672.87,1004.00 1672.87,1004.00
             1678.24,1017.86 1678.77,1020.36 1680.17,1035.00
             1680.42,1037.61 1680.95,1039.23 1680.79,1042.00
             1680.40,1048.91 1678.02,1055.46 1676.08,1062.00
             1670.85,1079.64 1659.83,1102.30 1645.83,1114.48
             1645.83,1114.48 1635.00,1121.62 1635.00,1121.62
             1635.00,1121.62 1627.00,1127.47 1627.00,1127.47
             1610.54,1136.99 1592.58,1139.21 1574.00,1139.00
             1563.59,1138.87 1557.43,1136.90 1548.00,1133.01
             1531.77,1126.31 1525.37,1121.44 1512.83,1109.42
             1506.78,1103.63 1501.28,1098.06 1496.63,1091.00
             1496.63,1091.00 1492.32,1083.00 1492.32,1083.00
             1486.90,1074.11 1484.21,1070.01 1480.47,1060.00
             1478.54,1054.82 1471.53,1038.48 1471.23,1034.00
             1470.99,1030.56 1472.55,1027.39 1472.90,1024.00
             1473.44,1018.88 1475.12,1006.63 1476.52,1002.00
             1480.61,988.37 1493.53,972.36 1505.00,964.17
             1512.11,959.10 1526.28,954.42 1535.00,953.29
             1535.00,953.29 1547.00,952.14 1547.00,952.14 Z
           M 1658.00,1413.00
           C 1658.00,1413.00 1658.00,1676.00 1658.00,1676.00
             1657.99,1682.74 1658.49,1684.86 1651.00,1685.00
             1651.00,1685.00 1626.00,1684.00 1626.00,1684.00
             1626.00,1684.00 1602.00,1684.00 1602.00,1684.00
             1602.00,1684.00 1602.00,1421.00 1602.00,1421.00
             1602.01,1414.26 1601.51,1412.14 1609.00,1412.05
             1609.00,1412.05 1623.00,1412.05 1623.00,1412.05
             1623.00,1412.05 1635.00,1413.00 1635.00,1413.00
             1635.00,1413.00 1658.00,1413.00 1658.00,1413.00 Z
           M 2000.00,1414.00
           C 2000.00,1414.00 2000.00,1464.00 2000.00,1464.00
             2000.00,1464.00 1999.00,1479.00 1999.00,1479.00
             1999.00,1479.00 1999.00,1594.00 1999.00,1594.00
             1999.00,1594.00 1998.00,1611.00 1998.00,1611.00
             1998.00,1611.00 1998.00,1672.00 1998.00,1672.00
             1998.00,1672.00 1942.00,1673.00 1942.00,1673.00
             1942.00,1673.00 1942.00,1633.00 1942.00,1633.00
             1942.00,1633.00 1943.00,1618.00 1943.00,1618.00
             1943.00,1618.00 1943.00,1503.00 1943.00,1503.00
             1943.00,1503.00 1944.00,1486.00 1944.00,1486.00
             1944.00,1486.00 1944.00,1422.00 1944.00,1422.00
             1944.01,1415.26 1943.51,1413.14 1951.00,1413.00
             1951.00,1413.00 1975.00,1414.00 1975.00,1414.00
             1975.00,1414.00 2000.00,1414.00 2000.00,1414.00 Z
           M 1828.00,1482.00
           C 1828.00,1482.00 1828.00,1510.00 1828.00,1510.00
             1828.00,1510.00 1827.00,1525.00 1827.00,1525.00
             1827.00,1525.00 1827.00,1574.00 1827.00,1574.00
             1827.00,1574.00 1826.00,1591.00 1826.00,1591.00
             1826.00,1591.00 1826.00,1644.00 1826.00,1644.00
             1826.00,1644.00 1825.00,1659.00 1825.00,1659.00
             1825.00,1659.00 1825.00,1717.00 1825.00,1717.00
             1825.00,1717.00 1824.04,1727.00 1824.04,1727.00
             1824.04,1727.00 1824.04,1738.00 1824.04,1738.00
             1824.04,1738.00 1823.00,1769.00 1823.00,1769.00
             1823.00,1769.00 1769.00,1769.00 1769.00,1769.00
             1769.00,1769.00 1768.00,1741.00 1768.00,1741.00
             1768.00,1741.00 1769.00,1726.00 1769.00,1726.00
             1769.00,1726.00 1769.00,1673.00 1769.00,1673.00
             1769.00,1673.00 1770.00,1658.00 1770.00,1658.00
             1770.00,1658.00 1770.00,1603.00 1770.00,1603.00
             1770.00,1603.00 1771.00,1586.00 1771.00,1586.00
             1771.00,1586.00 1771.00,1532.00 1771.00,1532.00
             1771.00,1532.00 1772.00,1515.00 1772.00,1515.00
             1772.00,1515.00 1772.00,1481.00 1772.00,1481.00
             1772.00,1481.00 1806.00,1481.00 1806.00,1481.00
             1806.00,1481.00 1828.00,1482.00 1828.00,1482.00 Z" />
</svg>
