<?xml version="1.0" encoding="UTF-8" standalone="no"?>
<!DOCTYPE svg PUBLIC "-//W3C//DTD SVG 20010904//EN"
              "http://www.w3.org/TR/2001/REC-SVG-20010904/DTD/svg10.dtd">

<svg xmlns="http://www.w3.org/2000/svg"
     width="12.8in" height="7.2in"
     viewBox="0 0 3840 2160">
  <path id="Selection"
        fill="none" stroke="black" stroke-width="1"
        d="M 1011.00,94.61
           C 996.54,96.48 987.56,97.19 974.00,104.32
             963.62,109.78 960.64,113.28 952.00,120.19
             952.00,120.19 942.00,128.09 942.00,128.09
             930.96,138.38 926.02,151.09 926.00,166.00
             926.00,166.00 926.00,208.00 926.00,208.00
             926.00,208.00 925.00,222.00 925.00,222.00
             925.00,222.00 925.00,315.00 925.00,315.00
             925.00,315.00 924.00,330.00 924.00,330.00
             924.00,330.00 924.00,413.00 924.00,413.00
             924.00,413.00 923.00,428.00 923.00,428.00
             923.00,428.00 923.00,523.00 923.00,523.00
             923.00,523.00 922.00,538.00 922.00,538.00
             922.00,538.00 922.00,619.00 922.00,619.00
             922.00,619.00 921.00,634.00 921.00,634.00
             921.00,634.00 921.00,727.00 921.00,727.00
             921.00,727.00 920.00,742.00 920.00,742.00
             920.00,742.00 920.00,835.00 920.00,835.00
             920.00,835.00 919.00,850.00 919.00,850.00
             919.00,850.00 919.00,933.00 919.00,933.00
             919.00,933.00 918.00,950.00 918.00,950.00
             918.00,950.00 918.00,977.00 918.00,977.00
             918.00,977.00 919.75,995.00 919.75,995.00
             919.75,995.00 919.75,1002.00 919.75,1002.00
             919.75,1002.00 919.75,1011.00 919.75,1011.00
             919.20,1017.60 918.02,1016.18 918.00,1026.00
             918.00,1026.00 918.00,1096.00 918.00,1096.00
             918.00,1096.00 917.00,1111.00 917.00,1111.00
             917.00,1111.00 917.00,1266.00 917.00,1266.00
             917.00,1266.00 916.00,1281.00 916.00,1281.00
             916.00,1281.00 916.00,1441.00 916.00,1441.00
             916.00,1441.00 915.00,1456.00 915.00,1456.00
             915.00,1456.00 915.00,1611.00 915.00,1611.00
             915.00,1611.00 914.00,1628.00 914.00,1628.00
             914.00,1628.00 914.00,1687.00 914.00,1687.00
             914.03,1704.48 921.37,1710.37 933.00,1722.00
             933.00,1722.00 950.00,1739.00 950.00,1739.00
             950.00,1739.00 1055.00,1844.00 1055.00,1844.00
             1055.00,1844.00 1099.00,1888.00 1099.00,1888.00
             1099.00,1888.00 1122.00,1910.82 1122.00,1910.82
             1122.00,1910.82 1129.00,1916.32 1129.00,1916.32
             1133.19,1919.83 1147.59,1934.15 1151.00,1935.40
             1152.94,1936.12 1155.91,1936.00 1158.00,1936.09
             1158.00,1936.09 1170.00,1936.09 1170.00,1936.09
             1177.01,1936.92 1175.07,1937.98 1185.00,1938.00
             1185.00,1938.00 1951.00,1938.00 1951.00,1938.00
             1951.00,1938.00 2717.00,1938.00 2717.00,1938.00
             2721.16,1937.99 2723.93,1938.05 2728.00,1936.78
             2746.04,1931.14 2746.00,1916.42 2746.00,1901.00
             2746.00,1901.00 2746.00,1880.00 2746.00,1880.00
             2746.00,1880.00 2745.00,1865.00 2745.00,1865.00
             2745.00,1865.00 2745.00,1790.00 2745.00,1790.00
             2745.00,1790.00 2744.00,1775.00 2744.00,1775.00
             2744.00,1775.00 2744.00,1695.00 2744.00,1695.00
             2744.00,1695.00 2743.00,1680.00 2743.00,1680.00
             2743.00,1680.00 2743.00,1605.00 2743.00,1605.00
             2743.00,1605.00 2742.00,1590.00 2742.00,1590.00
             2742.00,1590.00 2742.00,1515.00 2742.00,1515.00
             2742.00,1515.00 2741.00,1500.00 2741.00,1500.00
             2741.00,1500.00 2741.00,1420.00 2741.00,1420.00
             2741.00,1420.00 2740.00,1405.00 2740.00,1405.00
             2740.00,1405.00 2740.00,1330.00 2740.00,1330.00
             2740.00,1330.00 2739.00,1315.00 2739.00,1315.00
             2739.00,1315.00 2739.00,1235.00 2739.00,1235.00
             2739.00,1235.00 2738.00,1218.00 2738.00,1218.00
             2738.00,1218.00 2738.00,1180.00 2738.00,1180.00
             2737.99,1171.66 2737.49,1169.54 2733.75,1162.00
             2726.19,1146.74 2718.25,1144.06 2706.00,1133.71
             2706.00,1133.71 2687.00,1118.54 2687.00,1118.54
             2687.00,1118.54 2672.00,1105.67 2672.00,1105.67
             2672.00,1105.67 2656.00,1093.54 2656.00,1093.54
             2656.00,1093.54 2646.00,1084.46 2646.00,1084.46
             2646.00,1084.46 2626.00,1069.33 2626.00,1069.33
             2626.00,1069.33 2611.00,1056.46 2611.00,1056.46
             2611.00,1056.46 2582.00,1033.54 2582.00,1033.54
             2582.00,1033.54 2559.00,1014.63 2559.00,1014.63
             2552.23,1009.54 2547.23,1005.96 2541.00,1000.03
             2538.91,998.05 2535.67,995.56 2534.59,992.91
             2531.35,984.96 2533.99,971.35 2534.00,963.00
             2534.00,963.00 2534.00,897.00 2534.00,897.00
             2534.00,897.00 2533.00,880.00 2533.00,880.00
             2533.00,880.00 2533.00,701.00 2533.00,701.00
             2533.00,701.00 2532.00,686.00 2532.00,686.00
             2532.00,686.00 2532.00,505.00 2532.00,505.00
             2532.00,505.00 2531.00,490.00 2531.00,490.00
             2531.00,490.00 2531.00,309.00 2531.00,309.00
             2531.00,309.00 2530.00,294.00 2530.00,294.00
             2530.00,294.00 2530.00,198.00 2530.00,198.00
             2530.00,198.00 2530.96,185.00 2530.96,185.00
             2531.21,177.17 2528.81,163.52 2526.33,156.00
             2523.41,147.13 2520.54,140.77 2515.25,133.00
             2501.76,113.18 2478.91,98.44 2455.00,95.29
             2455.00,95.29 2440.00,94.04 2440.00,94.04
             2440.00,94.04 2432.00,94.82 2432.00,94.82
             2432.00,94.82 2422.00,94.04 2422.00,94.04
             2422.00,94.04 2414.00,94.82 2414.00,94.82
             2414.00,94.82 2405.00,94.03 2405.00,94.03
             2405.00,94.03 2395.00,94.79 2395.00,94.79
             2391.58,94.62 2390.14,93.86 2386.00,94.09
             2386.00,94.09 2379.00,94.82 2379.00,94.82
             2379.00,94.82 2369.00,94.04 2369.00,94.04
             2369.00,94.04 2361.00,94.82 2361.00,94.82
             2361.00,94.82 2352.00,94.03 2352.00,94.03
             2352.00,94.03 2343.00,94.75 2343.00,94.75
             2343.00,94.75 2327.00,94.75 2327.00,94.75
             2327.00,94.75 2318.00,94.04 2318.00,94.04
             2318.00,94.04 2308.00,94.82 2308.00,94.82
             2308.00,94.82 2299.00,94.03 2299.00,94.03
             2299.00,94.03 2290.00,94.82 2290.00,94.82
             2290.00,94.82 2282.00,94.04 2282.00,94.04
             2282.00,94.04 2272.00,94.82 2272.00,94.82
             2272.00,94.82 2264.00,94.04 2264.00,94.04
             2264.00,94.04 2255.00,94.74 2255.00,94.74
             2255.00,94.74 2246.00,94.03 2246.00,94.03
             2246.00,94.03 2237.00,94.82 2237.00,94.82
             2237.00,94.82 2229.00,94.04 2229.00,94.04
             2229.00,94.04 2219.00,94.82 2219.00,94.82
             2219.00,94.82 2211.00,94.04 2211.00,94.04
             2211.00,94.04 2201.00,94.75 2201.00,94.75
             2201.00,94.75 2185.00,94.75 2185.00,94.75
             2185.00,94.75 2175.00,94.03 2175.00,94.03
             2175.00,94.03 2166.00,94.82 2166.00,94.82
             2166.00,94.82 2158.00,94.04 2158.00,94.04
             2158.00,94.04 2148.00,94.82 2148.00,94.82
             2148.00,94.82 2139.00,94.03 2139.00,94.03
             2139.00,94.03 2130.00,94.82 2130.00,94.82
             2130.00,94.82 2120.00,94.09 2120.00,94.09
             2120.00,94.09 2113.00,94.82 2113.00,94.82
             2113.00,94.82 2103.00,94.04 2103.00,94.04
             2103.00,94.04 2095.00,94.82 2095.00,94.82
             2095.00,94.82 2086.00,94.03 2086.00,94.03
             2086.00,94.03 2077.00,94.82 2077.00,94.82
             2077.00,94.82 2069.00,94.04 2069.00,94.04
             2069.00,94.04 2059.00,94.82 2059.00,94.82
             2059.00,94.82 2052.00,94.09 2052.00,94.09
             2047.86,93.86 2046.42,94.62 2043.00,94.79
             2043.00,94.79 2033.00,94.03 2033.00,94.03
             2033.00,94.03 2024.00,94.82 2024.00,94.82
             2024.00,94.82 2015.00,94.03 2015.00,94.03
             2015.00,94.03 2006.00,94.82 2006.00,94.82
             2006.00,94.82 1996.00,94.04 1996.00,94.04
             1996.00,94.04 1988.00,94.82 1988.00,94.82
             1988.00,94.82 1978.00,94.09 1978.00,94.09
             1978.00,94.09 1971.00,94.82 1971.00,94.82
             1971.00,94.82 1961.00,94.04 1961.00,94.04
             1961.00,94.04 1953.00,94.82 1953.00,94.82
             1953.00,94.82 1944.00,94.03 1944.00,94.03
             1944.00,94.03 1935.00,94.82 1935.00,94.82
             1935.00,94.82 1926.00,94.03 1926.00,94.03
             1926.00,94.03 1917.00,94.82 1917.00,94.82
             1917.00,94.82 1907.00,94.09 1907.00,94.09
             1907.00,94.09 1900.00,94.82 1900.00,94.82
             1900.00,94.82 1890.00,94.04 1890.00,94.04
             1890.00,94.04 1882.00,94.82 1882.00,94.82
             1882.00,94.82 1873.00,94.03 1873.00,94.03
             1873.00,94.03 1864.00,94.82 1864.00,94.82
             1864.00,94.82 1856.00,94.04 1856.00,94.04
             1856.00,94.04 1846.00,94.82 1846.00,94.82
             1846.00,94.82 1839.00,94.09 1839.00,94.09
             1839.00,94.09 1829.00,94.82 1829.00,94.82
             1829.00,94.82 1821.00,94.04 1821.00,94.04
             1821.00,94.04 1811.00,94.82 1811.00,94.82
             1811.00,94.82 1802.00,94.03 1802.00,94.03
             1802.00,94.03 1793.00,94.82 1793.00,94.82
             1793.00,94.82 1785.00,94.04 1785.00,94.04
             1785.00,94.04 1775.00,94.82 1775.00,94.82
             1775.00,94.82 1768.00,94.09 1768.00,94.09
             1763.86,93.86 1762.42,94.62 1759.00,94.79
             1759.00,94.79 1749.00,94.03 1749.00,94.03
             1749.00,94.03 1740.00,94.82 1740.00,94.82
             1740.00,94.82 1731.00,94.03 1731.00,94.03
             1731.00,94.03 1722.00,94.82 1722.00,94.82
             1722.00,94.82 1712.00,94.04 1712.00,94.04
             1712.00,94.04 1704.00,94.82 1704.00,94.82
             1704.00,94.82 1697.00,94.09 1697.00,94.09
             1697.00,94.09 1687.00,94.82 1687.00,94.82
             1687.00,94.82 1678.00,94.03 1678.00,94.03
             1678.00,94.03 1669.00,94.82 1669.00,94.82
             1669.00,94.82 1660.00,94.03 1660.00,94.03
             1660.00,94.03 1651.00,94.82 1651.00,94.82
             1651.00,94.82 1643.00,94.04 1643.00,94.04
             1643.00,94.04 1633.00,94.82 1633.00,94.82
             1633.00,94.82 1626.00,94.09 1626.00,94.09
             1621.86,93.86 1620.42,94.62 1617.00,94.79
             1617.00,94.79 1607.00,94.03 1607.00,94.03
             1607.00,94.03 1598.00,94.82 1598.00,94.82
             1598.00,94.82 1589.00,94.03 1589.00,94.03
             1589.00,94.03 1580.00,94.82 1580.00,94.82
             1580.00,94.82 1571.00,94.03 1571.00,94.03
             1571.00,94.03 1562.00,94.82 1562.00,94.82
             1562.00,94.82 1552.00,94.09 1552.00,94.09
             1552.00,94.09 1545.00,94.82 1545.00,94.82
             1545.00,94.82 1535.00,94.04 1535.00,94.04
             1535.00,94.04 1527.00,94.82 1527.00,94.82
             1527.00,94.82 1518.00,94.03 1518.00,94.03
             1518.00,94.03 1509.00,94.82 1509.00,94.82
             1509.00,94.82 1501.00,94.04 1501.00,94.04
             1501.00,94.04 1491.00,94.82 1491.00,94.82
             1491.00,94.82 1484.00,94.09 1484.00,94.09
             1484.00,94.09 1474.00,94.82 1474.00,94.82
             1474.00,94.82 1465.00,94.03 1465.00,94.03
             1465.00,94.03 1456.00,94.82 1456.00,94.82
             1456.00,94.82 1448.00,94.04 1448.00,94.04
             1448.00,94.04 1438.00,94.75 1438.00,94.75
             1438.00,94.75 1422.00,94.75 1422.00,94.75
             1422.00,94.75 1413.00,94.04 1413.00,94.04
             1413.00,94.04 1403.00,94.82 1403.00,94.82
             1403.00,94.82 1394.00,94.03 1394.00,94.03
             1394.00,94.03 1385.00,94.82 1385.00,94.82
             1385.00,94.82 1377.00,94.04 1377.00,94.04
             1377.00,94.04 1367.00,94.82 1367.00,94.82
             1367.00,94.82 1359.00,94.04 1359.00,94.04
             1359.00,94.04 1350.00,94.74 1350.00,94.74
             1350.00,94.74 1341.00,94.03 1341.00,94.03
             1341.00,94.03 1332.00,94.82 1332.00,94.82
             1332.00,94.82 1324.00,94.04 1324.00,94.04
             1324.00,94.04 1314.00,94.82 1314.00,94.82
             1314.00,94.82 1306.00,94.04 1306.00,94.04
             1306.00,94.04 1296.00,94.75 1296.00,94.75
             1296.00,94.75 1280.00,94.75 1280.00,94.75
             1280.00,94.75 1270.00,94.03 1270.00,94.03
             1270.00,94.03 1261.00,94.82 1261.00,94.82
             1261.00,94.82 1253.00,94.04 1253.00,94.04
             1253.00,94.04 1243.00,94.82 1243.00,94.82
             1243.00,94.82 1234.00,94.03 1234.00,94.03
             1234.00,94.03 1225.00,94.82 1225.00,94.82
             1225.00,94.82 1218.00,94.09 1218.00,94.09
             1218.00,94.09 1208.00,94.82 1208.00,94.82
             1208.00,94.82 1199.00,94.03 1199.00,94.03
             1199.00,94.03 1190.00,94.82 1190.00,94.82
             1190.00,94.82 1181.00,94.03 1181.00,94.03
             1181.00,94.03 1172.00,94.82 1172.00,94.82
             1172.00,94.82 1164.00,94.04 1164.00,94.04
             1164.00,94.04 1154.00,94.82 1154.00,94.82
             1154.00,94.82 1147.00,94.09 1147.00,94.09
             1147.00,94.09 1137.00,94.82 1137.00,94.82
             1137.00,94.82 1129.00,94.04 1129.00,94.04
             1129.00,94.04 1119.00,94.82 1119.00,94.82
             1119.00,94.82 1110.00,94.03 1110.00,94.03
             1110.00,94.03 1101.00,94.82 1101.00,94.82
             1101.00,94.82 1093.00,94.04 1093.00,94.04
             1093.00,94.04 1083.00,94.82 1083.00,94.82
             1083.00,94.82 1076.00,94.09 1076.00,94.09
             1071.86,93.86 1070.42,94.62 1067.00,94.79
             1067.00,94.79 1057.00,94.03 1057.00,94.03
             1057.00,94.03 1048.00,94.82 1048.00,94.82
             1048.00,94.82 1039.00,94.03 1039.00,94.03
             1039.00,94.03 1029.00,94.61 1029.00,94.61
             1022.26,94.44 1018.06,93.56 1011.00,94.61 Z
           M 2431.00,386.00
           C 2431.00,386.00 2431.00,453.00 2431.00,453.00
             2431.00,453.00 2432.00,468.00 2432.00,468.00
             2432.00,468.00 2432.00,649.00 2432.00,649.00
             2432.00,649.00 2433.00,664.00 2433.00,664.00
             2433.00,664.00 2433.00,847.00 2433.00,847.00
             2433.00,847.00 2434.00,862.00 2434.00,862.00
             2434.00,862.00 2434.00,933.00 2434.00,933.00
             2434.00,933.00 2433.00,978.00 2433.00,978.00
             2433.00,978.00 1018.00,978.00 1018.00,978.00
             1018.00,978.00 1018.00,932.00 1018.00,932.00
             1018.00,932.00 1019.00,917.00 1019.00,917.00
             1019.00,917.00 1019.00,836.00 1019.00,836.00
             1019.00,836.00 1020.00,821.00 1020.00,821.00
             1020.00,821.00 1020.00,728.00 1020.00,728.00
             1020.00,728.00 1021.00,713.00 1021.00,713.00
             1021.00,713.00 1021.00,621.00 1021.00,621.00
             1021.00,621.00 1022.00,606.00 1022.00,606.00
             1022.00,606.00 1022.00,523.00 1022.00,523.00
             1022.00,523.00 1023.00,508.00 1023.00,508.00
             1023.00,508.00 1023.00,415.00 1023.00,415.00
             1023.00,415.00 1024.00,392.00 1024.00,392.00
             1024.00,392.00 1168.00,392.00 1168.00,392.00
             1168.00,392.00 1183.00,391.00 1183.00,391.00
             1183.00,391.00 1285.00,391.00 1285.00,391.00
             1285.00,391.00 1511.00,391.00 1511.00,391.00
             1511.00,391.00 1526.00,390.00 1526.00,390.00
             1526.00,390.00 1629.00,390.00 1629.00,390.00
             1629.00,390.00 1855.00,390.00 1855.00,390.00
             1855.00,390.00 1870.00,389.00 1870.00,389.00
             1870.00,389.00 1972.00,389.00 1972.00,389.00
             1972.00,389.00 2198.00,389.00 2198.00,389.00
             2198.00,389.00 2213.00,388.00 2213.00,388.00
             2213.00,388.00 2343.00,388.00 2343.00,388.00
             2343.00,388.00 2413.00,388.00 2413.00,388.00
             2413.00,388.00 2431.00,386.00 2431.00,386.00 Z
           M 2643.00,1150.00
           C 2643.00,1150.00 2606.00,1150.00 2606.00,1150.00
             2606.00,1150.00 2591.00,1149.00 2591.00,1149.00
             2591.00,1149.00 2411.00,1149.00 2411.00,1149.00
             2411.00,1149.00 2396.00,1148.00 2396.00,1148.00
             2396.00,1148.00 2216.00,1148.00 2216.00,1148.00
             2216.00,1148.00 2201.00,1147.00 2201.00,1147.00
             2201.00,1147.00 2021.00,1147.00 2021.00,1147.00
             2021.00,1147.00 2006.00,1146.00 2006.00,1146.00
             2006.00,1146.00 1826.00,1146.00 1826.00,1146.00
             1826.00,1146.00 1811.00,1145.00 1811.00,1145.00
             1811.00,1145.00 1631.00,1145.00 1631.00,1145.00
             1631.00,1145.00 1616.00,1144.00 1616.00,1144.00
             1616.00,1144.00 1441.00,1144.00 1441.00,1144.00
             1441.00,1144.00 1426.00,1143.00 1426.00,1143.00
             1426.00,1143.00 1246.00,1143.00 1246.00,1143.00
             1246.00,1143.00 1229.00,1142.00 1229.00,1142.00
             1229.00,1142.00 1171.00,1142.00 1171.00,1142.00
             1159.74,1141.98 1157.80,1138.23 1149.00,1131.63
             1149.00,1131.63 1126.00,1114.37 1126.00,1114.37
             1126.00,1114.37 1082.00,1079.66 1082.00,1079.66
             1082.00,1079.66 1050.00,1055.63 1050.00,1055.63
             1050.00,1055.63 1017.00,1031.00 1017.00,1031.00
             1017.00,1031.00 1030.00,1030.00 1030.00,1030.00
             1030.00,1030.00 1052.00,1030.00 1052.00,1030.00
             1052.00,1030.00 1130.00,1030.00 1130.00,1030.00
             1130.00,1030.00 1398.00,1030.00 1398.00,1030.00
             1398.00,1030.00 2223.00,1030.00 2223.00,1030.00
             2223.00,1030.00 2487.00,1030.00 2487.00,1030.00
             2487.00,1030.00 2495.00,1030.72 2495.00,1030.72
             2495.00,1030.72 2505.00,1037.37 2505.00,1037.37
             2505.00,1037.37 2518.00,1048.70 2518.00,1048.70
             2518.00,1048.70 2529.00,1057.13 2529.00,1057.13
             2529.00,1057.13 2554.00,1077.54 2554.00,1077.54
             2554.00,1077.54 2587.00,1103.46 2587.00,1103.46
             2587.00,1103.46 2601.00,1115.54 2601.00,1115.54
             2601.00,1115.54 2618.00,1128.46 2618.00,1128.46
             2618.00,1128.46 2628.00,1137.54 2628.00,1137.54
             2628.00,1137.54 2643.00,1150.00 2643.00,1150.00 Z
           M 971.00,1060.00
           C 978.93,1065.01 981.28,1068.00 988.00,1073.33
             988.00,1073.33 1009.00,1089.13 1009.00,1089.13
             1009.00,1089.13 1093.00,1152.89 1093.00,1152.89
             1093.00,1152.89 1116.00,1171.13 1116.00,1171.13
             1124.89,1177.80 1129.98,1178.53 1130.00,1190.00
             1130.00,1190.00 1130.00,1845.00 1130.00,1845.00
             1130.00,1845.00 1087.00,1803.00 1087.00,1803.00
             1087.00,1803.00 1005.00,1721.00 1005.00,1721.00
             1005.00,1721.00 978.00,1694.00 978.00,1694.00
             970.45,1686.45 966.02,1684.97 966.00,1674.00
             966.00,1674.00 966.00,1598.00 966.00,1598.00
             966.00,1598.00 967.00,1583.00 967.00,1583.00
             967.00,1583.00 967.00,1428.00 967.00,1428.00
             967.00,1428.00 968.00,1413.00 968.00,1413.00
             968.00,1413.00 968.00,1253.00 968.00,1253.00
             968.00,1253.00 969.00,1238.00 969.00,1238.00
             969.00,1238.00 969.00,1121.00 969.00,1121.00
             969.00,1121.00 969.72,1073.00 969.72,1073.00
             970.23,1068.65 969.37,1064.10 971.00,1060.00 Z
           M 1477.00,1425.00
           C 1477.00,1425.00 1448.00,1418.80 1448.00,1418.80
             1430.08,1415.29 1412.25,1413.13 1394.00,1413.00
             1373.77,1412.85 1356.69,1413.41 1338.00,1422.76
             1327.37,1428.08 1318.41,1436.50 1317.33,1449.00
             1316.54,1458.03 1323.67,1469.42 1329.30,1476.00
             1343.46,1492.54 1367.21,1505.52 1386.00,1516.42
             1386.00,1516.42 1426.00,1540.20 1426.00,1540.20
             1426.00,1540.20 1465.00,1565.29 1465.00,1565.29
             1488.79,1584.07 1507.79,1609.40 1515.37,1639.00
             1517.17,1646.04 1518.91,1655.77 1519.00,1663.00
             1519.33,1691.39 1514.02,1715.72 1498.56,1740.00
             1476.92,1774.00 1440.05,1793.85 1401.00,1800.41
             1394.16,1801.56 1384.84,1802.97 1378.00,1803.00
             1378.00,1803.00 1344.00,1803.00 1344.00,1803.00
             1321.88,1802.97 1287.73,1796.57 1266.00,1791.13
             1266.00,1791.13 1242.00,1784.28 1242.00,1784.28
             1239.70,1783.59 1234.40,1782.18 1232.99,1780.30
             1231.74,1778.63 1232.00,1775.04 1232.00,1773.00
             1232.00,1773.00 1232.00,1699.00 1232.00,1699.00
             1236.77,1699.75 1248.88,1704.18 1254.00,1706.05
             1256.51,1706.97 1261.48,1709.26 1264.00,1708.89
             1266.90,1708.45 1271.36,1704.07 1274.00,1702.21
             1280.25,1697.81 1285.85,1695.24 1293.00,1692.69
             1317.26,1684.06 1358.56,1684.35 1384.00,1688.27
             1395.49,1690.05 1411.49,1693.83 1414.00,1707.00
             1417.82,1703.43 1419.57,1699.89 1421.30,1695.00
             1425.99,1681.77 1424.05,1669.46 1415.96,1658.00
             1408.48,1647.41 1400.38,1643.40 1390.00,1636.66
             1390.00,1636.66 1348.00,1609.67 1348.00,1609.67
             1348.00,1609.67 1304.00,1580.67 1304.00,1580.67
             1304.00,1580.67 1281.00,1565.11 1281.00,1565.11
             1257.15,1547.22 1234.80,1522.23 1226.43,1493.00
             1222.91,1480.72 1221.86,1468.71 1222.00,1456.00
             1222.21,1437.97 1228.61,1416.31 1238.06,1401.00
             1240.50,1397.06 1244.33,1391.49 1247.30,1388.00
             1249.14,1385.83 1253.45,1381.67 1254.41,1379.28
             1255.49,1376.60 1252.70,1370.19 1252.09,1367.00
             1250.73,1361.08 1251.58,1355.00 1252.09,1349.00
             1255.18,1318.38 1278.45,1300.67 1306.00,1291.74
             1319.87,1287.25 1344.48,1283.02 1359.00,1283.00
             1359.00,1283.00 1377.00,1283.00 1377.00,1283.00
             1399.06,1283.00 1417.62,1283.49 1439.00,1290.34
             1462.58,1297.90 1479.08,1311.35 1482.15,1337.00
             1482.57,1340.47 1483.12,1342.34 1482.91,1346.00
             1482.04,1361.25 1477.02,1365.67 1477.00,1377.00
             1477.00,1377.00 1477.00,1425.00 1477.00,1425.00 Z
           M 1974.00,1794.00
           C 1974.00,1794.00 1863.00,1794.00 1863.00,1794.00
             1863.00,1794.00 1851.00,1757.00 1851.00,1757.00
             1851.00,1757.00 1832.98,1700.00 1832.98,1700.00
             1832.98,1700.00 1824.00,1668.00 1824.00,1668.00
             1824.00,1668.00 1694.00,1668.00 1694.00,1668.00
             1691.72,1668.00 1688.24,1667.79 1686.27,1669.02
             1682.60,1671.32 1679.13,1686.37 1677.66,1691.00
             1669.91,1715.23 1662.33,1740.11 1657.00,1765.00
             1657.00,1765.00 1652.35,1785.00 1652.35,1785.00
             1651.86,1787.14 1651.17,1791.64 1649.42,1792.98
             1647.76,1794.24 1644.04,1794.00 1642.00,1794.00
             1642.00,1794.00 1544.00,1794.00 1544.00,1794.00
             1544.00,1794.00 1571.58,1729.00 1571.58,1729.00
             1600.26,1660.63 1628.76,1591.84 1653.69,1522.00
             1665.22,1489.71 1676.55,1457.30 1684.87,1424.00
             1684.87,1424.00 1693.67,1383.00 1693.67,1383.00
             1694.02,1377.78 1690.86,1373.64 1688.87,1369.00
             1686.03,1362.37 1684.09,1355.24 1684.00,1348.00
             1683.94,1342.20 1683.69,1337.62 1685.52,1332.00
             1692.32,1311.15 1720.03,1289.84 1741.00,1284.48
             1749.00,1282.43 1757.76,1282.91 1766.00,1283.00
             1786.29,1283.24 1816.41,1294.59 1826.48,1313.00
             1830.41,1320.18 1831.09,1327.02 1831.00,1335.00
             1830.95,1339.37 1830.35,1343.86 1828.90,1348.00
             1827.82,1351.06 1825.90,1353.67 1825.94,1357.00
             1825.94,1357.00 1828.63,1369.00 1828.63,1369.00
             1828.63,1369.00 1836.12,1397.00 1836.12,1397.00
             1836.12,1397.00 1862.28,1488.00 1862.28,1488.00
             1884.26,1560.98 1908.32,1634.05 1936.20,1705.00
             1936.20,1705.00 1962.42,1768.00 1962.42,1768.00
             1962.42,1768.00 1974.00,1794.00 1974.00,1794.00 Z
           M 2134.00,1724.00
           C 2147.97,1711.20 2163.18,1705.63 2181.00,1700.28
             2195.80,1695.84 2218.74,1690.02 2234.00,1690.00
             2234.00,1690.00 2267.00,1690.00 2267.00,1690.00
             2285.45,1690.22 2302.02,1695.89 2303.00,1717.00
             2303.00,1717.00 2308.00,1717.00 2308.00,1717.00
             2308.00,1717.00 2306.09,1749.00 2306.09,1749.00
             2306.09,1749.00 2304.83,1771.00 2304.83,1771.00
             2304.83,1771.00 2303.00,1794.00 2303.00,1794.00
             2303.00,1794.00 2035.00,1794.00 2035.00,1794.00
             2035.00,1794.00 2037.00,1765.00 2037.00,1765.00
             2037.00,1765.00 2038.00,1750.00 2038.00,1750.00
             2038.00,1750.00 2038.00,1736.00 2038.00,1736.00
             2038.00,1736.00 2039.00,1721.00 2039.00,1721.00
             2039.00,1721.00 2039.00,1699.00 2039.00,1699.00
             2039.00,1699.00 2040.00,1684.00 2040.00,1684.00
             2040.00,1684.00 2040.00,1495.00 2040.00,1495.00
             2040.00,1495.00 2039.00,1478.00 2039.00,1478.00
             2039.00,1478.00 2039.00,1454.00 2039.00,1454.00
             2039.00,1454.00 2038.00,1441.00 2038.00,1441.00
             2037.83,1425.83 2038.14,1398.91 2033.48,1385.00
             2031.13,1378.00 2027.41,1374.19 2023.87,1368.00
             2018.15,1357.99 2014.14,1348.71 2014.00,1337.00
             2013.90,1328.39 2014.39,1321.91 2018.38,1314.00
             2028.10,1294.71 2055.16,1283.03 2076.00,1283.00
             2076.00,1283.00 2093.00,1283.00 2093.00,1283.00
             2111.05,1283.03 2132.10,1289.22 2143.47,1304.00
             2150.66,1313.33 2152.13,1325.60 2152.00,1337.00
             2151.76,1357.02 2139.02,1376.58 2136.61,1386.00
             2135.57,1390.04 2136.24,1394.75 2135.83,1399.00
             2135.83,1399.00 2135.00,1442.00 2135.00,1442.00
             2135.00,1442.00 2134.00,1457.00 2134.00,1457.00
             2134.00,1457.00 2134.00,1724.00 2134.00,1724.00 Z
           M 2611.00,1345.00
           C 2611.00,1345.00 2615.00,1345.00 2615.00,1345.00
             2615.00,1345.00 2615.91,1359.00 2615.91,1359.00
             2615.91,1359.00 2617.09,1384.00 2617.09,1384.00
             2617.09,1384.00 2619.00,1415.00 2619.00,1415.00
             2619.00,1415.00 2592.00,1413.00 2592.00,1413.00
             2592.00,1413.00 2583.00,1413.00 2583.00,1413.00
             2583.00,1413.00 2571.00,1412.00 2571.00,1412.00
             2571.00,1412.00 2548.00,1412.00 2548.00,1412.00
             2548.00,1412.00 2533.00,1411.00 2533.00,1411.00
             2533.00,1411.00 2504.00,1411.00 2504.00,1411.00
             2504.00,1411.00 2487.00,1412.00 2487.00,1412.00
             2487.00,1412.00 2463.00,1412.00 2463.00,1412.00
             2463.00,1412.00 2463.00,1523.00 2463.00,1523.00
             2463.00,1523.00 2470.00,1524.00 2470.00,1524.00
             2470.16,1506.32 2483.13,1497.52 2498.00,1491.15
             2505.72,1487.85 2513.73,1485.12 2522.00,1483.61
             2539.60,1480.42 2570.80,1481.35 2588.00,1486.30
             2605.06,1491.20 2619.77,1500.40 2620.00,1520.00
             2620.04,1523.55 2620.25,1527.65 2619.03,1531.00
             2619.03,1531.00 2614.56,1539.17 2614.56,1539.17
             2613.78,1541.42 2613.00,1553.12 2613.00,1556.00
             2613.00,1556.00 2612.00,1579.00 2612.00,1579.00
             2611.99,1584.62 2612.35,1588.43 2611.00,1594.00
             2611.00,1594.00 2589.00,1592.00 2589.00,1592.00
             2589.00,1592.00 2571.00,1591.00 2571.00,1591.00
             2571.00,1591.00 2549.00,1591.00 2549.00,1591.00
             2549.00,1591.00 2536.00,1590.00 2536.00,1590.00
             2536.00,1590.00 2505.00,1590.00 2505.00,1590.00
             2505.00,1590.00 2489.00,1591.00 2489.00,1591.00
             2489.00,1591.00 2463.00,1591.00 2463.00,1591.00
             2463.00,1591.00 2463.00,1700.00 2463.00,1700.00
             2479.13,1685.32 2506.46,1678.10 2528.00,1678.00
             2546.72,1677.91 2555.46,1676.86 2574.00,1681.63
             2593.34,1686.61 2611.93,1696.64 2612.00,1719.00
             2612.00,1719.00 2628.00,1717.00 2628.00,1717.00
             2628.00,1717.00 2625.83,1743.00 2625.83,1743.00
             2625.83,1743.00 2623.83,1771.00 2623.83,1771.00
             2623.83,1771.00 2622.00,1794.00 2622.00,1794.00
             2622.00,1794.00 2365.00,1794.00 2365.00,1794.00
             2365.00,1794.00 2367.04,1759.00 2367.04,1759.00
             2367.04,1759.00 2367.04,1747.00 2367.04,1747.00
             2367.04,1747.00 2368.00,1735.00 2368.00,1735.00
             2368.00,1735.00 2368.00,1716.00 2368.00,1716.00
             2368.00,1716.00 2369.00,1701.00 2369.00,1701.00
             2369.00,1701.00 2369.00,1638.00 2369.00,1638.00
             2369.00,1638.00 2370.00,1623.00 2370.00,1623.00
             2370.00,1623.00 2370.00,1538.00 2370.00,1538.00
             2370.00,1538.00 2369.00,1521.00 2369.00,1521.00
             2369.00,1521.00 2369.00,1493.00 2369.00,1493.00
             2369.00,1493.00 2368.04,1481.00 2368.04,1481.00
             2368.04,1481.00 2368.04,1466.00 2368.04,1466.00
             2368.04,1466.00 2367.00,1451.00 2367.00,1451.00
             2367.00,1451.00 2366.00,1429.00 2366.00,1429.00
             2366.00,1429.00 2365.09,1418.00 2365.09,1418.00
             2365.09,1418.00 2360.83,1365.00 2360.83,1365.00
             2360.83,1365.00 2359.00,1345.00 2359.00,1345.00
             2359.00,1345.00 2368.15,1345.00 2368.15,1345.00
             2367.13,1338.44 2366.39,1335.70 2368.15,1329.00
             2374.15,1308.52 2404.44,1297.87 2423.00,1292.58
             2438.50,1288.16 2459.98,1283.02 2476.00,1283.00
             2476.00,1283.00 2510.00,1283.00 2510.00,1283.00
             2523.45,1283.16 2549.14,1287.04 2562.00,1291.02
             2589.41,1299.51 2610.32,1313.80 2611.00,1345.00 Z
           M 1376.00,1296.80
           C 1376.00,1296.80 1358.00,1296.80 1358.00,1296.80
             1336.10,1297.03 1300.34,1303.56 1283.00,1317.29
             1270.62,1327.09 1265.48,1338.54 1264.32,1354.00
             1263.89,1359.80 1265.91,1366.74 1271.04,1369.99
             1276.76,1373.61 1282.86,1372.15 1289.00,1372.01
             1290.92,1371.97 1294.16,1371.91 1295.91,1372.60
             1300.32,1374.34 1309.64,1388.59 1313.26,1393.00
             1315.37,1395.56 1319.49,1400.67 1323.00,1400.99
             1327.39,1401.38 1332.03,1394.15 1334.37,1391.00
             1334.37,1391.00 1350.67,1368.00 1350.67,1368.00
             1352.71,1365.42 1356.91,1360.46 1360.00,1359.38
             1363.69,1358.10 1370.72,1362.58 1374.00,1364.42
             1381.38,1368.58 1390.85,1373.65 1399.00,1375.84
             1401.88,1376.62 1406.90,1377.59 1409.72,1376.43
             1413.88,1374.71 1425.45,1359.73 1432.00,1356.45
             1435.52,1354.69 1439.19,1355.02 1443.00,1355.00
             1449.39,1354.97 1463.47,1354.09 1466.95,1347.90
             1468.32,1345.13 1467.59,1341.93 1466.95,1339.00
             1465.56,1330.37 1460.81,1322.18 1453.99,1316.67
             1432.91,1299.65 1402.10,1296.80 1376.00,1296.80 Z
           M 1758.00,1296.71
           C 1740.34,1297.63 1725.24,1307.77 1713.00,1320.00
             1706.10,1326.90 1699.99,1334.86 1699.38,1345.00
             1698.87,1353.43 1708.38,1377.08 1711.68,1386.00
             1711.68,1386.00 1725.78,1422.00 1725.78,1422.00
             1727.12,1424.78 1730.45,1431.80 1734.00,1431.80
             1737.75,1431.80 1741.31,1423.02 1742.69,1420.00
             1742.69,1420.00 1753.40,1393.00 1753.40,1393.00
             1754.46,1390.34 1757.56,1382.19 1759.33,1380.48
             1761.76,1378.12 1765.53,1381.01 1768.00,1382.25
             1773.56,1385.03 1781.00,1390.54 1786.79,1385.57
             1789.79,1382.99 1795.09,1369.78 1798.06,1365.00
             1802.86,1357.30 1816.58,1345.11 1817.57,1337.00
             1818.59,1328.71 1812.04,1318.55 1805.99,1313.46
             1792.23,1301.89 1775.64,1297.10 1758.00,1296.71 Z
           M 2488.00,1296.90
           C 2488.00,1296.90 2478.00,1296.90 2478.00,1296.90
             2461.62,1297.03 2427.44,1304.37 2412.00,1310.19
             2402.90,1313.62 2392.25,1317.86 2385.68,1325.29
             2378.23,1333.71 2377.84,1349.02 2389.00,1354.43
             2389.00,1354.43 2411.00,1359.30 2411.00,1359.30
             2411.00,1359.30 2429.00,1372.59 2429.00,1372.59
             2434.94,1375.75 2445.29,1376.09 2452.00,1376.00
             2468.11,1375.78 2476.82,1359.39 2485.37,1348.00
             2488.70,1343.57 2494.79,1334.74 2501.00,1335.40
             2507.18,1336.04 2516.36,1344.42 2521.00,1348.42
             2528.83,1355.18 2535.39,1363.66 2544.00,1369.47
             2550.49,1373.85 2548.68,1369.49 2564.00,1380.29
             2568.64,1383.57 2578.01,1391.47 2583.98,1389.39
             2591.20,1386.87 2595.06,1370.85 2596.58,1364.00
             2597.50,1359.80 2599.14,1349.05 2598.91,1345.00
             2597.93,1328.28 2586.17,1318.15 2572.00,1311.26
             2555.49,1303.23 2523.44,1297.03 2505.00,1296.90
             2505.00,1296.90 2488.00,1296.90 2488.00,1296.90 Z
           M 2070.00,1297.44
           C 2062.51,1298.82 2058.93,1299.87 2052.00,1303.26
             2047.36,1305.53 2043.86,1307.65 2040.01,1311.17
             2037.44,1313.53 2035.28,1316.01 2033.48,1319.00
             2021.52,1338.82 2037.58,1360.00 2045.69,1378.00
             2045.69,1378.00 2056.91,1410.00 2056.91,1410.00
             2058.40,1413.04 2061.94,1417.98 2065.91,1417.18
             2070.45,1416.25 2073.64,1405.98 2075.00,1402.00
             2075.00,1402.00 2083.07,1379.00 2083.07,1379.00
             2083.07,1379.00 2087.65,1372.00 2087.65,1372.00
             2089.71,1368.48 2091.74,1363.20 2094.53,1360.34
             2103.49,1351.15 2109.45,1368.35 2115.10,1373.89
             2118.38,1377.11 2121.81,1379.08 2125.81,1375.68
             2130.14,1372.01 2132.97,1362.47 2134.37,1357.00
             2138.71,1340.06 2140.09,1319.60 2125.00,1307.38
             2111.86,1296.74 2086.24,1295.36 2070.00,1297.44 Z
           M 1763.00,1424.00
           C 1763.00,1424.00 1756.88,1448.00 1756.88,1448.00
             1748.60,1479.52 1739.23,1510.29 1728.31,1541.00
             1728.31,1541.00 1710.00,1592.00 1710.00,1592.00
             1710.00,1592.00 1733.00,1577.97 1733.00,1577.97
             1745.87,1571.53 1767.06,1568.86 1780.00,1576.04
             1794.57,1584.12 1799.15,1592.89 1807.00,1599.00
             1800.03,1577.70 1781.69,1504.70 1776.42,1481.00
             1776.42,1481.00 1768.21,1445.00 1768.21,1445.00
             1767.13,1439.97 1765.02,1427.94 1763.00,1424.00 Z
           M 2545.00,1495.71
           C 2529.15,1496.48 2515.26,1500.12 2501.00,1507.25
             2489.63,1512.94 2483.06,1517.53 2483.00,1531.00
             2482.97,1537.28 2484.31,1554.23 2485.93,1560.00
             2486.88,1563.39 2488.88,1568.16 2493.02,1568.30
             2495.65,1568.39 2499.68,1565.69 2502.00,1564.44
             2512.54,1558.74 2511.14,1561.38 2518.00,1550.00
             2520.34,1546.11 2525.58,1537.60 2530.00,1536.30
             2533.33,1535.32 2536.83,1538.92 2538.96,1541.04
             2538.96,1541.04 2553.00,1555.96 2553.00,1555.96
             2555.05,1557.88 2557.91,1560.75 2561.00,1560.18
             2565.83,1559.27 2575.39,1546.06 2580.00,1542.34
             2588.13,1535.80 2597.10,1540.75 2603.30,1531.96
             2609.55,1523.08 2604.16,1510.59 2596.00,1505.10
             2582.17,1495.81 2561.08,1496.06 2545.00,1495.71 Z
           M 1766.00,1626.00
           C 1766.00,1626.00 1769.92,1637.00 1769.92,1637.00
             1769.92,1637.00 1773.69,1649.00 1773.69,1649.00
             1774.55,1651.40 1775.93,1655.66 1778.27,1656.93
             1782.08,1659.01 1786.43,1654.60 1788.68,1651.98
             1793.80,1646.02 1800.28,1632.88 1800.91,1625.00
             1802.04,1610.89 1793.99,1602.15 1783.00,1594.44
             1762.44,1580.00 1734.91,1584.46 1717.00,1601.09
             1713.47,1604.36 1709.16,1608.68 1707.00,1613.00
             1704.93,1617.15 1704.49,1622.50 1705.53,1627.00
             1707.36,1634.98 1716.76,1648.58 1725.00,1650.58
             1729.15,1651.59 1732.44,1650.44 1736.00,1648.37
             1746.15,1642.48 1757.17,1629.77 1766.00,1626.00 Z
           M 2542.00,1691.80
           C 2542.00,1691.80 2529.00,1691.80 2529.00,1691.80
             2510.94,1692.03 2488.81,1697.54 2474.00,1708.04
             2465.47,1714.09 2460.80,1721.50 2464.22,1732.00
             2465.45,1735.75 2467.26,1738.43 2471.02,1739.99
             2473.67,1741.10 2477.15,1741.05 2480.00,1740.99
             2485.99,1740.84 2489.56,1739.18 2495.00,1736.99
             2497.11,1736.14 2500.33,1734.34 2502.49,1735.81
             2504.56,1737.22 2505.50,1742.59 2506.15,1745.00
             2508.71,1754.45 2511.64,1769.33 2524.00,1768.96
             2532.96,1768.69 2541.77,1762.48 2549.00,1757.67
             2549.00,1757.67 2563.00,1748.54 2563.00,1748.54
             2563.00,1748.54 2571.00,1744.87 2571.00,1744.87
             2571.00,1744.87 2582.00,1736.87 2582.00,1736.87
             2587.57,1733.54 2596.89,1735.36 2598.66,1724.00
             2600.02,1715.26 2593.81,1707.64 2587.00,1703.10
             2573.86,1694.35 2557.47,1691.72 2542.00,1691.80 Z
           M 1343.00,1699.94
           C 1343.00,1699.94 1330.00,1699.94 1330.00,1699.94
             1316.15,1701.49 1289.57,1707.49 1279.00,1716.33
             1263.53,1729.27 1271.18,1753.68 1292.00,1754.47
             1297.19,1754.66 1302.02,1750.31 1306.00,1747.37
             1312.74,1742.39 1321.40,1735.95 1330.00,1735.18
             1343.93,1733.92 1349.53,1758.44 1355.47,1768.00
             1357.72,1771.63 1362.31,1777.50 1366.98,1777.63
             1372.10,1777.77 1374.89,1769.94 1376.57,1766.00
             1379.25,1759.73 1384.31,1747.01 1388.39,1742.04
             1394.13,1735.03 1407.05,1729.13 1402.86,1718.00
             1400.12,1710.73 1393.00,1706.67 1386.00,1704.36
             1372.17,1699.80 1357.36,1700.02 1343.00,1699.94 Z
           M 2241.00,1703.76
           C 2241.00,1703.76 2229.00,1704.29 2229.00,1704.29
             2212.29,1706.34 2191.19,1711.79 2175.00,1716.72
             2167.11,1719.12 2153.23,1724.12 2148.58,1731.01
             2145.38,1735.77 2145.99,1744.38 2146.00,1750.00
             2146.01,1753.42 2145.81,1758.70 2148.09,1761.47
             2150.10,1763.92 2152.79,1763.16 2157.91,1768.10
             2160.17,1770.29 2163.71,1775.62 2167.00,1775.66
             2171.07,1775.72 2176.63,1766.11 2179.30,1763.00
             2181.62,1760.29 2184.96,1756.85 2188.00,1755.00
             2191.66,1752.77 2194.34,1753.10 2197.67,1749.78
             2202.08,1745.38 2203.51,1737.99 2210.00,1735.60
             2214.62,1733.90 2224.20,1736.85 2229.00,1738.15
             2229.00,1738.15 2269.00,1748.20 2269.00,1748.20
             2274.09,1749.10 2279.80,1753.80 2284.89,1750.98
             2288.50,1748.98 2289.84,1743.78 2290.54,1740.00
             2292.18,1731.15 2294.13,1714.92 2285.90,1708.85
             2281.89,1705.90 2276.77,1705.42 2272.00,1704.85
             2272.00,1704.85 2252.00,1703.76 2252.00,1703.76
             2252.00,1703.76 2241.00,1703.76 2241.00,1703.76 Z" />
</svg>
