<svg width="13" height="18" viewBox="0 0 13 18" fill="none" xmlns="http://www.w3.org/2000/svg">
<path id="Selection #1" d="M5.85938 0.581135L5.73047 0.592246L5.51953 0.613427H5.39062C5.21027 0.613658 4.87031 0.697107 4.6875 0.742246L4.26562 0.853589L4.04297 0.948959L3.70312 1.07998L3.46875 1.19942L3.01172 1.43449L2.74219 1.6353L2.60156 1.73345L2.46293 1.81817L2.1798 2.06134L2.08488 2.16435L1.97074 2.28009L1.85953 2.41898L1.7632 2.52315L1.64742 2.67361L1.48535 2.87037C1.40039 2.9809 1.06793 3.49965 1.00184 3.62269L0.911133 3.81945L0.832618 3.95833L0.65625 4.43287L0.426797 5.13889L0.396679 5.27778L0.249493 5.75232L0.177774 6.2037L0.150351 6.58565L0.09375 7.01389V7.29167L0.105469 7.44213V7.93982L0.09375 8.13657V8.47222L0.105 8.61111V8.77315L0.116718 8.91204V9.03935L0.128906 9.21296C0.129375 9.50347 0.188554 9.84861 0.230859 10.1389L0.248086 10.3356C0.267305 10.5317 0.29168 10.7962 0.341719 10.9838L0.429727 11.25L0.517968 11.5278L1.04461 12.6505L1.18676 12.9745C1.36172 13.3203 1.78066 14.0049 2.00883 14.3171L2.48438 14.8958L2.68957 15.162L2.75637 15.2546L2.92969 15.4282L3.13734 15.6481C3.35191 15.8899 3.56613 16.1367 3.80859 16.3522L4.06641 16.5556C4.15406 16.6247 4.36359 16.7894 4.45312 16.8366C4.68199 16.9572 4.97531 17.0259 5.22656 17.0876C5.36297 17.1212 5.62184 17.1859 5.75391 17.1875L6.17578 17.2019H6.32812L6.80859 17.1547C6.92695 17.1435 7.06898 17.1384 7.18359 17.106C7.36453 17.0549 7.76145 16.9051 7.92188 16.8167L8.35547 16.5235L8.625 16.3184L8.73152 16.2037L8.85586 16.0764L9.01172 15.8796L9.2025 15.6597L9.47508 15.3588L9.65859 15.1273L10.0029 14.6875L10.0959 14.537L10.3526 14.1551L10.5977 13.7731L10.7537 13.5532L10.8382 13.3681L10.9601 13.1134L11.0659 12.9167L11.2888 12.4537L11.3619 12.3032L11.4146 12.1528L11.6256 11.5625L11.7134 11.3542L11.7473 11.2384L11.8089 11.0648L11.8659 10.9259L11.9679 10.6019L12.0054 10.3819L12.0636 10.0579C12.096 9.86759 12.1873 9.48715 12.1875 9.31713V8.98148L12.1966 8.83102V8.68056L12.2109 8.47222V8.25232L12.2227 8.06713V7.69676L12.2105 7.52315V7.37269L12.1992 7.25694L12.1661 6.9213L12.1488 6.68982L12.1079 6.50463L12.0381 6.14583L11.9541 5.64815L11.9121 5.40509L11.8526 5.20833L11.6769 4.66435L11.57 4.3287L11.2943 3.7037L11.2075 3.51852L10.9883 3.18287L10.7995 2.89352L10.6021 2.63785L10.5055 2.5L10.1861 2.12963C10.1405 2.07674 10.1394 2.05255 10.0777 1.9912L9.92578 1.85857L9.79688 1.74213L9.49219 1.53889L9.11719 1.2669L8.98828 1.20012L8.8125 1.10567L8.55469 1.02454L8.29688 0.906367L8.08594 0.830441C7.7802 0.733566 7.4209 0.69051 7.10156 0.646644C6.79664 0.604746 6.49547 0.578704 6.1875 0.581135H5.85938ZM6.63281 1.35417V1.89815L6.62109 2.07176V3.36806L6.60938 3.56482V3.96991H7.01953L7.21875 3.98148H7.78125V4.97685H7.41797L7.23047 4.96528H6.60938L6.59766 5.12732V5.90278H5.69531C5.67199 5.90278 5.62723 5.90544 5.60859 5.89097C5.57895 5.86771 5.58984 5.71273 5.58984 5.6713V5.32407L5.60156 5.13889V4.9537H4.95703L4.75781 4.94213H4.27734V3.94676H4.55859L4.74609 3.95833H5.60156V3.76157L5.61328 3.58796V2.30324L5.625 2.10648V1.35417H6.63281ZM8.84766 5.99699H9.04688C9.21457 5.9956 9.4466 6.04954 9.58594 6.14398C9.63129 6.17465 9.72152 6.25637 9.76172 6.2963C9.84352 6.37778 9.93141 6.50035 9.9716 6.6088C10.0196 6.73877 10.008 6.9103 10.0078 7.04861C10.0077 7.14016 9.98555 7.26748 9.9443 7.34954L9.89449 7.43056L9.81316 7.56944L9.73031 7.66204L9.62777 7.78738C9.49828 7.92269 9.20871 8.11053 9.02344 8.15185C8.96965 8.16389 8.8241 8.17188 8.76562 8.1713L8.64844 8.16076C8.54918 8.15405 8.49047 8.16285 8.39062 8.12396C8.26641 8.0757 8.20113 8.02384 8.09766 7.94306C7.98422 7.85463 7.87535 7.75694 7.79226 7.63889C7.75957 7.59236 7.74938 7.55 7.72336 7.5L7.65633 7.37269C7.61414 7.27546 7.56316 7.06146 7.55906 6.95602C7.55602 6.87801 7.5757 6.81065 7.59375 6.73611C7.61191 6.66111 7.62914 6.59479 7.66934 6.52778C7.81992 6.27708 8.13 6.10278 8.41406 6.04421L8.57812 6.02813L8.69531 6.00891L8.84766 5.99699ZM3.12891 6.02014H3.53906L3.75 6.03843L3.96094 6.06875C4.10766 6.10405 4.32703 6.22107 4.42769 6.33102C4.45301 6.3588 4.53516 6.4625 4.55215 6.49306L4.60395 6.62037C4.66687 6.78079 4.67309 6.80972 4.68949 6.97917C4.69242 7.00938 4.69863 7.02813 4.69676 7.06019C4.69219 7.14016 4.6643 7.21597 4.64156 7.29167C4.58027 7.49583 4.45113 7.7581 4.28707 7.89907L4.16016 7.98171L4.06641 8.04942C3.87352 8.15961 3.66305 8.1853 3.44531 8.18287C3.32332 8.18137 3.25113 8.15857 3.14062 8.11354C2.95043 8.036 2.87543 7.97963 2.72848 7.84051C2.65758 7.7735 2.59313 7.70903 2.53863 7.62732L2.48812 7.53472C2.42461 7.43183 2.39309 7.38438 2.34926 7.26852C2.32664 7.20857 2.24449 7.01944 2.24098 6.96759C2.23816 6.92778 2.25645 6.89109 2.26055 6.85185C2.26688 6.79259 2.28656 6.65081 2.30297 6.59722C2.3509 6.43947 2.5023 6.25417 2.63672 6.15938C2.72004 6.10069 2.88609 6.04653 2.98828 6.03345L3.12891 6.02014ZM4.42969 11.3542V14.3981C4.42957 14.4762 4.43543 14.5007 4.34766 14.5023L4.05469 14.4907H3.77344V11.4468C3.77355 11.3688 3.7677 11.3442 3.85547 11.3432H4.01953L4.16016 11.3542H4.42969ZM8.4375 11.3657V11.9444L8.42578 12.1181V13.4491L8.41406 13.6458V14.3519L7.75781 14.3634V13.9005L7.76953 13.7269V12.3958L7.78125 12.1991V11.4583C7.78137 11.3803 7.77551 11.3558 7.86328 11.3542L8.14453 11.3657H8.4375ZM6.42188 12.1528V12.4769L6.41016 12.6505V13.2176L6.39844 13.4144V14.0278L6.38672 14.2014V14.8727L6.37547 14.9884V15.1157L6.36328 15.4745H5.73047L5.71875 15.1505L5.73047 14.9769V14.3634L5.74219 14.1898V13.5532L5.75391 13.3565V12.7315L5.76562 12.5347V12.1412H6.16406L6.42188 12.1528Z" fill="#AE111E" stroke="black" stroke-width="0.00333333"/>
</svg>
