<svg width="7" height="17" viewBox="0 0 7 17" fill="none" xmlns="http://www.w3.org/2000/svg">
<path d="M2.28125 8.61574L2.29296 9.04398L2.30468 9.34491C2.18972 9.3353 2.09175 9.28773 2.02343 9.19445H2C1.98839 9.23472 1.97668 9.40185 1.97656 9.44908C1.97632 9.57558 1.97058 9.76956 2 9.88889H2.02343C2.09773 9.77338 2.1664 9.72813 2.30468 9.72685V10.0046L2.3164 10.1898L2.32812 10.4213C2.15503 10.4069 2.13218 10.3277 2.03515 10.2824L2.02343 10.4792C2.02332 10.5848 2.03574 10.8838 2.05859 10.9769H2.08203C2.1555 10.8696 2.1991 10.8323 2.32812 10.8032L2.33984 11.0231V11.2546L2.35156 11.4398V11.6134L2.21093 11.565L2.07031 11.4745C2.05039 11.5436 2.05859 11.6438 2.05859 11.7176C2.05859 11.8646 2.05566 12.0123 2.08203 12.1574C2.18679 12.1042 2.17871 12.012 2.36328 11.9838L2.375 12.2269V12.3889L2.38671 12.6319L2.39843 12.8519L2.22265 12.7926L2.09375 12.7014L2.08203 12.8634L2.09175 13.1991L2.11718 13.3958H2.14062C2.20648 13.2845 2.29015 13.2251 2.42187 13.2222L2.43359 13.4537L2.45703 13.8357V13.9514C2.27011 13.9497 2.23484 13.8712 2.1289 13.8241C2.09714 13.9347 2.12832 14.0697 2.1289 14.1829C2.12937 14.2799 2.1466 14.4108 2.16406 14.5069C2.22394 14.4763 2.22429 14.4478 2.27058 14.4065C2.34382 14.3412 2.3982 14.3336 2.49218 14.3333L2.50285 14.4722L2.55078 15.0625C2.40382 15.0557 2.36011 15.0105 2.24609 14.9352C2.22347 15.0271 2.24562 15.1194 2.24609 15.213C2.24656 15.3008 2.27527 15.5387 2.30468 15.6181H2.32812C2.41953 15.4845 2.44027 15.4808 2.58593 15.4329L2.64453 15.9884C2.44964 15.931 2.50964 15.9221 2.3982 15.8727C2.37511 15.9536 2.39457 15.9913 2.3982 16.0694C2.40582 16.2426 2.42234 16.3854 2.45703 16.5556C2.52324 16.5179 2.58722 16.3784 2.70289 16.3758C2.7589 16.3747 2.76324 16.4215 2.83226 16.4841C2.90586 16.5509 3.0125 16.616 3.11328 16.625L3.07074 16.7755L2.98437 16.9148C3.07273 16.9391 3.16449 16.9214 3.2539 16.9148C3.39558 16.9058 3.53668 16.9027 3.67578 16.8681V16.8333C3.62457 16.8061 3.49953 16.705 3.5116 16.6391C3.51675 16.6108 3.55906 16.5958 3.58156 16.5815C3.61941 16.5574 3.65468 16.5228 3.68011 16.4861C3.73496 16.4067 3.77316 16.1913 3.78125 16.0926C3.90253 16.1037 3.96277 16.1719 4.02734 16.2662H4.05078C4.08546 16.1304 4.08593 15.9444 4.08593 15.8032C4.08593 15.7311 4.09378 15.6399 4.07421 15.5718C3.96101 15.6507 3.94261 15.6897 3.79296 15.7107L3.78125 15.4444V15.0741C3.90171 15.1096 3.93804 15.1348 4.01562 15.2361H4.03906L4.05277 15.1319L4.06144 14.8552L4.05078 14.6921L4.03906 14.5532C3.94355 14.5978 3.9391 14.6556 3.78125 14.6921L3.76953 14.4607V14.2407L3.75828 14.1134V13.963C3.90675 13.9786 3.92503 14.0691 4.01562 14.1134C4.06367 13.9182 4.0175 13.6328 4.01562 13.4306L3.89843 13.514L3.75781 13.581L3.74609 13.3843L3.73437 12.7593C3.84711 12.7767 3.90863 12.8282 3.96875 12.9213H3.99218C4.02535 12.8059 4.01843 12.5366 4.0066 12.412C3.99863 12.3273 4.0107 12.3174 3.98046 12.2269C3.88683 12.3065 3.85097 12.3507 3.72265 12.3773V12.1458L3.71093 11.9722V11.6829C3.89281 11.7525 3.8164 11.7399 3.94531 11.8449C3.978 11.7563 3.96875 11.683 3.96875 11.5903C3.96875 11.3866 3.96851 11.3532 3.94531 11.1505C3.84781 11.1991 3.88519 11.2332 3.6875 11.3009C3.6875 11.153 3.67484 10.6494 3.65234 10.5255C3.76613 10.5637 3.80961 10.5762 3.88671 10.6759H3.91015C3.9398 10.573 3.91367 10.3471 3.90019 10.2361C3.89046 10.1557 3.89128 10.0688 3.86328 9.99306H3.83984C3.77632 10.0752 3.72675 10.1097 3.6289 10.1435L3.58097 9.53009L3.55859 9.29861C3.72101 9.35463 3.69183 9.39028 3.79296 9.4375V9.21759L3.73437 8.75463C3.66019 8.79641 3.65457 8.85718 3.52343 8.90509L3.51136 8.67361C3.50855 8.64479 3.49578 8.59919 3.51136 8.57442C3.53281 8.54317 3.58402 8.54653 3.61718 8.5463L3.82812 8.53472L4.22656 8.51158H4.3789L4.5664 8.5L4.80078 8.49167C4.84847 8.48588 4.92148 8.48831 4.95429 8.44711C4.96929 8.42813 4.99742 8.29005 5.00492 8.25695L5.09785 7.79398C5.1098 7.74167 5.12785 7.60567 5.17742 7.58241L5.55078 7.51123L6.19531 7.39595C6.29867 7.37789 6.46156 7.37871 6.54675 7.32118C6.66605 7.24051 6.70414 7.00243 6.6132 6.8912C6.53199 6.79202 6.42441 6.7625 6.30078 6.76389C6.13496 6.76574 5.85195 6.83206 5.67968 6.86273L5.44531 6.89445C5.34289 6.9081 5.36023 6.91424 5.24609 6.91435L5.31804 6.65972L5.45082 6.17361C5.47824 6.06667 5.5155 5.96053 5.51562 5.84954V5.78009L5.4759 5.54861C5.45152 5.41458 5.41976 5.23519 5.3723 5.1088L5.28617 4.90046L5.04019 4.21759C4.98312 4.06111 4.93015 3.75174 4.81203 3.64005C4.66671 3.50278 4.28468 3.43287 4.08593 3.43056C4.03086 3.42998 3.92222 3.43854 3.87757 3.40822C3.83421 3.37859 3.81558 3.26227 3.79015 3.21065C3.75207 3.13322 3.66171 3.02859 3.6125 2.95602C3.57839 2.9059 3.55835 2.84826 3.53222 2.79398L3.28542 2.25L2.9007 1.41667L2.70945 1C2.6805 0.936574 2.64043 0.830671 2.59379 0.782292C2.5673 0.754745 2.538 0.738889 2.5039 0.722569C2.47543 0.708912 2.44168 0.693866 2.41015 0.690046L2.1289 0.732871L1.66015 0.827662C1.56183 0.85 1.48953 0.849421 1.40234 0.91088C1.29546 0.986227 1.20382 1.07257 1.20312 1.20833V1.25463L1.1914 1.41667V1.63657L1.16796 2.03009V2.48148L1.15578 2.65509V2.80556L1.14453 2.9213C1.14101 3.21806 1.10011 3.286 1.0632 3.5463V3.65046L1.01562 4.0787V4.18287L0.984331 4.42593C0.957495 4.55509 0.922105 4.60995 0.921871 4.75V5.29398L0.933589 5.46759V6.28935L0.945308 6.48611V6.96065L0.957027 7.15741V7.53935C0.957027 7.56644 0.95937 7.60579 0.945073 7.6294C0.920347 7.67002 0.794019 7.70695 0.746559 7.73461C0.665816 7.78195 0.630191 7.84074 0.628902 7.93287C0.628433 7.96887 0.626324 8.0397 0.636519 8.07176C0.675894 8.19572 0.820035 8.22014 0.933589 8.22014L1.03906 8.21077C1.16164 8.2081 1.17699 8.24884 1.27343 8.31458L1.5664 8.49063L1.90625 8.60972C1.93847 8.61655 1.96742 8.61574 2 8.61574H2.28125ZM2.28078 1.16701C2.34558 1.17824 2.34476 1.23391 2.36328 1.28935L2.48445 1.6713L2.71144 2.41204C2.765 2.59595 2.82945 2.79861 2.84269 2.99074C2.85019 3.09965 2.79453 3.33067 2.69937 3.39479C2.66609 3.41725 2.62472 3.41852 2.58593 3.41898H2.41015L2.28125 3.42998H2.11718C2.07031 3.43113 2.02261 3.4412 1.97656 3.42998C1.90554 3.41215 1.74593 3.26528 1.68359 3.21215C1.65253 3.18565 1.61152 3.15694 1.59687 3.11806L1.57812 2.875V2.21528L1.5664 2.01852V1.47454C1.56652 1.37523 1.58785 1.31377 1.68359 1.26354C1.72648 1.24097 1.85328 1.22431 1.90625 1.21678L2.28078 1.16701ZM2.57421 5.71065H4.88281V6.13889H2.57421V7.14583L2.55546 7.2382L2.43359 7.25H2.14062V6.13889H1.42578V5.71065H2.14062V4.62269H2.46875L2.55546 4.63449L2.57421 4.7037V4.88889V5.71065Z" fill="#AE101E" stroke="black" stroke-width="0.00333333"/>
</svg>
