<svg viewBox="0 0 68 28" fill="none" xmlns="http://www.w3.org/2000/svg">
    <path
        d="M26.1111 7.28127L23.5223 6.51363L22.0599 6.11949L21.9216 6.08408C21.7068 6.04972 21.4862 6.05625 21.2695 6.05878C21.1193 6.06068 20.9995 6.11253 20.8545 6.14309L20.1233 6.28178L18.9771 6.5463L18.6214 6.64368L17.9693 6.93518L17.3764 7.17483L15.7757 7.78059L14.7876 8.15935C14.1813 8.38382 13.4859 8.50586 12.9102 8.806C12.6703 8.93099 12.5676 8.91961 12.3587 9.15715C12.1791 9.36139 12.1401 9.5378 12.0261 9.76839L11.9283 9.95809C11.8605 10.1143 11.74 10.5055 11.705 10.6747L11.6579 10.9698L11.5983 11.2227L11.5054 12.2344L11.4874 12.4452L11.4676 12.9932C11.4672 13.0864 11.4578 13.2731 11.3983 13.3433C11.3408 13.411 11.2129 13.4365 11.1317 13.4641L10.5784 13.6696C10.4805 13.7128 10.2766 13.8677 10.1831 13.9387L9.49147 14.4745C9.35175 14.5772 8.99426 14.727 8.81957 14.8124L5.14389 16.5829L2.67367 17.7807L1.03345 18.5734C0.708369 18.7383 0.450083 18.7969 0.244165 19.1478C0.174407 19.2669 0.0222413 19.5843 0.00406053 19.7169C-0.0135274 19.8436 0.0303436 20.0722 0.0530695 20.2017L0.163933 20.8551L0.519644 22.752C0.593948 23.135 0.674181 23.7045 0.842156 24.0377C0.894327 24.1408 0.937407 24.1827 1.00519 24.2696C1.24312 24.5748 1.21901 24.5672 1.52749 24.8248C1.6761 24.9489 1.78696 25.0469 1.98201 25.0494H2.49582L2.83177 25.0705L3.83961 25.0916L4.17556 25.1127L5.02532 25.1548L5.36127 25.1759L5.79603 25.197H7.19911L7.53506 25.2181L8.30577 25.2391L8.64172 25.2602L9.70885 25.3234H9.8867L10.3215 25.3664H10.4993L11.6257 25.5816L11.9222 25.636L14.5702 25.889L15.5781 25.9804C15.6567 25.9897 15.7383 26.0209 15.8152 26.0426C16.07 26.1138 16.6087 26.2926 16.8428 26.293H17.989L18.325 26.2719H19.3921L19.6885 26.2508H20.8545L21.1509 26.2298H22.218L22.554 26.2087H23.6804L23.9768 26.1876H25.0439L25.3799 26.1665H26.4668L26.8027 26.1455H27.9094L28.2453 26.1244H28.9172C28.9854 26.1246 29.0724 26.1193 29.1303 26.1634C29.1908 26.2095 29.2289 26.3449 29.2571 26.4195L29.4678 26.9675C29.4868 27.013 29.5225 27.0935 29.5488 27.1325C29.6235 27.243 29.8832 27.4826 30.0041 27.5351C30.046 27.5532 30.3444 27.599 30.3994 27.5998C30.5288 27.6013 30.7312 27.5954 30.8539 27.5583C31.0369 27.5028 31.0758 27.474 31.2088 27.3258C31.4635 27.0421 31.4645 26.8699 31.4881 26.5038L31.506 26.293L31.4641 25.6818C31.4584 25.5844 31.4286 25.4819 31.4641 25.3867C31.4867 25.3241 31.5849 25.1945 31.627 25.1338L31.9323 24.6911L32.3479 23.9745L32.6647 23.4054L32.9228 22.6256C33.0158 22.3465 33.1854 21.9216 33.1858 21.6349V20.2649H33.9367L34.2727 20.2438H34.9248L35.241 20.2227H36.0117L36.3081 20.2017C36.2637 20.3315 36.2817 20.3231 36.2585 20.4335C36.2249 20.5929 36.1534 20.8209 36.0757 20.9604C36.018 21.0644 35.9493 21.1898 35.8726 21.2766C35.7967 21.3624 35.6904 21.4357 35.656 21.5506C35.8957 21.5902 36.6625 21.6332 36.901 21.6231H37.2172H37.4346H37.5926H37.731L38.0076 21.5963C38.178 21.5786 38.3355 21.5807 38.5017 21.5295C38.4442 21.4115 38.2614 21.3124 38.162 21.2037C37.8956 20.9122 37.7833 20.5827 37.8298 20.1806H38.561L38.8772 20.1595H39.2131L39.5491 20.1384H39.9443L40.2407 20.1174L40.8138 20.0963L40.7719 20.3281C40.735 20.5142 40.6559 20.7141 40.564 20.8761C40.5138 20.9644 40.4628 21.0528 40.397 21.1291C40.3255 21.2117 40.2536 21.2522 40.221 21.3609C40.464 21.4073 40.7237 21.4056 40.9705 21.401L41.9402 21.3828L42.375 21.3643L42.8493 21.3036C42.8963 21.297 42.9985 21.296 43.0238 21.2456C43.0433 21.207 43.0101 21.1767 42.9846 21.1552C42.8999 21.0842 42.874 21.0842 42.7702 20.983C42.5922 20.8095 42.4499 20.6228 42.3831 20.3703C42.328 20.1614 42.3635 20.1785 42.3355 20.0541H42.6912L43.0271 20.033L45.4183 19.9909L45.774 19.9698C45.677 20.3671 45.7013 20.4312 45.4859 20.8129C45.4009 20.9636 45.2136 21.1194 45.1812 21.2344C45.6025 21.315 46.2973 21.2686 46.7423 21.2741C47.0348 21.2777 47.7359 21.2269 48.0071 21.1501C47.9709 21.0304 47.9174 21.0359 47.8292 20.9682C47.7812 20.9314 47.6614 20.8169 47.6219 20.7693C47.4958 20.6163 47.3957 20.4647 47.3441 20.2649C47.2874 20.0455 47.3208 20.0626 47.2957 19.9277L47.6316 19.9066L48.7778 19.8644L49.0149 19.8442H49.2521L49.5683 19.8214H49.8647L50.1018 19.8003H50.3587L50.5959 19.7801L50.9713 19.759L50.93 20.012C50.8883 20.2419 50.8105 20.4428 50.6998 20.6443C50.566 20.8875 50.3986 20.975 50.3587 21.108C50.8257 21.2014 51.6428 21.1417 52.1373 21.1476L52.3151 21.136H52.4337L52.8092 21.0928C52.9481 21.0747 53.0714 21.077 53.2044 21.0237C53.1396 20.9084 53.0042 20.8428 52.908 20.7478C52.6855 20.5277 52.5009 20.2421 52.4932 19.9066C52.4922 19.8581 52.4883 19.7635 52.5132 19.7234C52.5558 19.6551 52.8287 19.6541 52.908 19.6537L53.1254 19.6345L53.5799 19.6115L53.7775 19.5923L54.2715 19.5674L54.5285 19.5483L54.8051 19.5272L55.1608 19.5061C55.2474 19.5057 55.5116 19.4597 55.5602 19.5188C55.608 19.5698 55.5701 19.8343 55.5602 19.9066C55.4889 20.2971 55.3116 20.6633 55.0225 20.9183V20.9604C55.2278 21.0245 55.7013 20.9965 55.9315 20.9904C56.4301 20.9773 57.4093 20.9217 57.8682 20.7918C57.8085 20.6685 57.7486 20.6694 57.6516 20.5971C57.5943 20.5543 57.4395 20.3981 57.3923 20.3403C57.2654 20.1848 57.1413 19.923 57.1198 19.7169C57.1026 19.5537 57.1431 19.4711 57.137 19.3586L58.797 19.2146L60.2396 19.0846C60.2386 19.4153 60.1675 19.7222 60.0157 20.012C59.8855 20.2607 59.7847 20.322 59.7489 20.3933C59.7333 20.4244 59.7323 20.443 59.7258 20.4757H59.9432L61.2079 20.4038L61.7184 20.3484L61.8798 20.3361L62.3343 20.2491C62.4308 20.2318 62.5039 20.2392 62.5517 20.1384C62.2547 19.9654 61.979 19.7483 61.8486 19.3999C61.7658 19.1788 61.7954 19.1322 61.7612 18.9792L62.6703 18.8679L63.5793 18.7416L64.1129 18.663C64.0761 18.9229 64.0145 19.152 63.8854 19.3796C63.8048 19.5221 63.6441 19.6754 63.6188 19.801H63.856L64.7848 19.7529L65.135 19.7144L65.7531 19.6518L66.2274 19.5571C66.3296 19.5375 66.39 19.5476 66.4448 19.4429C66.125 19.2789 65.8314 19.0085 65.7148 18.64C65.6859 18.5488 65.6393 18.3542 65.681 18.2649C65.7037 18.216 65.9043 18.0906 65.9705 18.0271C66.197 17.8098 66.2539 17.7192 66.4211 17.4616C66.5386 17.2801 66.6351 17.0818 66.6979 16.8714C66.7177 16.8053 66.7347 16.6581 66.8032 16.6371C66.8459 16.624 66.9884 16.6586 67.0376 16.6691C67.2977 16.725 67.4918 16.8166 67.7093 16.9804C67.8101 17.0565 67.8662 17.1661 67.9814 17.1876C68.0204 16.8042 67.9868 16.566 67.9814 16.197L67.9168 15.2487L67.8811 15.0255V14.8655L67.7953 14.3807C67.7801 14.2665 67.7862 14.1932 67.67 14.1525C67.5135 14.4908 67.2967 14.7627 66.9586 14.9016L66.7214 14.9745C66.6552 14.7709 66.5788 14.589 66.4414 14.4265C66.1432 14.0741 65.7934 13.9651 65.3776 13.8599C65.0937 13.788 64.8006 13.7309 64.5081 13.7309C64.4949 13.3486 64.6494 13.0832 64.9034 12.8254C65.0302 12.6967 65.1549 12.6398 65.1881 12.6005C65.2114 12.5727 65.2099 12.5611 65.2195 12.5295C65.0846 12.4756 65.0014 12.4781 64.8638 12.4574L64.1129 12.3835C63.6534 12.3719 62.8197 12.3116 62.3936 12.3835C62.4241 12.4846 62.5991 12.6528 62.6798 12.7824C62.8323 13.0274 62.9436 13.3741 62.9667 13.6677H62.6308L62.0577 13.7098H60.2396C60.2576 13.4276 60.4042 13.1011 60.5915 12.9017C60.6876 12.7995 60.8795 12.6777 60.9313 12.5717C60.6791 12.4939 60.1601 12.4928 59.8839 12.4869H59.1527C58.9482 12.4861 58.2861 12.5333 58.0856 12.5717C58.1162 12.6731 58.3134 12.8453 58.3879 12.9511C58.5334 13.1576 58.6612 13.475 58.6982 13.7309H58.2437L57.9472 13.752H57.1172L56.7813 13.7731L56.1884 13.7942L55.892 13.8152H55.5561L55.6029 13.5834C55.6375 13.4278 55.7432 13.2209 55.8391 13.0986C55.9659 12.9369 56.1912 12.7791 56.2477 12.6771C56.0262 12.6088 55.4061 12.5885 55.1608 12.5993H54.8051H54.6075L54.1727 12.6271C53.9135 12.6442 53.6583 12.6433 53.402 12.6981C53.4121 12.7317 53.4105 12.7416 53.4335 12.7717C53.4641 12.812 53.6123 12.9452 53.7077 13.0775C53.8475 13.271 53.984 13.5937 54.0146 13.8363H53.6392L53.3823 13.8574H51.6235L51.2875 13.8785H50.9318L50.5366 13.8995C50.5749 13.3956 50.8379 13.1043 51.2085 12.8246C51.1492 12.7125 51.0808 12.7468 50.9713 12.7314L50.4378 12.6893H50.2797L49.1928 12.7059C49.0084 12.7179 48.5082 12.739 48.3628 12.8035V12.8457C48.5812 13.0031 48.6825 13.1494 48.8039 13.3937L48.8867 13.5587L48.9952 13.9417L48.5011 13.9628L48.1849 13.9839H47.8885L47.5526 14.0049L46.0111 14.0471C46.0605 13.9065 46.0382 13.9225 46.0647 13.8152C46.0947 13.693 46.1914 13.5124 46.2665 13.4148C46.3161 13.3505 46.4111 13.2257 46.469 13.1776C46.5623 13.0999 46.6433 13.0834 46.683 12.9511C46.3989 12.8773 45.9714 12.8975 45.6752 12.8849H45.4381H45.0626L44.9243 12.902C44.6118 12.9057 44.1603 12.9283 43.8571 12.9932C43.8943 13.122 44.0316 13.1863 44.1561 13.3726C44.3602 13.6784 44.3668 13.7724 44.4697 14.1103L44.1535 14.1314L42.869 14.1735L42.5331 14.1946L41.6636 14.2387L41.1893 14.2789C41.2245 13.9938 41.3017 13.7495 41.4717 13.5202L41.6061 13.3551C41.6871 13.2712 41.7661 13.2392 41.8019 13.1197L41.1498 13.0986L40.9126 13.1167H40.7545H40.5569L39.5688 13.2316L38.976 13.3305C38.986 13.3638 38.9847 13.3741 39.0074 13.404C39.0475 13.4561 39.1588 13.5098 39.3003 13.6888C39.491 13.9299 39.5556 14.1109 39.6479 14.4054L38.7388 14.4667L36.901 14.6198L36.4267 14.6619L36.0512 14.7005C36.069 14.2878 36.3257 13.948 36.6243 13.7098V13.6677C36.4816 13.6306 36.1544 13.6464 35.9919 13.6466L35.7548 13.6658L35.0829 13.7273C34.7193 13.7661 34.1614 13.8237 33.8182 13.9206V13.9628C34.192 14.2319 34.2725 14.4204 34.4703 14.8269L33.3834 14.9132L32.9091 14.9534L32.8894 14.6373L32.8696 14.0892L32.8498 13.7942L32.8301 13.4358L32.7905 12.656L32.7708 12.3609L32.7313 11.581L32.7115 11.2438V10.759L32.6917 10.4639L32.672 10.0213V9.47331C32.6718 9.28509 32.6378 9.02773 32.605 8.84099C32.5838 8.72022 32.5793 8.62221 32.4854 8.53389C32.4236 8.47572 32.2807 8.46244 32.1977 8.44474L31.5851 8.29572L30.6958 8.11551L29.6287 7.89061C29.3633 7.83686 29.1115 7.7163 28.8382 7.70281L28.6258 6.43817L28.1548 3.63489L27.9942 2.55995C27.9637 2.29711 27.9313 1.89074 27.828 1.65362C27.6138 1.16294 27.1377 1.00613 26.6644 1.00023C26.5346 0.998752 26.3508 1.00318 26.2297 1.05229C26.0194 1.13744 25.7623 1.40491 25.6546 1.61147C25.5951 1.72592 25.5372 1.9251 25.5058 2.05409C25.4807 2.15674 25.4408 2.28594 25.4408 2.39133L25.4572 2.55995L25.524 3.29765L25.6087 3.80351C25.7536 4.66009 25.9147 5.51056 26.0152 6.37494L26.1111 7.28127ZM22.7911 8.84099V19.0635H27.4351V20.9183H22.7911V23.8902C22.7911 23.9321 22.7957 24.0126 22.771 24.0462C22.731 24.0999 22.4488 24.0799 22.3761 24.0799H21.0521V20.9183H16.6255C16.4344 20.9179 16.4472 20.9037 16.4476 20.6654L16.4674 20.307V19.2532C16.4676 19.1111 16.4577 19.0664 16.6057 19.0635H17.5345H21.0521V8.81991H21.5659L21.8821 8.84099H22.7911ZM9.57052 17.8471C9.9452 17.8092 10.0729 17.876 10.4203 17.9824C10.6552 18.0545 10.7594 18.0661 10.9736 18.2082C11.0588 18.2647 11.257 18.3896 11.3042 18.4752C11.3748 18.6032 11.3619 18.6951 11.3706 18.8316L11.3886 19.3164L11.4084 19.6747L11.4281 20.5178L11.4479 20.834V21.1501C11.4489 21.3786 11.5016 21.4682 11.4293 21.7192C11.3916 21.8508 11.2145 22.0497 11.1268 22.1619L10.4598 23.0049C10.2893 23.2157 10.2391 23.3418 9.96575 23.3422L9.55075 23.3633H8.66148L8.32553 23.3843H7.3572L7.02125 23.4054H6.13198L5.83555 23.4265H4.8277L4.53128 23.4476H3.08867C3.0361 23.4476 2.98156 23.4499 2.93058 23.4341C2.74126 23.3761 2.45787 23.0857 2.37567 22.8996C2.33278 22.8028 2.29109 22.4757 2.27014 22.3515L2.09525 21.0869L2.016 20.4546C2.0081 20.3905 1.97529 20.2388 2.00296 20.1852C2.02924 20.1344 2.09208 20.1142 2.14011 20.0963L2.47606 19.982L3.76057 19.5487L6.11221 18.7745L7.39673 18.3738L8.20696 18.1228L9.57052 17.8471Z"
        fill="#AE101E" stroke="black" stroke-width="0.00333333" />
</svg>