<?xml version="1.0" encoding="UTF-8" standalone="no"?>
<!DOCTYPE svg PUBLIC "-//W3C//DTD SVG 20010904//EN"
              "http://www.w3.org/TR/2001/REC-SVG-20010904/DTD/svg10.dtd">

<svg xmlns="http://www.w3.org/2000/svg"
     width="12.8in" height="7.2in"
     viewBox="0 0 3840 2160">
  <path id="Selection"
        fill="none" stroke="black" stroke-width="1"
        d="M 1779.00,172.00
           C 1779.00,172.00 1779.00,174.00 1779.00,174.00
             1791.91,181.95 1792.21,183.87 1798.00,197.00
             1780.35,202.03 1774.66,216.69 1771.21,233.00
             1770.57,236.05 1769.02,249.71 1767.57,251.10
             1765.60,253.00 1761.06,251.05 1759.00,250.09
             1751.31,246.49 1747.30,240.99 1743.00,234.00
             1743.00,234.00 1741.00,234.00 1741.00,234.00
             1735.79,252.03 1737.00,286.30 1737.00,306.00
             1741.72,304.46 1742.84,301.88 1747.00,299.10
             1753.06,295.06 1759.76,292.61 1767.00,292.00
             1767.00,292.00 1768.00,311.00 1768.00,311.00
             1768.00,311.00 1768.00,358.00 1768.00,358.00
             1761.24,356.71 1757.41,355.19 1752.00,350.67
             1748.04,347.36 1746.74,344.44 1742.00,342.00
             1739.23,351.45 1740.00,363.09 1740.00,373.00
             1740.00,383.33 1739.69,403.50 1742.00,413.00
             1747.56,410.37 1748.45,407.89 1753.00,404.63
             1757.70,401.27 1763.38,399.15 1769.00,398.00
             1769.00,398.00 1769.00,433.00 1769.00,433.00
             1769.00,433.00 1770.00,449.00 1770.00,449.00
             1770.00,449.00 1771.00,475.00 1771.00,475.00
             1765.33,473.84 1760.59,472.38 1756.00,468.66
             1751.59,465.09 1749.02,460.58 1744.00,458.00
             1744.00,458.00 1742.18,489.17 1742.18,489.17
             1742.18,489.17 1743.00,505.00 1743.00,505.00
             1743.00,505.00 1745.00,530.00 1745.00,530.00
             1745.00,530.00 1747.00,530.00 1747.00,530.00
             1753.08,522.04 1761.08,516.79 1771.00,515.00
             1771.00,515.00 1772.00,533.00 1772.00,533.00
             1772.00,533.00 1772.00,586.00 1772.00,586.00
             1772.00,586.00 1773.00,600.00 1773.00,600.00
             1759.17,598.74 1756.25,590.63 1747.00,583.00
             1742.99,596.10 1744.98,611.54 1745.00,625.00
             1745.01,633.40 1745.07,647.05 1747.00,655.00
             1752.56,652.37 1753.45,649.89 1758.00,646.63
             1762.50,643.41 1768.63,641.23 1774.04,640.00
             1774.04,640.00 1774.04,653.00 1774.04,653.00
             1774.04,653.00 1775.00,665.00 1775.00,665.00
             1775.00,665.00 1776.00,712.00 1776.00,712.00
             1765.72,710.91 1758.73,704.04 1753.00,696.00
             1753.00,696.00 1751.00,696.00 1751.00,696.00
             1747.85,707.09 1749.09,733.70 1749.87,746.00
             1750.36,753.79 1750.09,760.16 1752.00,768.00
             1752.00,768.00 1754.00,768.00 1754.00,768.00
             1761.46,758.17 1767.05,756.27 1778.00,752.00
             1778.00,752.00 1779.00,788.00 1779.00,788.00
             1779.00,788.00 1780.00,809.00 1780.00,809.00
             1780.00,809.00 1782.00,833.00 1782.00,833.00
             1776.06,831.80 1771.05,830.33 1766.01,826.78
             1761.17,823.37 1760.56,820.68 1755.00,818.00
             1752.84,825.62 1754.06,839.92 1755.00,848.00
             1755.00,848.00 1755.00,857.00 1755.00,857.00
             1755.00,857.00 1759.00,889.00 1759.00,889.00
             1759.00,889.00 1771.00,879.53 1771.00,879.53
             1771.00,879.53 1785.00,872.00 1785.00,872.00
             1785.00,872.00 1789.09,938.00 1789.09,938.00
             1789.09,938.00 1791.00,961.00 1791.00,961.00
             1791.00,961.00 1778.00,955.37 1778.00,955.37
             1778.00,955.37 1767.00,947.00 1767.00,947.00
             1767.00,947.00 1767.00,966.00 1767.00,966.00
             1767.03,983.34 1770.72,1000.85 1773.00,1018.00
             1773.00,1018.00 1783.00,1009.18 1783.00,1009.18
             1783.00,1009.18 1794.00,1002.00 1794.00,1002.00
             1794.00,1002.00 1797.00,1039.00 1797.00,1039.00
             1788.62,1040.11 1788.20,1039.91 1780.00,1040.00
             1780.00,1040.00 1767.00,1041.00 1767.00,1041.00
             1767.00,1041.00 1753.00,1042.00 1753.00,1042.00
             1753.00,1042.00 1744.00,1042.00 1744.00,1042.00
             1744.00,1042.00 1704.00,1044.00 1704.00,1044.00
             1704.00,1044.00 1687.00,1045.00 1687.00,1045.00
             1687.00,1045.00 1663.00,1045.84 1663.00,1045.84
             1658.76,1046.29 1651.55,1046.50 1648.31,1049.51
             1645.52,1052.11 1642.71,1068.39 1641.65,1073.00
             1641.65,1073.00 1633.00,1117.00 1633.00,1117.00
             1631.39,1124.78 1628.36,1133.22 1628.00,1141.00
             1628.00,1141.00 1601.00,1145.57 1601.00,1145.57
             1601.00,1145.57 1533.00,1157.58 1533.00,1157.58
             1533.00,1157.58 1508.00,1161.72 1508.00,1161.72
             1500.59,1162.62 1492.89,1163.05 1486.00,1166.33
             1475.29,1171.43 1473.10,1180.37 1471.72,1191.00
             1470.91,1197.23 1470.72,1202.05 1473.36,1208.00
             1475.76,1213.40 1479.95,1217.22 1485.00,1220.12
             1496.52,1226.75 1503.55,1226.23 1516.00,1225.07
             1516.00,1225.07 1537.00,1222.20 1537.00,1222.20
             1537.00,1222.20 1587.00,1213.73 1587.00,1213.73
             1587.00,1213.73 1618.00,1210.00 1618.00,1210.00
             1618.00,1210.00 1599.58,1275.00 1599.58,1275.00
             1597.14,1283.76 1590.10,1310.22 1590.00,1318.00
             1589.76,1339.05 1591.02,1335.27 1594.25,1355.00
             1596.24,1367.21 1599.53,1385.51 1603.54,1397.00
             1603.54,1397.00 1611.55,1416.00 1611.55,1416.00
             1611.55,1416.00 1627.33,1460.00 1627.33,1460.00
             1627.33,1460.00 1640.66,1498.00 1640.66,1498.00
             1640.66,1498.00 1647.33,1521.00 1647.33,1521.00
             1649.85,1528.57 1655.43,1544.99 1660.53,1550.56
             1665.43,1555.92 1670.79,1557.97 1677.00,1561.10
             1694.29,1569.84 1712.97,1571.78 1732.00,1573.09
             1732.00,1573.09 1742.00,1574.00 1742.00,1574.00
             1746.46,1574.05 1755.12,1573.37 1758.73,1575.93
             1762.56,1578.66 1765.21,1592.11 1767.54,1597.00
             1767.54,1597.00 1784.96,1622.00 1784.96,1622.00
             1788.48,1627.29 1790.68,1633.25 1793.31,1639.00
             1793.31,1639.00 1863.14,1793.00 1863.14,1793.00
             1863.14,1793.00 1880.00,1830.00 1880.00,1830.00
             1884.05,1839.44 1886.74,1848.91 1896.00,1854.52
             1908.97,1862.38 1916.12,1859.52 1930.00,1857.25
             1930.00,1857.25 1982.00,1847.00 1982.00,1847.00
             1990.96,1845.14 2003.29,1843.22 2011.00,1838.65
             2017.50,1834.80 2030.89,1822.15 2033.30,1815.00
             2033.98,1813.00 2033.97,1811.07 2034.04,1809.00
             2034.04,1809.00 2034.04,1797.00 2034.04,1797.00
             2034.04,1797.00 2035.00,1785.00 2035.00,1785.00
             2035.00,1785.00 2035.00,1769.00 2035.00,1769.00
             2035.00,1769.00 2036.00,1752.00 2036.00,1752.00
             2036.00,1752.00 2037.00,1726.00 2037.00,1726.00
             2037.00,1726.00 2038.00,1711.00 2038.00,1711.00
             2038.00,1711.00 2038.00,1671.00 2038.00,1671.00
             2038.00,1671.00 2039.00,1654.00 2039.00,1654.00
             2039.00,1654.00 2041.04,1616.00 2041.04,1616.00
             2041.04,1616.00 2041.04,1607.00 2041.04,1607.00
             2041.04,1607.00 2047.83,1564.00 2047.83,1564.00
             2047.83,1564.00 2049.17,1545.00 2049.17,1545.00
             2049.17,1545.00 2054.17,1490.00 2054.17,1490.00
             2054.17,1490.00 2056.89,1468.00 2056.89,1468.00
             2059.32,1457.27 2062.98,1449.18 2063.00,1438.00
             2063.00,1438.00 2063.00,1380.00 2063.00,1380.00
             2063.00,1380.00 2062.00,1365.00 2062.00,1365.00
             2062.00,1365.00 2062.00,1310.00 2062.00,1310.00
             2062.00,1310.00 2061.00,1295.00 2061.00,1295.00
             2061.00,1295.00 2061.00,1240.00 2061.00,1240.00
             2061.00,1240.00 2060.00,1223.00 2060.00,1223.00
             2060.00,1223.00 2060.00,1168.00 2060.00,1168.00
             2060.00,1168.00 2059.00,1153.00 2059.00,1153.00
             2058.95,1148.70 2058.17,1137.55 2060.74,1134.41
             2062.93,1131.73 2073.28,1128.41 2077.00,1126.69
             2088.15,1121.53 2093.21,1114.20 2093.91,1102.00
             2094.09,1098.82 2093.63,1096.10 2093.08,1093.00
             2089.11,1070.64 2063.58,1074.21 2047.00,1075.38
             2040.23,1075.86 2034.19,1069.69 2029.00,1065.88
             2020.49,1059.63 2007.37,1051.75 1998.00,1046.67
             1992.43,1043.64 1982.27,1040.42 1976.00,1038.33
             1964.80,1034.60 1961.30,1032.02 1949.00,1032.00
             1949.00,1032.00 1922.00,1032.00 1922.00,1032.00
             1922.00,1032.00 1922.00,972.00 1922.00,972.00
             1922.00,972.00 1921.00,956.00 1921.00,956.00
             1933.64,959.35 1941.43,960.78 1950.00,972.00
             1950.00,972.00 1952.00,972.00 1952.00,972.00
             1954.14,963.20 1954.00,945.45 1954.00,936.00
             1954.00,924.91 1954.59,910.65 1952.00,900.00
             1946.64,902.77 1946.21,905.77 1941.91,909.53
             1935.34,915.29 1929.51,916.92 1920.96,917.00
             1920.96,917.00 1920.96,900.00 1920.96,900.00
             1920.96,900.00 1920.00,888.00 1920.00,888.00
             1920.00,888.00 1920.00,870.00 1920.00,870.00
             1920.00,870.00 1919.04,858.00 1919.04,858.00
             1919.04,858.00 1919.04,844.00 1919.04,844.00
             1934.67,845.32 1939.87,854.18 1948.00,858.00
             1949.67,851.12 1949.00,840.38 1949.00,833.00
             1949.00,820.13 1948.97,799.18 1946.00,787.00
             1940.88,788.68 1939.97,792.19 1935.98,795.90
             1930.75,800.77 1925.08,803.36 1918.00,804.00
             1918.00,804.00 1917.00,784.00 1917.00,784.00
             1917.00,784.00 1917.00,756.00 1917.00,756.00
             1917.00,756.00 1916.00,740.00 1916.00,740.00
             1916.00,740.00 1916.00,720.00 1916.00,720.00
             1922.31,721.27 1928.62,723.27 1934.00,726.91
             1938.52,729.97 1939.68,732.49 1945.00,735.00
             1946.68,728.07 1946.00,716.50 1946.00,709.00
             1946.00,693.76 1946.75,677.89 1943.00,663.00
             1943.00,663.00 1941.00,663.00 1941.00,663.00
             1936.69,669.90 1931.59,675.33 1924.00,678.65
             1919.32,680.70 1915.35,681.05 1914.11,674.99
             1914.11,674.99 1914.11,669.00 1914.11,669.00
             1914.11,669.00 1912.00,612.00 1912.00,612.00
             1911.99,604.11 1910.07,597.92 1912.00,590.00
             1924.37,594.55 1930.80,594.40 1940.00,606.00
             1940.00,606.00 1942.00,606.00 1942.00,606.00
             1944.03,597.67 1943.01,579.26 1943.00,570.00
             1942.98,558.97 1943.45,544.45 1940.00,534.00
             1940.00,534.00 1938.00,534.00 1938.00,534.00
             1929.82,546.11 1923.77,550.96 1909.00,551.00
             1909.00,551.00 1908.09,542.00 1908.09,542.00
             1908.09,542.00 1905.96,502.00 1905.96,502.00
             1905.96,502.00 1905.00,490.00 1905.00,490.00
             1905.00,490.00 1904.00,475.00 1904.00,475.00
             1911.67,475.62 1919.16,477.13 1926.00,480.79
             1926.00,480.79 1939.00,489.00 1939.00,489.00
             1940.52,474.83 1939.02,474.43 1939.00,462.00
             1938.98,446.75 1937.73,433.01 1935.00,418.00
             1929.61,419.81 1927.90,425.21 1923.54,428.96
             1916.04,435.39 1910.31,436.00 1901.00,436.00
             1901.00,436.00 1896.83,380.00 1896.83,380.00
             1896.83,380.00 1895.00,359.00 1895.00,359.00
             1902.65,360.02 1908.09,361.01 1915.00,364.80
             1920.37,367.74 1921.04,370.25 1927.00,372.00
             1927.00,355.17 1926.46,338.71 1924.28,322.00
             1923.37,314.99 1923.02,307.48 1920.00,301.00
             1920.00,301.00 1918.00,301.00 1918.00,301.00
             1914.27,308.61 1909.20,315.27 1901.00,318.29
             1898.20,319.32 1894.24,320.73 1892.17,317.68
             1890.99,315.93 1890.13,301.99 1889.97,299.00
             1889.97,299.00 1885.00,263.00 1885.00,263.00
             1902.36,266.50 1900.97,270.73 1911.02,275.00
             1912.86,267.33 1911.31,263.32 1911.02,256.00
             1911.02,256.00 1908.28,224.00 1908.28,224.00
             1907.38,217.11 1907.01,210.37 1904.00,204.00
             1904.00,204.00 1902.00,204.00 1902.00,204.00
             1895.99,216.24 1887.80,222.96 1874.00,223.00
             1870.57,210.39 1849.48,197.93 1837.00,196.00
             1840.25,183.73 1840.50,177.19 1851.00,168.00
             1851.00,168.00 1851.00,165.96 1851.00,165.96
             1842.66,163.97 1835.29,165.34 1827.00,165.96
             1814.47,166.77 1789.68,166.95 1779.00,172.00 Z
           M 1938.00,1176.00
           C 1938.00,1176.00 1938.00,1291.00 1938.00,1291.00
             1938.00,1291.00 2002.00,1291.00 2002.00,1291.00
             2008.74,1291.01 2010.86,1290.51 2011.00,1298.00
             2011.00,1298.00 2011.68,1324.34 2011.68,1324.34
             2011.76,1327.33 2012.67,1332.13 2010.40,1334.40
             2008.48,1336.32 2004.54,1335.99 2002.00,1336.00
             2002.00,1336.00 1938.00,1336.00 1938.00,1336.00
             1938.00,1336.00 1938.00,1441.00 1938.00,1441.00
             1938.00,1441.00 1936.40,1448.98 1936.40,1448.98
             1936.40,1448.98 1925.00,1450.00 1925.00,1450.00
             1925.00,1450.00 1893.00,1449.00 1893.00,1449.00
             1893.00,1449.00 1893.00,1336.00 1893.00,1336.00
             1893.00,1336.00 1663.00,1336.00 1663.00,1336.00
             1660.70,1336.00 1656.59,1336.38 1654.91,1334.40
             1653.06,1331.92 1654.35,1324.06 1654.91,1321.00
             1654.91,1321.00 1654.91,1291.00 1654.91,1291.00
             1654.91,1291.00 1893.00,1291.00 1893.00,1291.00
             1893.00,1291.00 1893.00,1176.00 1893.00,1176.00
             1893.00,1176.00 1938.00,1176.00 1938.00,1176.00 Z
           M 1949.00,1573.45
           C 1959.72,1573.95 1964.23,1579.64 1972.00,1586.27
             1975.97,1589.66 1990.98,1601.65 1992.83,1605.09
             1993.92,1607.13 1994.96,1620.99 1995.00,1624.00
             1995.00,1624.00 1995.00,1672.00 1995.00,1672.00
             1995.00,1672.00 1996.00,1689.00 1996.00,1689.00
             1996.00,1689.00 1996.00,1735.00 1996.00,1735.00
             1996.00,1735.00 1997.00,1752.00 1997.00,1752.00
             1997.00,1752.00 1997.00,1778.00 1997.00,1778.00
             1997.00,1781.00 1997.12,1784.12 1996.15,1787.00
             1994.48,1791.93 1988.65,1798.19 1984.00,1800.43
             1978.65,1803.01 1953.33,1806.22 1946.00,1807.27
             1946.00,1807.27 1923.02,1810.27 1923.02,1810.27
             1921.16,1810.25 1920.04,1810.09 1918.72,1808.65
             1916.87,1806.61 1912.91,1791.74 1911.67,1788.00
             1911.67,1788.00 1887.86,1712.00 1887.86,1712.00
             1881.14,1688.55 1872.91,1665.01 1868.58,1641.00
             1867.37,1634.34 1865.08,1624.42 1865.00,1618.00
             1864.89,1608.23 1868.46,1594.42 1873.45,1586.00
             1875.26,1582.95 1877.85,1578.85 1881.04,1577.17
             1883.86,1575.69 1895.40,1575.01 1899.00,1574.96
             1899.00,1574.96 1915.00,1574.96 1915.00,1574.96
             1915.00,1574.96 1927.00,1574.00 1927.00,1574.00
             1927.00,1574.00 1949.00,1573.45 1949.00,1573.45 Z" />
</svg>
