<?xml version="1.0" encoding="UTF-8" standalone="no"?>
<!DOCTYPE svg PUBLIC "-//W3C//DTD SVG 20010904//EN"
              "http://www.w3.org/TR/2001/REC-SVG-20010904/DTD/svg10.dtd">

<svg xmlns="http://www.w3.org/2000/svg"
     width="12.8in" height="7.2in"
     viewBox="0 0 3840 2160">
  <path id="Selection"
        fill="none" stroke="black" stroke-width="1"
        d="M 1816.00,1090.00
           C 1816.00,1090.00 1817.00,1127.00 1817.00,1127.00
             1817.00,1127.00 1818.00,1153.00 1818.00,1153.00
             1808.19,1152.17 1799.83,1148.06 1794.00,1140.00
             1794.00,1140.00 1792.00,1140.00 1792.00,1140.00
             1791.01,1143.48 1790.01,1157.92 1790.00,1162.00
             1789.98,1172.93 1789.49,1189.69 1792.00,1200.00
             1792.00,1200.00 1794.00,1200.00 1794.00,1200.00
             1800.34,1190.02 1806.20,1186.11 1818.00,1186.00
             1818.00,1186.00 1818.00,1210.00 1818.00,1210.00
             1818.00,1210.00 1819.00,1226.00 1819.00,1226.00
             1819.00,1226.00 1820.00,1246.00 1820.00,1246.00
             1805.23,1244.76 1803.28,1237.91 1795.00,1234.00
             1795.00,1234.00 1794.00,1251.00 1794.00,1251.00
             1793.99,1260.13 1795.05,1285.96 1797.00,1294.00
             1797.00,1294.00 1799.00,1294.00 1799.00,1294.00
             1805.27,1284.73 1808.99,1281.51 1820.00,1279.00
             1820.00,1279.00 1821.00,1298.00 1821.00,1298.00
             1821.00,1298.00 1821.00,1318.00 1821.00,1318.00
             1821.00,1318.00 1822.00,1334.00 1822.00,1334.00
             1822.00,1334.00 1822.00,1349.00 1822.00,1349.00
             1822.00,1349.00 1810.00,1344.82 1810.00,1344.82
             1810.00,1344.82 1798.00,1337.00 1798.00,1337.00
             1796.30,1342.97 1797.00,1351.62 1797.00,1358.00
             1797.00,1370.70 1796.75,1383.46 1799.00,1396.00
             1807.94,1391.40 1807.25,1383.44 1823.00,1381.00
             1823.00,1381.00 1824.00,1402.00 1824.00,1402.00
             1824.00,1402.00 1824.00,1416.00 1824.00,1416.00
             1824.00,1416.00 1825.00,1437.00 1825.00,1437.00
             1825.00,1437.00 1826.00,1456.00 1826.00,1456.00
             1826.00,1456.00 1811.00,1450.88 1811.00,1450.88
             1811.00,1450.88 1800.00,1443.00 1800.00,1443.00
             1800.00,1443.00 1799.00,1457.00 1799.00,1457.00
             1799.00,1457.00 1799.83,1486.00 1799.83,1486.00
             1799.83,1486.00 1802.00,1503.00 1802.00,1503.00
             1802.00,1503.00 1804.00,1503.00 1804.00,1503.00
             1809.62,1493.38 1816.76,1488.25 1828.00,1488.00
             1828.00,1488.00 1829.00,1508.00 1829.00,1508.00
             1829.00,1508.00 1831.00,1541.00 1831.00,1541.00
             1831.00,1541.00 1831.00,1551.00 1831.00,1551.00
             1815.05,1550.85 1812.04,1544.07 1803.00,1540.00
             1800.29,1549.56 1802.95,1561.22 1803.00,1571.00
             1803.04,1579.38 1804.51,1590.69 1806.00,1599.00
             1811.11,1596.35 1811.14,1593.89 1815.09,1590.32
             1821.34,1584.68 1825.98,1584.02 1834.00,1584.00
             1834.00,1584.00 1834.91,1596.00 1834.91,1596.00
             1834.91,1596.00 1839.00,1647.00 1839.00,1647.00
             1826.46,1646.41 1822.73,1642.51 1813.00,1636.00
             1811.07,1643.94 1812.96,1651.92 1813.00,1660.00
             1813.04,1667.59 1815.49,1688.14 1818.00,1695.00
             1818.00,1695.00 1820.00,1695.00 1820.00,1695.00
             1827.80,1683.46 1829.57,1683.14 1842.00,1679.00
             1842.00,1679.00 1847.00,1727.00 1847.00,1727.00
             1830.37,1722.04 1835.49,1721.27 1825.98,1717.00
             1824.01,1723.99 1825.67,1727.25 1825.98,1734.00
             1826.63,1748.96 1828.04,1761.30 1831.00,1776.00
             1836.65,1772.75 1842.11,1760.69 1851.98,1760.47
             1856.76,1760.37 1857.13,1764.42 1863.02,1769.83
             1869.30,1775.60 1878.40,1781.22 1887.00,1782.00
             1887.00,1782.00 1883.37,1795.00 1883.37,1795.00
             1883.37,1795.00 1876.00,1807.04 1876.00,1807.04
             1883.54,1809.14 1891.37,1807.61 1899.00,1807.04
             1911.09,1806.26 1923.13,1805.99 1935.00,1803.00
             1935.00,1803.00 1935.00,1800.00 1935.00,1800.00
             1930.63,1797.65 1919.96,1788.91 1920.99,1783.22
             1921.43,1780.77 1925.04,1779.48 1926.96,1778.24
             1930.19,1776.16 1933.20,1773.17 1935.37,1770.00
             1940.05,1763.14 1943.31,1744.53 1944.00,1736.00
             1954.35,1736.96 1959.49,1742.85 1965.00,1751.00
             1965.00,1751.00 1967.00,1751.00 1967.00,1751.00
             1969.96,1739.27 1970.00,1723.20 1970.00,1711.00
             1970.00,1704.77 1970.67,1696.89 1969.00,1691.00
             1959.34,1697.82 1957.77,1701.19 1945.00,1703.00
             1945.00,1703.00 1944.00,1680.00 1944.00,1680.00
             1944.00,1680.00 1944.00,1648.00 1944.00,1648.00
             1954.28,1651.07 1957.38,1653.25 1964.00,1662.00
             1964.00,1662.00 1966.00,1662.00 1966.00,1662.00
             1966.00,1662.00 1967.17,1653.00 1967.17,1653.00
             1967.17,1653.00 1967.91,1629.09 1967.91,1629.09
             1967.91,1629.09 1967.00,1615.00 1967.00,1615.00
             1967.00,1615.00 1966.00,1603.00 1966.00,1603.00
             1957.85,1606.85 1957.47,1611.84 1944.00,1615.00
             1944.00,1615.00 1943.00,1595.00 1943.00,1595.00
             1943.00,1595.00 1943.00,1576.00 1943.00,1576.00
             1943.00,1576.00 1942.04,1565.00 1942.04,1565.00
             1942.04,1565.00 1942.04,1552.00 1942.04,1552.00
             1954.71,1553.35 1956.27,1561.17 1964.00,1565.00
             1968.10,1548.13 1964.16,1523.47 1964.00,1506.00
             1964.00,1506.00 1954.00,1513.21 1954.00,1513.21
             1954.00,1513.21 1942.00,1519.00 1942.00,1519.00
             1942.00,1519.00 1941.00,1502.00 1941.00,1502.00
             1941.00,1502.00 1940.00,1448.00 1940.00,1448.00
             1949.62,1449.51 1954.87,1453.96 1960.00,1462.00
             1960.00,1462.00 1962.00,1462.00 1962.00,1462.00
             1964.83,1452.03 1964.24,1428.76 1963.23,1418.00
             1962.55,1410.68 1963.58,1409.82 1961.00,1402.00
             1953.01,1408.88 1949.95,1412.70 1939.00,1415.00
             1939.00,1415.00 1939.00,1395.00 1939.00,1395.00
             1939.00,1395.00 1938.00,1380.00 1938.00,1380.00
             1938.00,1380.00 1938.00,1355.00 1938.00,1355.00
             1953.52,1361.02 1947.00,1359.93 1958.00,1369.00
             1960.79,1361.34 1960.00,1355.01 1960.00,1347.00
             1960.00,1329.40 1959.98,1326.52 1958.00,1309.00
             1949.68,1313.20 1952.87,1316.15 1936.00,1322.00
             1936.00,1309.22 1934.92,1265.71 1933.00,1255.00
             1942.71,1258.30 1946.42,1259.38 1953.00,1268.00
             1953.00,1268.00 1955.00,1268.00 1955.00,1268.00
             1957.53,1259.11 1955.30,1239.59 1954.15,1230.00
             1953.32,1223.05 1953.39,1215.54 1951.00,1209.00
             1951.00,1209.00 1949.00,1209.00 1949.00,1209.00
             1943.58,1216.10 1939.35,1219.08 1931.00,1222.00
             1931.00,1222.00 1926.91,1169.00 1926.91,1169.00
             1926.91,1169.00 1925.00,1149.00 1925.00,1149.00
             1938.86,1153.84 1936.37,1156.92 1945.00,1161.00
             1945.00,1161.00 1945.00,1142.00 1945.00,1142.00
             1945.00,1142.00 1940.00,1102.00 1940.00,1102.00
             1933.67,1105.61 1933.19,1110.86 1922.00,1115.00
             1922.00,1115.00 1920.97,1095.00 1920.97,1095.00
             1920.73,1092.51 1919.64,1088.57 1920.97,1086.43
             1922.80,1083.73 1927.17,1084.02 1930.00,1084.00
             1930.00,1084.00 1948.00,1083.00 1948.00,1083.00
             1948.00,1083.00 1982.00,1081.00 1982.00,1081.00
             1982.00,1081.00 1995.00,1081.00 1995.00,1081.00
             1995.00,1081.00 2011.00,1080.00 2011.00,1080.00
             2011.00,1080.00 2031.00,1079.28 2031.00,1079.28
             2035.07,1078.78 2041.30,1078.99 2044.10,1075.43
             2045.38,1073.79 2047.78,1061.86 2048.42,1059.00
             2048.42,1059.00 2056.35,1019.00 2056.35,1019.00
             2057.37,1014.48 2058.91,1002.73 2063.14,1000.72
             2063.14,1000.72 2095.00,994.57 2095.00,994.57
             2095.00,994.57 2150.00,984.61 2150.00,984.61
             2158.82,983.05 2172.72,983.12 2179.99,978.15
             2190.17,971.18 2193.42,950.61 2185.66,941.00
             2178.73,932.43 2169.55,929.88 2159.00,930.00
             2144.85,930.16 2120.70,935.89 2106.00,938.54
             2106.00,938.54 2086.00,941.28 2086.00,941.28
             2077.26,942.46 2078.74,942.99 2069.00,943.00
             2069.00,943.00 2075.14,921.00 2075.14,921.00
             2075.14,921.00 2086.47,879.00 2086.47,879.00
             2088.81,869.76 2091.99,860.59 2092.00,851.00
             2092.00,851.00 2092.00,845.00 2092.00,845.00
             2092.00,845.00 2088.61,825.00 2088.61,825.00
             2086.53,813.42 2083.82,797.92 2079.77,787.00
             2079.77,787.00 2072.42,769.00 2072.42,769.00
             2072.42,769.00 2051.43,710.00 2051.43,710.00
             2046.56,696.48 2042.04,669.75 2031.96,660.10
             2019.56,648.24 1986.96,642.20 1970.00,642.00
             1965.30,641.95 1956.03,642.69 1952.22,640.07
             1948.52,637.51 1946.93,627.46 1944.76,623.00
             1941.51,616.31 1933.80,607.27 1929.60,601.00
             1926.69,596.67 1924.98,591.69 1922.75,587.00
             1922.75,587.00 1901.69,540.00 1901.69,540.00
             1901.69,540.00 1868.86,468.00 1868.86,468.00
             1868.86,468.00 1852.54,432.00 1852.54,432.00
             1850.07,426.52 1846.65,417.37 1842.67,413.19
             1840.41,410.81 1837.91,409.44 1835.00,408.03
             1832.57,406.85 1829.69,405.55 1827.00,405.22
             1827.00,405.22 1803.00,408.92 1803.00,408.92
             1803.00,408.92 1763.00,417.11 1763.00,417.11
             1754.61,419.04 1748.44,418.99 1741.00,424.30
             1731.88,430.81 1724.06,438.27 1724.00,450.00
             1724.00,450.00 1724.00,454.00 1724.00,454.00
             1724.00,454.00 1723.00,468.00 1723.00,468.00
             1723.00,468.00 1723.00,487.00 1723.00,487.00
             1723.00,487.00 1721.00,521.00 1721.00,521.00
             1721.00,521.00 1721.00,560.00 1721.00,560.00
             1721.00,560.00 1719.96,575.00 1719.96,575.00
             1719.96,575.00 1719.96,588.00 1719.96,588.00
             1719.96,588.00 1719.00,598.00 1719.00,598.00
             1718.70,623.64 1715.21,629.51 1712.06,652.00
             1712.06,652.00 1712.06,661.00 1712.06,661.00
             1712.06,661.00 1708.00,698.00 1708.00,698.00
             1708.00,698.00 1708.00,707.00 1708.00,707.00
             1708.00,707.00 1705.33,728.00 1705.33,728.00
             1703.04,739.16 1700.02,743.90 1700.00,756.00
             1700.00,756.00 1700.00,803.00 1700.00,803.00
             1700.00,803.00 1701.00,818.00 1701.00,818.00
             1701.00,818.00 1701.00,889.00 1701.00,889.00
             1701.00,889.00 1702.00,906.00 1702.00,906.00
             1702.00,906.00 1702.00,947.00 1702.00,947.00
             1702.00,947.00 1703.00,964.00 1703.00,964.00
             1703.00,964.00 1703.00,997.00 1703.00,997.00
             1703.00,999.34 1703.20,1002.74 1701.98,1004.78
             1699.87,1008.29 1689.09,1011.48 1685.04,1013.87
             1678.15,1017.96 1675.11,1023.04 1675.00,1031.00
             1674.96,1034.11 1674.78,1040.23 1675.65,1043.00
             1679.01,1053.71 1691.31,1055.82 1701.00,1055.82
             1701.00,1055.82 1710.00,1055.01 1710.00,1055.01
             1720.46,1054.78 1721.77,1058.30 1730.00,1063.98
             1730.00,1063.98 1755.00,1079.19 1755.00,1079.19
             1755.00,1079.19 1784.00,1089.48 1784.00,1089.48
             1786.75,1090.07 1789.22,1090.00 1792.00,1090.00
             1792.00,1090.00 1816.00,1090.00 1816.00,1090.00 Z
           M 1815.96,446.43
           C 1821.49,447.40 1821.42,452.21 1823.00,457.00
             1823.00,457.00 1833.34,490.00 1833.34,490.00
             1833.34,490.00 1852.71,554.00 1852.71,554.00
             1857.28,569.89 1862.78,587.40 1863.91,604.00
             1864.55,613.41 1859.80,633.37 1851.68,638.91
             1848.84,640.85 1845.31,640.96 1842.00,641.00
             1842.00,641.00 1827.00,641.00 1827.00,641.00
             1827.00,641.00 1816.00,641.95 1816.00,641.95
             1816.00,641.95 1802.00,641.95 1802.00,641.95
             1798.00,642.05 1793.93,642.92 1790.00,641.95
             1783.94,640.41 1770.32,627.72 1765.00,623.13
             1762.35,620.84 1758.85,618.36 1757.60,615.00
             1757.60,615.00 1756.00,594.00 1756.00,594.00
             1756.00,594.00 1756.00,537.00 1756.00,537.00
             1756.00,537.00 1755.00,520.00 1755.00,520.00
             1755.00,520.00 1755.00,473.00 1755.00,473.00
             1755.01,464.42 1756.83,459.11 1765.00,454.77
             1768.66,452.82 1779.48,451.38 1784.00,450.73
             1784.00,450.73 1815.96,446.43 1815.96,446.43 Z
           M 1841.00,839.00
           C 1841.00,839.00 2038.00,839.00 2038.00,839.00
             2038.00,839.00 2038.00,876.00 2038.00,876.00
             2038.00,876.00 1841.00,876.00 1841.00,876.00
             1841.00,876.00 1841.00,963.00 1841.00,963.00
             1841.00,963.00 1839.40,970.98 1839.40,970.98
             1839.40,970.98 1829.00,972.00 1829.00,972.00
             1829.00,972.00 1804.00,972.00 1804.00,972.00
             1804.00,972.00 1804.00,876.00 1804.00,876.00
             1804.00,876.00 1743.00,876.00 1743.00,876.00
             1743.00,876.00 1743.00,839.00 1743.00,839.00
             1743.00,839.00 1804.00,839.00 1804.00,839.00
             1804.00,839.00 1804.00,745.00 1804.00,745.00
             1804.00,745.00 1832.00,745.00 1832.00,745.00
             1832.00,745.00 1839.40,746.02 1839.40,746.02
             1839.40,746.02 1841.00,752.00 1841.00,752.00
             1841.00,752.00 1841.00,768.00 1841.00,768.00
             1841.00,768.00 1841.00,839.00 1841.00,839.00 Z" />
</svg>
